<?xml version="1.0" encoding="utf-8"?>
<!-- Generator: Adobe Illustrator 19.1.0, SVG Export Plug-In . SVG Version: 6.00 Build 0)  -->
<svg version="1.1" id="layout1" xmlns="http://www.w3.org/2000/svg" xmlns:xlink="http://www.w3.org/1999/xlink" x="0px" y="0px"
	 viewBox="-552 379.7 153.4 202.3" style="enable-background:new -552 379.7 153.4 202.3;" xml:space="preserve">
<style type="text/css">
	.st0{fill:#B4A79D;}
	.st1{fill:#47312A;}
	.st2{fill:none;stroke:#47312A;stroke-width:3;stroke-linecap:round;stroke-miterlimit:10;}
	.st3{fill:#E191A3;stroke:#47312A;stroke-width:2;stroke-miterlimit:10;}
	.st4{fill:none;stroke:#47312A;stroke-width:2;stroke-linecap:round;stroke-miterlimit:10;}
	.st5{fill:#47312A;stroke:#47312A;stroke-miterlimit:10;}
</style>
<g id="cat1">
	<path id="backgrond" class="st0" d="M-438.9,415.5c-2.7,0.6-4.5-2.2-2.3-3.5c1.6-1,0.4-3-1.9-3c-2.5,0-3.2-1-2.1-2.9
		c0.7-1.3-0.6-3.4-5.3-8.9c-3.4-4-7.5-8.1-9.2-9.2c-3.6-2.4-3.9-2.4-5.4-0.7c-1.8,2.3-7.1,15.8-7.1,18.4c0,3.6-2.9,4.1-5.5,0.9
		c-2.3-2.9-3.5-2.6-3.5,1c0,2-1.7,3.4-4.1,3.4c-0.5,0-1.5-1.1-2.1-2.5c-1.4-3.2-3.1-2.7-3.8,1.1c-0.7,3.9-4.3,4.5-6.2,1.1
		c-1.6-3-15.5-13.7-17.8-13.7c-2.2,0-3.4,2.9-6.5,15.2c-2.3,9-2.5,10.2-1.1,11c2.4,1.3,1.9,2.7-1.1,4c-2.7,1.1-2.7,1.2-0.5,1.5
		c3.1,0.6,3,4.3-0.1,4.3c-2.2,0-2.9,1.7-9.5,21.7c-8.6,26.3-10,31.8-11.1,43.1c-1,11.3,0.2,28.4,2.5,34.2
		c3.7,9.6,10.4,16.9,19.4,21.5c12.9,6.5,31,7.4,31,1.6c0-3.1-1.7-3.4-5.6-1c-2.7,1.6-3.8,1.9-4.7,1c-1.9-1.9,3.4-6.3,7.8-6.5
		c3-0.1,4.1,0.5,5.9,2.7c2,2.7,2,3,0.4,5.7c-1.4,2.5-1.4,2.9-0.1,3.4c1.8,0.7,31.3,0.8,31.3,0.1c0-0.3-0.5-1.4-1.2-2.5
		c-1.7-2.7,0.1-7.2,3.3-8.4c3.2-1.1,6.9-0.3,10,2.3c1.9,1.6,2.2,2.2,1.1,3.2c-1,1.1-1.8,1-4.1-0.4c-3.6-2.1-5.7-2.2-6.5-0.2
		c-0.3,0.9,0.4,2.1,2,3.1c3.3,2.2,13.8,1.4,21.4-1.6c15.6-6.1,22.7-17.1,25.3-38.8c2.9-25.1-6.3-60.5-23.6-90
		C-435.9,416.2-436.9,415-438.9,415.5z M-504,431.7c-2.6,0.5-4.8-1.7-4.3-4.3c0.3-1.4,1.4-2.6,2.9-2.9c2.6-0.5,4.8,1.7,4.3,4.3
		C-501.4,430.3-502.6,431.4-504,431.7z M-482.1,422.5c0,0,1.1,3.6-2,5.6 M-478.1,426.9l1,0.2c0,0,0.6,5.6-3.2,5.8
		c-3.8,0.2-4.7-4.2-4.7-4.2l4-2.5L-478.1,426.9c-3.6-0.6-4-4.8-4-4.8 M-458.2,422.3c-2.5,0.4-4.7-1.8-4.3-4.3
		c0.2-1.6,1.5-2.9,3.1-3.1c2.5-0.4,4.7,1.8,4.3,4.3C-455.4,420.7-456.7,422-458.2,422.3z"/>
	<path id="border" class="st1" d="M-465.8,383.2c-2.1,1-4.2,4.6-7.6,12.8l-1.4,3.5l-11.7,2.3l-11.6,2.3l-5.8-4.7
		c-7-5.7-9.3-6.8-12.6-6c-3.7,0.9-5.5,4.3-8.6,16.4c-1.5,6-3,11.4-3.4,12.1c-0.4,0.6-2.4,1.1-4.4,1.1c-5,0-10.5,1.6-13.4,4
		c-2,1.6-2.1,1.9-0.6,2.5c0.9,0.4,2.9,0,4.5-0.8c3.3-1.7,13.3-3.3,13.3-2c0,1.9-2,3.6-6.6,5.8c-6.6,3.2-8.8,5.1-8.1,6.9
		c0.5,1.3,1.5,1,5.7-1.6c2.7-1.7,5.3-2.8,5.7-2.4c0.4,0.3-1.9,8.2-5,17.4c-9.7,28.7-10.8,33.7-11.4,51.2c-0.7,21.8,1.6,31.8,9.8,42
		c2.8,3.4,3.1,4.3,1.9,5c-0.8,0.6-2,1-2.6,1c-1.3,0-6.8,5.8-8.3,8.7c-1.5,3-1.4,10.7,0.3,14.8c1.5,3.4,5.9,6.5,9.4,6.5
		c1.1,0,3.2-1,4.7-2.1c2.2-1.8,2.6-2.8,2.3-5.8c-0.3-2-0.8-4.4-1.2-5.3c-0.5-1.2,0-2.2,2-3.5c3.1-2,1.4-1.9,52.4-1.3
		c26,0.4,29.3,0.2,38-1.7c11.6-2.5,17.6-5.2,23.8-10.8c5.9-5.3,9.6-12,12.4-22.2c3-11.2,2.9-32.7-0.1-47.3
		c-4.3-20.6-13-42.3-24.2-60.6c-2.9-4.7-4.9-8.7-4.6-9.1c0.4-0.3,3.4-1.1,6.9-1.7c3.4-0.6,6.2-1.6,6.3-2.1c0-1.6-5.5-1.8-11.4-0.5
		c-4.4,1-5.5,1-6.2-0.1c-0.5-0.8-0.9-1.7-0.9-2c0-0.6,8.8-4.7,13.3-6.3c2.6-0.9,1.5-3.2-1.4-2.8c-1.3,0.1-5.1,1.5-8.4,3.1l-6.1,2.8
		l-6.1-7.3C-456.2,384.4-461.4,381.1-465.8,383.2z M-459.6,388c1.7,1.1,5.8,5.2,9.2,9.2c4.7,5.5,6,7.6,5.3,8.9
		c-1.1,1.9-0.4,2.9,2.1,2.9c2.3,0,3.5,2,1.9,3c-2.2,1.3-0.4,4.1,2.3,3.5c2-0.5,3,0.7,9.4,11.7c17.3,29.5,26.5,64.9,23.6,90
		c-2.6,21.7-9.7,32.7-25.3,38.8c-7.6,3-18.1,3.8-21.4,1.6c-1.6-1-2.3-2.2-2-3.1c0.8-2,2.9-1.9,6.5,0.2c2.3,1.4,3.1,1.5,4.1,0.4
		c1.1-1,0.8-1.6-1.1-3.2c-3.1-2.6-6.8-3.4-10-2.3c-3.2,1.2-5,5.7-3.3,8.4c0.7,1.1,1.2,2.2,1.2,2.5c0,0.7-29.5,0.6-31.3-0.1
		c-1.3-0.5-1.3-0.9,0.1-3.4c1.6-2.7,1.6-3-0.4-5.7c-1.8-2.2-2.9-2.8-5.9-2.7c-4.4,0.2-9.7,4.6-7.8,6.5c0.9,0.9,2,0.6,4.7-1
		c3.9-2.4,5.6-2.1,5.6,1c0,5.8-18.1,4.9-31-1.6c-9-4.6-15.7-11.9-19.4-21.5c-2.3-5.8-3.5-22.9-2.5-34.2c1.1-11.3,2.5-16.8,11.1-43.1
		c6.6-20,7.3-21.7,9.5-21.7c3.1,0,3.2-3.7,0.1-4.3c-2.2-0.3-2.2-0.4,0.5-1.5c3-1.3,3.5-2.7,1.1-4c-1.4-0.8-1.2-2,1.1-11
		c3.1-12.3,4.3-15.2,6.5-15.2c2.3,0,16.2,10.7,17.8,13.7c1.9,3.4,5.5,2.8,6.2-1.1c0.7-3.8,2.4-4.3,3.8-1.1c0.6,1.4,1.6,2.5,2.1,2.5
		c2.4,0,4.1-1.4,4.1-3.4c0-3.6,1.2-3.9,3.5-1c2.6,3.2,5.5,2.7,5.5-0.9c0-2.6,5.3-16.1,7.1-18.4C-463.5,385.6-463.2,385.6-459.6,388z
		"/>
	<path id="hand2" class="st2" d="M-452.7,458.1c0,0-2.4-9.9,3.8-9.7c6.2,0.3,4.3,9.7,4.3,9.7"/>
	<path id="hand1" class="st2" d="M-501.1,468.8c0,0,6.9-5.7,9.3,1.5c2.4,7.2-2.9,6.2-2.9,6.2s-3.4-0.8-3.6-2.9"/>
	<path id="nose3" class="st3" d="M-484.9,428.7c0,0,0.9,4.4,4.7,4.2c3.8-0.2,3.2-5.8,3.2-5.8l-3.9-0.9L-484.9,428.7z"/>
	<path id="nose2" class="st4" d="M-482,422c0,0,0.3,4.2,4,4.8c3.6,0.6,3.8-3.8,3.8-3.8"/>
	<path id="nose1" class="st4" d="M-488.4,426.9c0,0,1.2,3.2,4.3,1.2s2-5.6,2-5.6"/>
	<circle id="eye2" class="st5" cx="-504.7" cy="428.1" r="3.6"/>
	<circle id="eye1" class="st5" cx="-458.8" cy="418.6" r="3.8"/>
</g>
</svg>
