<?xml version="1.0" encoding="utf-8"?>
<!-- Generator: Adobe Illustrator 19.1.0, SVG Export Plug-In . SVG Version: 6.00 Build 0)  -->
<svg version="1.1" id="layout3" xmlns="http://www.w3.org/2000/svg" xmlns:xlink="http://www.w3.org/1999/xlink" x="0px" y="0px"
	 viewBox="-526 403.1 206.3 154.9" style="enable-background:new -526 403.1 206.3 154.9;" xml:space="preserve">
<style type="text/css">
	.st0_{fill:#B4A79D;}
	.st1_{fill:#E191A3;}
	.st2_{fill:#47312A;}
	.st3_{fill:none;stroke:#47312A;stroke-width:2;stroke-linecap:round;stroke-miterlimit:10;}
	.st4_{fill:none;stroke:#E191A3;stroke-width:2;stroke-linecap:round;stroke-miterlimit:10;}
</style>
<g id="cat2">
	<path id="background2" class="st0_" d="M-372.8,458c-4.5-3.5-5.7-3.7-6.4-1.1c-0.8,3.1-5.2,5.4-8.7,4.6c-3.8-0.8-5.4-3.7-5.5-9.5
		c0-4.5,0-4.5-3.7-4.8c-3.7-0.3-3.8-0.3-3.8,3.2c0,4.4-2.9,7.6-6.8,7.6c-3.8,0-7.2-3.7-7.2-7.8c0-2.9-0.3-3.2-3.2-3.2
		c-1.8,0-6.2,0.7-9.8,1.4c-3.6,0.7-6.9,1.2-7.5,0.9c-0.6-0.2-1.9-1.7-2.9-3.4c-1-1.7-3.2-4.6-4.8-6.5c-1.7-1.9-3.8-3.4-4.9-3.4
		c-2,0-9.9,9.9-9.9,12.4c0,4.5-4.3,6.6-5.3,2.6c-0.7-2.5-3.7-2.6-3.7-0.1c0,1-0.6,2.1-1.4,2.4c-1.6,0.6-3.6-1.1-3.6-3
		c0-2.1-3.7-1.5-4.3,0.7c-0.8,3.1-3.5,2.4-5.1-1.3c-2.2-5.1-9-11.9-11.7-11.5c-4.7,0.7-13.4,21.9-18,43.8c-2.7,12.8-3.2,33.7-1,41.5
		c3,10.5,6.5,15.3,18.4,25.2c1.5,1.3,2.7,3,2.7,3.8c0,1.9,2.9,2,3.6,0c0.5-1.2,3-1.5,13.9-1.5c12.9,0,13.3,0.1,13.9,2.2l0.6,2.3
		l1.9-2.3c1.9-2.1,2.5-2.2,20-2.2c17.3,0,18.1,0.1,19.2,2.1l1.1,2.1l2.2-2.1c2-1.9,3.4-2.1,14.8-2.1c11,0,12.7,0.2,13.3,1.7
		c0.6,1.6,0.8,1.6,2.3-0.3c0.9-1.1,3.9-3.6,6.5-5.5c4.6-3.2,12.3-12.2,15.2-17.9c2.5-4.8,5.2-14.6,6.5-23.2
		c1.4-9.4,0.9-13.4-3.1-26.3C-361.4,472-367.8,462.1-372.8,458z M-419.6,455.9l-11.6,3.5C-431.2,459.3-427.5,456.1-419.6,455.9z
		 M-430.7,466.4c0,0,4.9-1.5,11.7-0.9L-430.7,466.4z"/>
	<g id="heart">
		<path id="backgournd_x5F_heart" class="st1_" d="M-470.3,425c3.4,0,9.4-5.9,9.4-9.2c0-2.5-2.7-5.8-4.8-5.8c-0.7,0-1.7,0.9-2.4,2
			c-0.7,1.1-1.8,2-2.5,2c-0.7,0-1.7-0.9-2.3-2c-2.3-4.3-7-1.3-7,4.3C-479.9,419.5-473.8,425-470.3,425z"/>
		<path id="border_x5F_heart" class="st2_" d="M-480.8,409.6c-5.6,7.1,0.9,18.4,10.6,18.4c9.3,0,15.9-12.5,9.8-18.5
			c-2.5-2.6-7.8-3.4-9-1.5c-0.4,0.7-1.2,0.7-2.5,0C-475.2,406.2-478.6,406.9-480.8,409.6z M-472.9,412c0.6,1.1,1.6,2,2.3,2
			c0.7,0,1.8-0.9,2.5-2c0.7-1.1,1.7-2,2.4-2c2.1,0,4.8,3.3,4.8,5.8c0,3.3-6,9.2-9.4,9.2c-3.5,0-9.6-5.5-9.6-8.7
			C-479.9,410.7-475.2,407.7-472.9,412z"/>
	</g>
	<path id="border2" class="st2_" d="M-448.9,432.8c-2.2,0.7-6.8,5.2-9.2,8.9l-2,3.3h-9.5h-9.6l-5.8-5.5c-3.2-3-6.4-5.5-7.2-5.5
		c-4,0-11.1,10.2-14.6,21.2c-0.7,2.1-1.3,3.8-1.4,3.8c-0.1,0-2.4-0.7-5.1-1.5c-6.2-1.9-8.6-1.9-8.6,0c0,0.9,0.9,1.5,2.1,1.5
		s3.9,0.5,6.1,1.2c3.1,0.9,3.8,1.6,3.6,3.2c-0.3,1.8-1,2.1-6.2,2.1c-3.8,0-6.1,0.4-6.3,1.2c-0.3,0.9,1,1.3,4.6,1.3
		c3.4,0,5.3,0.5,5.7,1.4c0.3,0.7-0.1,4.2-0.9,7.7c-4.1,18-4.7,38.4-1.3,49.4c2.4,8,7.6,15.5,14.1,20.7c3.3,2.7,6.2,5.4,6.4,6.1
		c1.4,4.5,6.2,6.1,8.3,2.7c1.2-1.8,2.4-2,11.8-2c9.3,0,10.8,0.2,12.3,2c0.9,1.1,2.6,2,3.7,2s2.5-0.9,3.2-2c1.2-1.9,2.4-2,17.3-2
		c14.8,0,16.2,0.2,17.8,2c0.9,1.1,2.5,2,3.5,2c1.1,0,2.7-0.9,3.7-2c1.6-1.8,3.1-2,12-2c7.9,0,10.5,0.3,11.5,1.5
		c2.8,3.4,5.9,1.5,19.7-12.3c7.5-7.5,12.7-17.5,15.1-29.2l1.7-8l5.5-1.6c7.2-2.1,10.3-3.8,15.1-8.1c8.9-8,9.4-17.6,1-17.6
		c-1.9,0-4.8,1.6-9.1,5.2c-5.7,4.8-9.6,7.1-12,7.1c-0.5,0-1.4-2.6-2-5.8c-1.8-8.7-7.3-19.4-13.6-26.2c-7-7.5-17.8-13.2-28.6-15
		c-7.9-1.4-22-0.9-32.2,1.2c-5.4,1-6.1,1-7-0.6c-0.6-1-2.8-4-4.8-6.6C-443.9,433.2-446.1,431.9-448.9,432.8z M-443.1,439.4
		c1.6,1.9,3.8,4.8,4.8,6.5c1,1.7,2.3,3.2,2.9,3.4c0.6,0.3,3.9-0.2,7.5-0.9c3.6-0.7,8-1.4,9.8-1.4c2.9,0,3.2,0.3,3.2,3.2
		c0,4.1,3.4,7.8,7.2,7.8c3.9,0,6.8-3.2,6.8-7.6c0-3.5,0.1-3.5,3.8-3.2c3.7,0.3,3.7,0.3,3.7,4.8c0.1,5.8,1.7,8.7,5.5,9.5
		c3.5,0.8,7.9-1.5,8.7-4.6c0.7-2.6,1.9-2.4,6.4,1.1c5,4.1,11.4,14,13.8,21.5c4,12.9,4.5,16.9,3.1,26.3c-1.3,8.6-4,18.4-6.5,23.2
		c-2.9,5.7-10.6,14.7-15.2,17.9c-2.6,1.9-5.6,4.4-6.5,5.5c-1.5,1.9-1.7,1.9-2.3,0.3c-0.6-1.5-2.3-1.7-13.3-1.7
		c-11.4,0-12.8,0.2-14.8,2.1l-2.2,2.1l-1.1-2.1c-1.1-2-1.9-2.1-19.2-2.1c-17.5,0-18.1,0.1-20,2.2l-1.9,2.3l-0.6-2.3
		c-0.6-2.1-1-2.2-13.9-2.2c-10.9,0-13.4,0.3-13.9,1.5c-0.7,2-3.6,1.9-3.6,0c0-0.8-1.2-2.5-2.7-3.8c-11.9-9.9-15.4-14.7-18.4-25.2
		c-2.2-7.8-1.7-28.7,1-41.5c4.6-21.9,13.3-43.1,18-43.8c2.7-0.4,9.5,6.4,11.7,11.5c1.6,3.7,4.3,4.4,5.1,1.3c0.6-2.2,4.3-2.8,4.3-0.7
		c0,1.9,2,3.6,3.6,3c0.8-0.3,1.4-1.4,1.4-2.4c0-2.5,3-2.4,3.7,0.1c1,4,5.3,1.9,5.3-2.6c0-2.5,7.9-12.4,9.9-12.4
		C-446.9,436-444.8,437.5-443.1,439.4z"/>
	<path id="whisk2" class="st3_" d="M-431.2,459.3c0,0,3.7-3.2,11.6-3.5"/>
	<path id="whisk1" class="st3_" d="M-430.7,466.4c0,0,4.9-1.5,11.7-0.9"/>
	<path id="eye4" class="st3_" d="M-453.2,462.9c0,0,4.3,4.8,7.2-0.8"/>
	<path id="eye3" class="st3_" d="M-494,463.5c0,0,3.7,4.8,7.5-0.6"/>
	<path id="lips2" class="st3_" d="M-472.6,466.4c-2.8-0.1-3.2-4.3-3.2-4.3s-1-3.5,3.5-4.6c4.5-1.1,4.6,4.6,4.6,4.6"/>
	<path id="lips1" class="st3_" d="M-467.7,471.2c0,0-0.7,3.9-4.1,3.9c-3.4,0-3.5-3.2-3.5-3.2s-0.8-4.8,3.3-5.5"/>
	<line id="cheek6" class="st4_" x1="-455.9" y1="469.8" x2="-453.2" y2="473.6"/>
	<line id="cheek5" class="st4_" x1="-449.6" y1="468.9" x2="-447" y2="473.6"/>
	<line id="cheek4" class="st4_" x1="-444.1" y1="468.9" x2="-441.3" y2="473"/>
	<line id="cheek3" class="st4_" x1="-497" y1="469.8" x2="-494" y2="475.1"/>
	<line id="cheek2" class="st4_" x1="-490.7" y1="469.8" x2="-488.2" y2="474.1"/>
	<line id="cheek1" class="st4_" x1="-485.1" y1="468.9" x2="-482.1" y2="473.6"/>
</g>
</svg>
