<?xml version="1.0" encoding="utf-8"?>
<!-- Generator: Adobe Illustrator 19.1.0, SVG Export Plug-In . SVG Version: 6.00 Build 0)  -->
<svg version="1.1" id="layout3" xmlns="http://www.w3.org/2000/svg" xmlns:xlink="http://www.w3.org/1999/xlink" x="0px" y="0px"
	 viewBox="-529 381.2 200.9 198.8" style="enable-background:new -529 381.2 200.9 198.8;" xml:space="preserve">
<style type="text/css">
	.st0p{fill:#B4A79D;}
	.st1p{fill:#47312A;stroke:#47312A;stroke-miterlimit:10;}
	.st2p{fill:#D86667;}
	.st3p{fill:none;stroke:#47312A;stroke-width:2;stroke-linecap:round;stroke-miterlimit:10;}
	.st4p{fill:#47312A;stroke:#47312A;stroke-width:2;stroke-linecap:round;stroke-miterlimit:10;}
	.st5p{fill:#FFFFFF;}
	.st6p{stroke:#000000;stroke-miterlimit:10;}
	.st7p{fill:#B4A79D;stroke:#47312A;stroke-width:3;stroke-linecap:round;stroke-miterlimit:10;}
</style>
<g id="cat3">
	<path id="background_3_" class="st0p" d="M-440.5,494.2c0.7,2.2,4.2,3.8,5.6,2.4"/>
	<path id="background_2_" class="st0p" d="M-393.2,484.5c1.5-5.3,0.8-50-1-60.2c-3.9-22.7-6.6-31-10-31c-0.7,0-4.1,3.1-7.7,6.8
		c-6.5,6.7-9,7.9-9,4.1c0-2.5-1.8-2.4-3.9,0.3c-2,2.4-4.1,1.7-4.1-1.3c0-2.3-4.5-2.7-5.4-0.4c-0.8,2.1-3.5,1.9-4.2-0.3
		c-0.3-0.9-1.7-4.5-3.2-8c-1.4-3.4-3.1-6.7-3.8-7.3c-0.9-0.7-3.5,1.1-10.3,7.2l-9.1,8.3l3.5,2c3.7,2.1,4.7,4.6,1.9,4.6
		c-0.9,0-3.1-0.9-4.9-2c-3.2-2-3.3-2-5.6,0c-1.8,1.4-2,1.9-0.8,2c4,0.1,11.9,3.2,11.9,4.7c0,1.7-0.5,1.6-11.3-0.7
		c-5.7-1.3-5.8-1.3-10,1.7c-2.3,1.7-4.3,3.9-4.5,4.9c-1.3,8.2-3.4,10.4-10,10.4c-6.4,0-9.4,2.9-8.6,8.1c0.8,4.8-1.8,7.9-7.4,8.6
		c-4,0.5-4.4,0.8-7.2,6.8c-4.1,8.6-6.2,18.4-6.1,28.8c0,14.8,3.5,23,13.6,32c7,6.2,10.4,7.7,17.5,7.7h6V515c0-3.9,0.4-7.7,0.8-8.3
		c0.4-0.5,7.9-2.5,16.7-4.3c8.8-1.8,18.2-3.7,20.8-4.3"/>
	<path id="background_1_" class="st0p" d="M-419.2,492.1c10.8-2.1,11.2-2.3,10.7-4.5c-0.8-3.2,1.9-3,4,0.2c0.9,1.4,2.5,2.5,3.6,2.5
		c2.3,0,2.5-0.9,0.8-4.5"/>
	<path id="border" class="st1p" d="M-455.7,389.5c-13.4,12.6-12.4,11.9-16,10.6c-2.4-0.9-3.4-1-4.3-0.1c-1,1-0.6,1.5,1.4,2.2
		c1.5,0.6,2.7,1.3,2.7,1.7c0,1.3-4.6,4.3-6.7,4.4c-1.3,0-2.3,0.6-2.3,1.5c0,0.8-3.7,4.2-8.2,7.7c-14,10.5-25.8,23.1-30.5,32.3
		c-6.1,11.8-7.7,18.8-7.7,33c0,14.7,2,20.7,9.5,28.9l5,5.4l-2.6,3.8c-2.5,3.7-3,6.2-2.6,11.9c0.8,8.9,11.1,16.9,23.4,18.2
		c4.3,0.4,5.7,0.1,8-1.7c5-4,3.1-9-4.2-11.5c-6.1-2-10.1-5-10.1-7.5c0-3.8,6.4-6.1,12.7-4.4c1.9,0.5,2.2,1.4,2.5,6.2
		c0.3,5.2,0.5,5.7,3.1,6.6c4,1.5,6.1-1,6.1-7.4c0-2.9,0.4-5,1-5c1.8,0.1,28.5,8.6,29.3,9.3c0.4,0.4,0.9,3.9,1.2,7.9
		c0.7,8.1,2.1,9.9,6.8,8.2c2.7-0.9,2.8-1.2,3.1-8.7c0.2-4.2,0.4-7.7,0.6-7.7s20.9-4.7,46-10.5c25.2-5.8,46.3-10.5,47-10.5
		c0.9,0,1.5,2.1,2,6.2c0.6,6.6,2.4,9.2,5.4,8.1c4.1-1.5,4.2-2,4.2-20.8c0-20.8,0-20.9-7.3-19.9c-3,0.4-9.8-0.3-20.3-2.1
		c-14.5-2.5-16.3-2.7-22.8-1.5c-3.9,0.7-7.5,1.4-8.1,1.6c-0.7,0.3-0.9-7.6-0.7-22.9c0.2-12.9-0.1-26.4-0.6-30.1l-0.9-6.8l3.9,0.6
		c5.3,0.9,5.3-1.9-0.1-3.4c-3.3-0.9-5.1-2.5-5.1-4.7c0-0.2,2.4-0.3,5.3-0.2c4,0.2,5.2,0,5.2-1.1s-1.6-1.6-5.5-2l-5.5-0.5l-2.3-10
		c-3.6-15.8-7.6-18.1-17.1-9.8l-5.3,4.6l-10-1.4l-10-1.4l-2-5C-443.3,381.1-446.4,380.7-455.7,389.5z M-419.2,492.1
		c-6.8,1.3-11.3,1.8-11.5,1.2 M-400.9,490.3 M-430.2,493.5c-2.6,0.6-30.3,7.1-39.1,8.9c-8.8,1.8-16.3,3.8-16.7,4.3
		c-0.4,0.6-0.8,4.4-0.8,8.3v7.3h-6c-7.1,0-10.5-1.5-17.5-7.7c-10.1-9-13.6-17.2-13.6-32c-0.1-10.4,2-20.2,6.1-28.8
		c2.8-6,3.2-6.3,7.2-6.8c5.6-0.7,8.2-3.8,7.4-8.6c-0.8-5.2,2.2-8.1,8.6-8.1c6.6,0,8.7-2.2,10-10.4c0.2-1,2.2-3.2,4.5-4.9
		c4.2-3,4.3-3,10-1.7c10.8,2.3,11.3,2.4,11.3,0.7c0-1.5-7.9-4.6-11.9-4.7c-1.2-0.1-1-0.6,0.8-2c2.3-2,2.4-2,5.6,0c1.8,1.1,4,2,4.9,2
		c2.8,0,1.8-2.5-1.9-4.6l-3.5-2l9.1-8.3c6.8-6.1,9.4-7.9,10.3-7.2c0.7,0.6,2.4,3.9,3.8,7.3c1.5,3.5,2.9,7.1,3.2,8
		c0.7,2.2,3.4,2.4,4.2,0.3c0.9-2.3,5.4-1.9,5.4,0.4c0,3,2.1,3.7,4.1,1.3c2.1-2.7,3.9-2.8,3.9-0.3c0,3.8,2.5,2.6,9-4.1
		c3.6-3.7,7-6.8,7.7-6.8c3.4,0,6.1,8.3,10,31c1.8,10.2,2.5,54.9,1,60.2"/>
	<path id="tie1" class="st2p" d="M-443.1,428.8c-2.3,2.4-3.4,6.8-2.9,11.9c0.4,4.8,4.4,6.7,9,4.3c4.1-2.2,9.3-1.9,11.9,0.7
		c2.4,2.4,6.2,3.3,8.7,2c2.7-1.4,4.7-9.7,3.3-13.4s-3.6-4.3-7.9-2.1c-5,2.5-8.9,1.9-13.4-2.2C-438.8,426-440.4,425.8-443.1,428.8z"
		/>
	<g id="nose1">
		<path class="st3p" d="M-432,421.5c0,0,3.9,4.2,5.7-4"/>
		<path class="st3p" d="M-422.5,423.1c0,0-4.5,2.6-3.8-7.6"/>
	</g>
	<circle id="eye2" class="st4p" cx="-409.2" cy="421.1" r="3.6"/>
	<circle id="eye1" class="st4p" cx="-445.9" cy="415.1" r="3.6"/>
	<g id="keys">
		<polygon class="st5p" points="-393.4,489.8 -385.6,488.1 -375.5,492.3 -375.5,493.6 -371.7,495.8 -374.2,497.1 -384.7,492.6 
			-387.8,493.3 		"/>
		<polygon class="st5p" points="-378.3,486.7 -371.7,486.1 -352.2,490.3 -356.9,492.6 -369.6,489.3 -372.6,490.1 		"/>
		<polygon class="st5p" points="-473.9,506.9 -463.6,504 -452.6,507.6 -452.6,509.9 -444.6,512.6 -446.2,516.4 		"/>
		<polygon class="st5p" points="-456.2,503.6 -448.9,501.4 -438.4,504.6 -437.6,506.6 -433.7,507.9 -435.9,510.2 -447.2,505.8 
			-448.9,506.7 		"/>
		<path class="st5p" d="M-430.9,498c0.2,0.3,8.1,3.4,8.1,3.4v1.9l4.8,2l-1.4,1.4l-11.5-4.3l-3.3,1.7l-6.7-2.7L-430.9,498z"/>
		<path class="st5p" d="M-424.8,496.6c-0.1,0.3,7.8-1.9,7.8-1.9l17.2,6.6l-4.8,1.6l-10.5-4.1l-3.6,0.8L-424.8,496.6z"/>
		<polygon class="st5p" points="-409.9,493.7 -404.6,492.3 -399.8,494.7 -396.2,492.3 -391.6,494.7 -391.6,496.2 -387.8,498.9 
			-392.4,500.8 		"/>
	</g>
	<g id="MUSIC">
		
			<ellipse transform="matrix(-0.9888 -0.1494 0.1494 -0.9888 -792.8859 859.904)" class="st6p" cx="-364.1" cy="459.7" rx="5.5" ry="3.7"/>
		
			<ellipse transform="matrix(-0.9888 -0.1494 0.1494 -0.9888 -778.0887 878.4137)" class="st6p" cx="-356.1" cy="468.4" rx="5.5" ry="3.7"/>
		<path class="st6p" d="M-359.3,459l2.3-15.5c0,0,3.4,5.8,9.3,5.4c0.3,0-3,20.4-3,20.4l-0.7-0.1l2.5-16.8c0,0-6.6-1.9-7.9-3.9
			c-0.2-0.3-2.1,11.8-2.1,11.8L-359.3,459z"/>
	</g>
</g>
<path id="left_x5F_lapka" class="st7p" d="M-443.7,491.6c0,0,4.2,7.2,8.6,5.5c2.4-0.9-1.1-8-1.1-8"/>
<path id="right_x5F_lapka" class="st7p" d="M-414.6,484.7c0,0,4.2,7.2,8.6,5.5c2.4-0.9-1.1-8-1.1-8"/>
</svg>
