<?xml version="1.0" encoding="utf-8"?>
<!-- Generator: Adobe Illustrator 19.1.0, SVG Export Plug-In . SVG Version: 6.00 Build 0)  -->
<svg version="1.1" id="layout" xmlns="http://www.w3.org/2000/svg" xmlns:xlink="http://www.w3.org/1999/xlink" x="0px" y="0px"
	 viewBox="-524 380.4 209.9 201.6" style="enable-background:new -524 380.4 209.9 201.6;" xml:space="preserve">
<style type="text/css">
	.st0q{fill:#A0D3E6;}
	.st1q{fill:#B4A79D;}
	.st2q{fill:#A4D5EB;}
	.st3q{fill:#E59FBA;}
	.st4q{fill:#47312A;}
	.st5q{fill:#B4A79D;stroke:#47312A;stroke-width:2;stroke-linecap:round;stroke-miterlimit:10;}
	.st6q{fill:#E191A3;stroke:#47312A;stroke-width:2;stroke-linecap:round;stroke-miterlimit:10;}
	.st7q{fill:none;stroke:#47312A;stroke-width:2;stroke-linecap:round;stroke-miterlimit:10;}
	.st8q{fill:#F1C27E;stroke:#47312A;stroke-width:2;stroke-linecap:round;stroke-linejoin:round;stroke-miterlimit:10;}
	.st9q{fill:#F8E3A1;stroke:#47312A;stroke-width:2;stroke-linecap:round;stroke-linejoin:round;stroke-miterlimit:10;}
</style>
<g id="cat4">
	<path class="st0q" d="M-462.5,502.7l-31.2,2.5l-14.7,11.8l1.2,14.4l4.5-6.6l2.3-0.1c0,0,2.9,4.1,3.2,4.1s2.6,0.2,2.6,0.2l5-2.2
		l4,3.2l2.8,1.5l2.5-0.8l3.8-2.5c0,0,4.7,1.8,4.9,1.9c0.2,0.1,4.9,0,5-0.1s3.4-0.2,3.4-0.2l4,2.3c0,0,2.5,0.8,2.8,0.8
		s1.7-0.8,1.9-0.9c0.2-0.1,2.8-1.9,2.8-1.9l6.8,0.6c0,0,2.3,0.7,2.6,0.8s4-0.8,4-0.8l5-1.4l4.2,2.2l1.7,0.7l2.4-1.6l4.9-4.3
		c0,0,4.7,2.2,5,2.2s3.7,0.5,3.7,0.5l2.4-1.9l2.8-1.9l4.1-0.1l0.6-2.5l-2.1-11l-12.9-7.4l-33-2.5l0.5,4l-1.4,5.4l0.1,1.3l-2.5,1.4
		l-4.9,0.2l-4.2-2L-462.5,502.7z"/>
	<path class="st1q" d="M-368.4,425.6c-2.9-4.4-5.7-8-6.3-8.2c-1.9-0.5-4.5,1.8-7.1,6.2c-1.4,2.5-2.9,4.5-3.3,4.5
		c-0.3,0-1.1,1-1.6,2.2c-1.2,2.8-5.1,3.2-4.9,0.5c0.2-2.4-3.2-2.2-3.9,0.3c-0.3,1.1-1.3,2-2.2,2s-1.9-0.9-2.2-2
		c-0.7-2.6-2-2.5-4.2,0.2c-2,2.4-4.1,1.7-4.1-1.3c0-2-5.1-10.2-7-11.4c-3.8-2.4-8,3.7-17.3,25.5c-8.9,20.7-14.8,38.9-15.4,47.2
		l-0.6,6.8l2.9,0.2c5.9,0.3,11,0.7,15.4,1.3c2.5,0.3,6.5,0.7,9,0.9c14.8,1.3,19.7,5.8,21.4,19.8c0.3,2.6,0.1,5-0.4,5.3
		c-1.3,0.8-1.3,19.2,0,20c0.6,0.3,1,1.7,1,3s-0.4,2.7-1,3c-1.9,1.2-1,3.5,1.6,4.6c2.1,0.8,3.1,0.6,4.6-0.8c1.7-1.5,3.9-1.8,14.2-1.8
		c11.1,0,12.6-0.2,18-2.8c7.1-3.3,7.2-3.3,7.9-0.5c0.4,1.3,1.2,3.2,2,4.2c1.3,1.8,1.5,1.8,4.6-0.5c12-8.9,16.8-29.2,12.1-51.8
		c-1.6-8.2-2.3-9.7-5.1-12c-3.3-2.8-3.9-5.6-2.4-11.3c0.6-2.3,0.3-2.9-2.4-4.2c-3.4-1.8-4.6-5-3.7-9.9c0.5-2.7-0.3-5.2-3.9-12.5
		l-4.5-9.3l-3.6,0.3c-4.4,0.4-5.8-1.8-1.9-2.8c3.1-0.8,2.8-3-0.3-2.6c-2.3,0.3-3-1.6-1.2-3.4C-363.5,433.8-364.9,430.9-368.4,425.6z
		"/>
	<polygon class="st2q" points="-407,426.3 -385.7,425.7 -396.8,403.9 	"/>
	<polygon class="st3q" points="-507.2,555.4 -502.8,564.5 -482.5,570.8 -445.8,570.8 -411.6,567.4 -403.5,563.1 -402.2,555.4 
		-404.2,552.1 -410.8,552.1 -414.8,553.9 -421.2,555.1 -428,555.3 -431.8,557.1 -439.5,557.2 -443.8,556.3 -457.5,556.7 
		-473.5,556.7 -488.6,554.9 -501.3,552.1 -506.2,552.6 	"/>
	<circle class="st4q" cx="-380.8" cy="443.6" r="2.9"/>
	<circle class="st4q" cx="-417.9" cy="443.6" r="2.9"/>
	<path id="hand2" class="st5q" d="M-417.9,476.3c0,0-2-5.3-7.8-2.5s-0.8,7.3-0.8,7.3s2.6,1.9,4.5-1.3"/>
	<path id="hand1" class="st5q" d="M-381.7,477.8c0,0-2.5-6.3-7.5-3s-0.6,7.2-0.6,7.2s1.8,1.7,4.3-1.4"/>
	<path class="st6q" d="M-399.1,445.4c-0.3-0.3-0.8-0.3-1.1,0c-0.5,0.4-1.2,0.9-1.8,1c-1.2,0.3-0.2,4.6,2.5,4.3s4-4.1,3.4-4.3
		C-396.4,446.3-398.3,446-399.1,445.4z"/>
	<path class="st7q" d="M-404.9,443.6c0,0,0.6,2.8,3,2s2.7-2.8,2.7-2.8"/>
	<path class="st7q" d="M-399.2,441.1c0,0-0.2,3.7,2.7,4.4c2.9,0.6,3-1.9,3-1.9"/>
	<path id="border" class="st4q" d="M-402.7,411.6l-4.8,11.5l-3.4-4c-6.4-7.4-10.9-5-18.2,9.8c-3,6.1-3.9,7.2-5.6,6.7
		c-1.1-0.3-4.9-0.8-8.4-1.2c-5.2-0.5-6.3-0.4-5.9,0.8c0.3,0.9,2.7,1.7,6.8,2.1c3.5,0.4,6.7,1.1,7.3,1.7c1.8,1.8-0.5,3.1-5.6,3.1
		c-2.9,0-6.2,0.3-7.4,0.6c-4.5,1.2-2.2,2.4,4.6,2.4h6.9l-4,9.7c-2.1,5.4-5.3,14.3-7,19.8c-3.7,12.1-3.3,11.4-5.8,10.8
		c-1.3-0.4-2-1.4-2-3c0-1.5-0.5-2.3-1.2-2.1c-0.7,0.3-1.3,1.5-1.3,2.9c0,1.6-0.7,2.5-2,2.7c-2.8,0.6-3.5,2-3.5,7.5
		c0,4-0.3,4.9-2.3,5.6c-1.3,0.5-3.5,0.7-5,0.4c-1.5-0.3-3.5-0.2-4.4,0.2c-1.9,0.8-7.1,1.3-14,1.4c-2.3,0-4.4,0.5-4.8,1.1
		c-0.3,0.5-2.1,1-3.9,1c-2.6,0-3.9,0.8-6.5,4.1c-1.8,2.2-3.4,4.6-3.5,5.2c-0.1,0.7-0.7,2.1-1.3,3.2c-0.6,1.1-0.9,4.5-0.7,7.5
		c1.5,18.9,1.5,20.4,0.3,22.7c-1,1.9-1,2.8-0.1,4.3c1.6,2.7,1.5,6-0.2,6c-0.8,0-2.8,1.2-4.5,2.6c-4.2,3.5-4.3,8.2-0.1,11.7
		c14.9,12.6,78.3,15.7,108.8,5.3c8-2.8,12.8-5.7,13.7-8.4c0.5-1.7,1.2-1.7,7.6-0.9c18.4,2.3,37-4.9,45.9-17.8
		c6.1-8.9,7.5-14.4,7.4-30c0-12.6-0.3-15.1-3.2-25.7c-3.7-13.4-10.3-31.1-15.6-41.6c-2-3.9-3.6-7.5-3.6-8c0-0.4,1.9-0.6,4.1-0.4
		c3.2,0.3,4,0.1,3.7-0.9c-0.3-0.9-2.3-1.5-5-1.7c-4.7-0.3-7.9-2.5-6.2-4.2c0.5-0.5,2.9-1,5.3-1.2c2.7-0.2,4.6-0.9,4.9-1.7
		c0.4-1.2-0.8-1.3-6.5-0.8l-7,0.6l-5.7-8.9c-3.1-4.9-6.6-9.2-7.7-9.5c-3.1-1-7.1,1.2-9.8,5.2l-2.4,3.7l-1.4-2.9
		c-0.7-1.7-3.1-6.9-5.3-11.8c-2.1-4.8-4.3-8.7-4.8-8.7S-400.1,405.3-402.7,411.6z M-388.6,424.8c-0.2,0.2-4,0.3-8.4,0.1l-8.1-0.3
		l4.1-9.3l4.2-9.4l4.3,9.3C-390.1,420.3-388.4,424.6-388.6,424.8z M-368.4,425.6c3.5,5.3,4.9,8.2,4.2,8.9c-1.8,1.8-1.1,3.7,1.2,3.4
		c3.1-0.4,3.4,1.8,0.3,2.6c-3.9,1-2.5,3.2,1.9,2.8l3.6-0.3l4.5,9.3c3.6,7.3,4.4,9.8,3.9,12.5c-0.9,4.9,0.3,8.1,3.7,9.9
		c2.7,1.3,3,1.9,2.4,4.2c-1.5,5.7-0.9,8.5,2.4,11.3c2.8,2.3,3.5,3.8,5.1,12c4.7,22.6-0.1,42.9-12.1,51.8c-3.1,2.3-3.3,2.3-4.6,0.5
		c-0.8-1-1.6-2.9-2-4.2c-0.7-2.8-0.8-2.8-7.9,0.5c-5.4,2.6-6.9,2.8-18,2.8c-10.3,0-12.5,0.3-14.2,1.8c-1.5,1.4-2.5,1.6-4.6,0.8
		c-2.6-1.1-3.5-3.4-1.6-4.6c0.6-0.3,1-1.7,1-3s-0.4-2.7-1-3c-1.3-0.8-1.3-19.2,0-20c0.5-0.3,0.7-2.7,0.4-5.3
		c-1.7-14-6.6-18.5-21.4-19.8c-2.5-0.2-6.5-0.6-9-0.9c-4.4-0.6-9.5-1-15.4-1.3l-2.9-0.2l0.6-6.8c0.6-8.3,6.5-26.5,15.4-47.2
		c9.3-21.8,13.5-27.9,17.3-25.5c1.9,1.2,7,9.4,7,11.4c0,3,2.1,3.7,4.1,1.3c2.2-2.7,3.5-2.8,4.2-0.2c0.3,1.1,1.3,2,2.2,2
		s1.9-0.9,2.2-2c0.7-2.5,4.1-2.7,3.9-0.3c-0.2,2.7,3.7,2.3,4.9-0.5c0.5-1.2,1.3-2.2,1.6-2.2c0.4,0,1.9-2,3.3-4.5
		c2.6-4.4,5.2-6.7,7.1-6.2C-374.1,417.6-371.3,421.2-368.4,425.6z M-451.2,500.1v12h-4.5h-4.5v-12v-12h4.5h4.5V500.1z M-463.2,509.6
		c0,4.1,2.7,5.8,8.3,5.2c5.1-0.4,6.7-1.7,6.7-5.5c0-2.2,0-2.2,12.2-1.7c6.7,0.4,13,1.1,14,1.6c1,0.6,2.6,0.9,3.6,0.7
		c2.2-0.3,4.2,0.9,4.2,2.8c0,0.9-1,1.4-2.9,1.4c-1.7,0-3.3,0.5-3.6,1c-0.4,0.6-2.3,0.7-4.4,0.4c-2.4-0.4-4.1-0.2-4.5,0.5
		c-0.5,0.8-1.3,0.8-2.7,0c-1.1-0.5-3-0.7-4.2-0.3c-1.7,0.6-16.3,1.3-26.2,1.3c-7,0.1-18.4-0.7-19.3-1.3c-0.6-0.4-2.1-0.2-3.3,0.4
		c-1.6,0.9-2.4,0.8-3.8-0.4c-1-0.9-2.7-1.6-3.9-1.6c-2.6,0-3.6-1.4-1.9-2.8c1.4-1.2,7.7-2.2,12.9-2.2c2,0.1,3.9-0.3,4.1-0.7
		c0.3-0.4,3.7-0.9,7.6-0.9C-463.5,507.3-463.2,507.4-463.2,509.6z M-501.5,520.6c1.5,0.4,3.7,1,4.8,1.5c1.6,0.7,13.6,2.1,25.5,3
		c5.2,0.4,23.8,0.2,32-0.4c4.7-0.3,10.2-0.5,12.2-0.5s3.9-0.5,4.2-1s2.3-0.7,4.4-0.4c2.6,0.4,4.2,0.1,5-1c0.7-0.8,2.1-1.3,3.2-1
		c1.2,0.3,2.8-0.5,4.4-2.1c1.4-1.4,2.6-2.2,2.7-1.8c0,0.4,0.2,2.2,0.4,4c0.3,3.1,0.1,3.3-2.5,2.7c-2.2-0.5-3.1-0.1-4.8,2.2
		c-2,2.8-2.1,2.8-5,1c-4.2-2.4-6-2.2-9.3,1.4c-2.7,2.9-3.1,3-4.7,1.7c-2.8-2.5-4.7-2.7-8.1-1c-2.8,1.3-4,1.4-8.1,0.3
		c-4.8-1.2-9-0.8-9,0.9c0,1.8-3,1.8-5.5-0.1c-2-1.7-3.3-1.9-6.5-1.4c-2.3,0.4-5.5,0.2-7.5-0.5c-3.1-1-3.9-0.9-5.4,0.4
		c-2.4,2.2-3.8,2-7.3-0.9c-2.9-2.5-3-2.5-6-0.8c-2.9,1.8-3,1.8-5.2-1c-2.7-3.4-5.4-3.5-6.6-0.2c-1.6,4.2-3,2.8-3-2.8
		c0-5.8,1-8,2.2-4.8C-504.6,519.1-503,520.3-501.5,520.6z M-499.3,528c1.4,2.5,4.5,3.2,7.1,1.4c1.9-1.3,2.3-1.2,5.1,1.1
		c3.5,3,5.6,3.2,8.7,1c1.4-1,3-1.3,4.5-0.8c1.2,0.4,4.5,0.6,7.3,0.5c3.5-0.1,5.5,0.3,6.4,1.4c1.6,1.9,5.4,1.9,7,0
		c1.5-1.8,4-1.9,9-0.4c3.1,0.9,4.3,0.8,7.3-0.6c3.3-1.5,3.8-1.6,5.9-0.1c3.4,2.4,6.6,2,8-1c1-2.1,1.7-2.5,4-2
		c9.2,1.9,9,1.9,10.8-0.4c2.9-3.9,4-1.6,4,8.5c0,9.2-1.6,14.1-2.2,6.9c-0.2-2.7-1.1-4.3-3-5.7l-2.8-2.1l-2.7,2.1
		c-2.4,1.7-2.8,2.8-2.7,6.7c0,2.5-0.3,4.6-0.7,4.6s-1.4,0.3-2.3,0.6c-1.3,0.5-1.6-0.1-1.6-3.2c0-4.6-2.3-7.4-6.2-7.4
		c-3,0-6.8,3-6.8,5.4c0,0.8,0.4,2.6,0.9,3.9c1.1,2.7,0,3.7-4.1,3.7c-1.7,0-1.9-0.4-1.4-2.7c1-3.6-1.1-8.2-4-8.9
		c-6.1-1.5-10.2,2.6-8.8,8.9c0.5,2.6,0.4,2.8-1.8,2.5c-2-0.3-2.3-0.8-2-4c0.3-2.9-0.2-4.3-2.2-6.3c-3.2-3.2-6-3.2-9.2,0.1
		c-2,2-2.5,3.3-2.2,6c0.4,3.1,0.2,3.4-2.3,3.4s-2.6-0.2-2.2-4.4c0.4-3.5,0.1-4.8-1.6-6.5c-4.4-4.4-11.2-1.3-11.4,5.2
		c-0.1,2.9-0.5,3.7-1.9,3.7c-1.6,0-1.7-0.6-1.2-4c0.9-5.5-1.4-9-6.1-9c-4.3,0-6.5,2.2-6.5,6.6c0,1.9-0.4,3.4-1,3.4
		c-1.8,0-1.2-13.5,0.8-16.9C-501.4,525.6-500.6,525.4-499.3,528z M-493.6,540.2c1.8,2,1.8,2.2,0.1,5.1c-2.3,4-2.2,4.4,1.2,5.8
		c4.7,1.9,7.1,0.6,7.1-3.9c0-4.3,1.4-6.1,4.7-6.1c3.5,0,4.9,3.9,2.9,7.9c-1.7,3.1-1.6,3.1,1.1,4.2c2.5,0.9,8.9,0.7,10-0.4
		c0.2-0.2-0.1-1.7-0.7-3.2c-1.4-3.6,1-7.5,4.5-7.5c2.9,0,4,2.7,3.1,7.6c-0.6,2.9-0.4,3.4,1.7,3.9c1.4,0.4,3.8,0.5,5.3,0.3
		c2.8-0.3,2.9-0.5,2.9-5.2c0-3.5,0.5-5.2,1.8-6c3.7-2.4,7.6,4.4,4.6,8c-1.7,2.1,0.3,3.4,5.1,3.4c6.1,0,8.3-1,7.5-3.4
		c-2.3-6.9,0.4-11.8,4.5-8.1c1.7,1.6,2,2.6,1.5,5.7l-0.7,3.8h3.9c2.1,0,4.9-0.7,6.1-1.6c2-1.4,2.1-1.7,0.8-4.2
		c-1.7-3.4-0.5-7.2,2.3-7.2c2.7,0,4.2,3.1,3.4,7c-0.6,3.2-0.6,3.3,3,2.8c2.1-0.2,3.7,0,3.7,0.4c0,1.1-4.7,2.1-7,1.5
		c-1.1-0.3-3.7,0.4-5.7,1.5c-2.8,1.4-5,1.8-8.4,1.4c-3.2-0.3-5.3,0-6.8,1.1c-1.8,1.2-3.7,1.4-8.4,0.9c-3.4-0.4-7.2-0.6-8.4-0.6
		c-4.4,0.2-12.8,0.2-15.8,0.1c-1.6-0.1-4.9,0.1-7.2,0.5c-2.6,0.4-5.6,0.1-8-0.7c-2.1-0.8-6.6-1.4-9.9-1.4c-4.5,0-6.7-0.5-8.2-1.8
		c-1.3-1.2-2.8-1.6-4.5-1.2c-2.6,0.7-6.7-0.9-6.7-2.6c0-0.6,0.8-0.6,2.1,0.1c3.1,1.7,5.2,0.5,4.5-2.4c-0.8-3.4,0.9-7.6,3.2-7.6
		C-496.4,538.1-494.7,539-493.6,540.2z M-496,554.7c3.2,1.6,9.6,2.4,25.3,2.8c5,0.1,11,0.6,13.5,1c2.7,0.5,5.6,0.3,7.4-0.3
		c2.1-0.8,4.4-0.8,8.6,0.1c4.9,1,6.5,0.9,10.1-0.4c2.4-0.9,6.7-1.6,9.5-1.6s6.2-0.6,7.5-1.3c1.3-0.8,4.1-1.4,6.1-1.4
		c3.6,0,3.8,0.2,3.8,3.1c0,3.6-2,5.7-4.4,4.8c-0.9-0.3-2.7,0.1-4.1,1c-1.3,0.9-3.3,1.6-4.3,1.6s-2.3,0.5-3,1.2
		c-1.3,1.3-7.4,1.6-38.5,2c-11.5,0.2-21.1-0.1-21.4-0.6c-0.3-0.4-2.2-0.6-4.2-0.3c-2.3,0.4-4.3,0.1-5.4-0.8
		c-1.1-0.7-2.5-1.1-3.1-0.9c-0.7,0.3-1.9-0.2-2.6-1.1c-0.7-0.8-2.2-1.5-3.4-1.5c-3.1-0.1-6.6-3.4-6.6-6.4c0-2.2,0.4-2.6,3-2.6
		C-500.5,553.1-497.7,553.8-496,554.7z M-509.8,560.6c-2.1,3.3-1,6.4,2.6,7.2c1.6,0.3,3.1,1.1,3.4,1.9s1.7,1.4,3.1,1.4
		s3.7,0.7,5,1.6c1.6,1,3.6,1.4,5.4,1.1c1.5-0.3,3.2-0.2,3.8,0.4c0.5,0.5,6.5,1.2,13.3,1.4c6.7,0.2,13.1,0.7,14.1,1
		c1,0.4,2.4,0.3,3-0.1c0.7-0.4,6.4-0.8,12.8-1c11.4-0.3,18.1-1,21.1-2.1c0.8-0.3,3.1-0.5,5.1-0.4c2.1,0.1,4-0.2,4.4-0.8
		c0.3-0.6,1.9-1.1,3.5-1.1s3.1-0.4,3.5-0.9c0.3-0.5,1.9-1.2,3.5-1.6c4.5-1,5.7-4,3-7.7l-2.2-3l2.3,0.7c2.5,0.7,5.8,4.2,5.9,6.1
		c0,3.2-8.8,7.9-20,10.7c-23.2,5.7-65.4,5.2-86.2-0.9c-11.9-3.6-16.7-7.1-15.3-11.4c0.5-1.6,4.5-4.7,6.3-5
		C-508.3,558.1-508.9,559.2-509.8,560.6z"/>
	<path id="CANDLE" class="st8q" d="M-456.3,468.4c0,0-1.9,4.6-3.4,5.4s-2.1,3.3-1.8,4.3c0.3,1.2,0.9,3.7,5.3,4.3
		c4.4,0.6,4.7-5.2,4.7-5.2S-452.9,471-456.3,468.4z"/>
	<polygon id="STAR" class="st9q" points="-397,389.9 -394,396 -387.2,397 -392.1,401.7 -391,408.4 -397,405.3 -403,408.4 
		-401.8,401.7 -406.7,397 -400,396 	"/>
</g>
</svg>
