<?xml version="1.0" encoding="utf-8"?>
<!-- Generator: Adobe Illustrator 19.1.0, SVG Export Plug-In . SVG Version: 6.00 Build 0)  -->
<svg version="1.1" id="Слой_1" xmlns="http://www.w3.org/2000/svg" xmlns:xlink="http://www.w3.org/1999/xlink" x="0px" y="0px"
	 viewBox="-541 377.9 176.1 206.1" style="enable-background:new -541 377.9 176.1 206.1;" xml:space="preserve">
<style type="text/css">
	.st0{fill:#F4D5BE;}
	.st1{fill:#BE875F;}
	.st2{fill:#4F342B;}
	.st3{fill:none;stroke:#4F342B;stroke-width:2;stroke-miterlimit:10;}
	.st4{fill:#4F342B;stroke:#4F342B;stroke-miterlimit:10;}
	.st5{fill:#BE865E;stroke:#4F342B;stroke-width:2;stroke-miterlimit:10;}
	.st6{fill:none;stroke:#4F342B;stroke-width:2;stroke-linecap:round;stroke-miterlimit:10;}
	.st7{fill:#76423B;stroke:#4F342B;stroke-width:2;stroke-miterlimit:10;}
	.st8{fill:#E295A1;stroke:#D55755;stroke-miterlimit:10;}
	.st9{fill:none;stroke:#D55755;stroke-miterlimit:10;}
	.st10{fill:#C46867;}
	.st11{opacity:0.66;fill:#4BB4D1;enable-background:new    ;}
</style>
<path class="st0" d="M-386.7,466.9h3.2l-0.6-9.8c-0.8-11.8-2.5-18.4-7.3-28.2c-5-10.1-13.4-18.4-23.7-23.5c-7.1-3.5-9.5-4-15.2-3.3
	c-1.5,0.2-2.3-0.3-2.3-0.9c-5-1.1-24.4-2.5-31.8-3c-0.8,0.5-2,0.9-3.7,1.2c-12.7,1.9-25.8,8.1-34.7,16.4c-4.7,4.3-5.3,5.3-4.7,7.8
	c1.9,9,2.6,18.7,1.6,24.5c-1.4,8.7-4.9,18.2-8.1,22.1c-2.5,2.9-2.9,3.1-4.9,1.9c-1.2-0.7-2.4-1.1-2.6-0.9
	c-0.8,0.8,3.4,10.8,6.2,14.9c3,4.2,9.6,10.1,15.8,13.8c3.2,1.9,4.1,2.1,4.4,1c1-2.8,6.1-7,8.5-7c2.2,0,2.6-0.6,3.2-4.8
	c1.6-10.6,8.6-20.1,16.6-22.2c7.3-2,12.2,0.7,16.5,9c3.9,7.6,1.4,25.5-4.5,32.2c-1.6,1.8-3.6,6-4.6,9.3c-3.2,11.2-9,15.9-16.7,13.6
	c-4.5-1.4-9.8-6-9.8-8.5c0-2.3,0.9-2,3.2,0.9c2.5,3.2,6.9,5.5,10.6,5.5c3.6,0,7.6-4.1,9.7-9.9c2.1-6,1.9-6.6-1.7-6.6
	c-4.9,0-4.9-1.9-0.1-2.6c5.1-0.6,8-3,10.5-8.6c4.3-9.7,3.3-23.5-2.2-29.3c-6.6-7-19.2-0.7-23.4,11.6c-0.8,2.4-2,8.6-2.7,13.9
	c-1.4,10.5-2.9,12.6-2.9,4c0-3-0.2-5.5-0.5-5.5c-0.2,0-1.5,0.5-2.9,1.1c-3,1.4-4.2,4.4-5.1,12.3c-0.5,4.6-2.2,8.8-7.3,18.5
	c-7.3,14.1-8.5,18.4-7,25.6c0.8,3.9,2,5.9,5.3,9c3.3,3.2,4.1,4.4,3.4,6c-1.1,2.9-1.3,4.7,0.5,5.9c2.6-4.8,10.1-8.4,19.5-9.5
	c1.9-1,4.4-1.9,6.1-1.9c2.2,0,4.5-4.2,6-10.9c2.5-12-5-20.3-14.1-15.6c-3.6,1.9-5,0.2-1.6-2c3.2-2.1,9.7-2.2,12.9-0.1
	c5,3.3,7.1,12.2,4.8,20.4c-0.9,3-0.8,3.4,1.7,4.3c1.5,0.6,6.8,0.9,11.7,0.7c10.1-0.5,15.8-2.5,21.7-7.7c2.2-1.9,3.9-2.8,4.3-2.1
	c0.9,1.4-4.6,6.4-10,9c-4.4,2.1-4.5,2.3-4.5,7.1c0,3.6,0.4,5.1,1.8,5.7c0.9,0.5,4.2,1,8.4,1.4c1-3.1,4-5.8,8.1-7.6
	c0.7-0.6,2-1.3,3.8-2.2c3-1.3,5.9-2.5,6.6-2.5c2,0,7.3-8.2,8.9-13.8c1.3-4.2,1.3-5.9,0.4-8.8c-1.2-3.6-5.9-7.4-9.2-7.4
	c-1,0-1.8-0.5-1.8-1c0-0.6,0.9-1,2-1c2.5,0,4.3-4.1,3.4-7.6c-0.7-2.7,0.7-3.2,2.7-0.8c2.9,3.5,9.3,5.3,13.3,3.8
	c1.9-0.7,5.4-6.2,6.6-10.4c0.7-2.4,0.6-3-0.7-3c-2.6,0-0.8-2.4,2.5-3.2c5.5-1.4,10.1-10.9,10.2-20.9c0-4.9-4.5-13.6-8.1-15.4
	c-6-3.1-13.1-1.1-16.7,4.7c-2.2,3.6-4.2,12.8-4.2,19.5c0,2.7-0.4,4.2-1,3.8c-1.5-0.9-1.2-13.5,0.5-19.1
	C-400.1,472.8-393.2,466.9-386.7,466.9z"/>
<path class="st1" d="M-478.9,564.8c0,0-17.7,2.9-19.5,9.5c-1.8,6.6,34,1.8,34,1.8l3.2-4.4l-1.9-4.1l-3.5-2.8l-4.7-0.9L-478.9,564.8z
	"/>
<polygon class="st1" points="-509.6,422.9 -506.8,438.1 -507.3,447.2 -511.3,462.1 -515.9,470.1 -518.4,471.2 -524.3,466.9 
	-531.9,454.8 -534.2,448 -534.2,443.1 -530.7,438.9 -522.5,430.3 -514.5,424.2 "/>
<path class="st1" d="M-467.2,398.3c0,0,31.3,1.5,35.5,3.4c4.2,1.9,7.2-5.8,7.2-5.8V392l-2.2-1.3h-3.8l-2.3-1.3l-1.7-2.3l-3.2-1.3
	l-4.1,0.6l-5.5,2.3l-2.7-2.2l-3.2-0.7l-4.3,1.3l-3.7,4.3l-2.6,4.3L-467.2,398.3z"/>
<path class="st1" d="M-421.6,565.6c0,0-8.3,3.9-8.1,7.6c0.2,3.7,26.1,1.1,26.1,1.1l3.4-3.5v-3.2l-2.9-3.7l-5.1-1.5h-5.8
	L-421.6,565.6z"/>
<path class="st2" d="M-458,386.2c-1.9,1.3-4.3,4.2-5.4,6.5c-1.6,3.1-2.7,4.2-4.5,4.3c-4.4,0-14.6,3.2-21.9,6.7
	c-5.3,2.5-9.6,5.6-15.3,11.1c-4.3,4.3-9.7,8.8-12,10.2c-6,3.6-14.3,12-16.8,16.7c-3,6-1.1,13.4,5.9,22.3c1.5,1.9,3.5,6.4,4.4,10
	c0.9,3.5,2.8,8.3,4.1,10.6c3.1,5.3,12.8,14.2,18.9,17.4l4.8,2.5l-0.5,5.3c-0.2,3.6-1.6,7.5-4.2,12.5c-2.1,4-5.2,10-6.9,13.4
	c-2.8,5.4-3.5,6.2-6.7,6.7c-6.7,1.1-10.3,7.5-6.8,12c1.8,2.4,2.8,2.7,6.6,2.5c4.1-0.3,4.6-0.1,6,2.9c0.9,1.8,2.8,4.2,4.4,5.2
	c2.4,1.8,2.7,2.4,1.9,5.1c-1,3.5,0,6.2,2.7,7.5c1,0.4,9.1,0.9,18,1.2l16.2,0.4l2.5-2.6c1.4-1.4,2.6-3.6,2.6-4.8
	c0-3.1-2.6-6.7-5.8-7.9c-4.7-1.8-1.1-3,5.3-1.8c3.4,0.6,8.7,0.8,12.3,0.4l6.4-0.7l-0.7,3.2c-0.4,1.8-0.2,4.4,0.5,6.1
	c1.7,4,6.5,5.1,23.5,5.3c12,0.1,14.5-0.2,16.8-1.7c2.4-1.5,2.8-2.4,2.5-5.5c-0.2-3-1-4.1-3.9-6l-3.7-2.4l2.8-4.2
	c6.2-9.3,6.6-18.4,1-24.1c-2.5-2.6-3.1-3.9-2.6-5.9c0.6-2.4,0.7-2.4,3.6-1c5.7,2.9,9.3,2.9,12.7,0c3.4-2.8,7.3-10,7.3-13.2
	c0-1.1,1.3-2.7,2.9-3.7c4-2.4,7.1-9.2,7.8-17.4c0.8-9.6-0.9-14.8-6.3-20c-3.9-3.7-4.4-4.8-4.4-8.5c0-2.4,0.7-6.5,1.5-9.2
	c2.2-7.1,2.9-16.5,1.6-21.2c-1.3-4.8-7.3-10.8-11.8-11.8c-1.6-0.4-5.1-2.9-7.9-5.8c-6.1-6.3-12.2-10.5-19.4-13.5
	c-5.5-2.2-5.5-2.2-5.2-6.1c0.4-4.5-1.5-6.7-5.4-5.9c-2,0.3-2.7-0.1-3.4-1.8c-1.5-3.9-5.6-4.5-11.2-1.6c-3.6,1.8-3.8,1.8-5.4,0
	C-450.9,383.4-454,383.5-458,386.2z M-450,389.8c0,4.4,1,4.5,5.2,0.6c3.1-2.7,4.6-3.4,7.1-3.2c4,0.4,4.7,3.1,1.6,6.4
	c-1.5,1.6-1.9,2.8-1.3,3.4c0.7,0.7,2,0,3.9-2c2.9-3,6.8-3.9,8.1-1.9c0.9,1.5-2.8,6.2-5.5,6.9c-2.7,0.6-2.4,2.6,0.4,2.2
	c5.7-0.7,8.1-0.2,15.2,3.3c10.3,5.1,18.7,13.4,23.7,23.5c4.8,9.8,6.5,16.4,7.3,28.2l0.6,9.8h-3.2c-6.5,0-13.4,5.9-15.6,13.4
	c-1.7,5.6-2,18.2-0.5,19.1c0.6,0.4,1-1.1,1-3.8c0-6.7,2-15.9,4.2-19.5c3.6-5.8,10.7-7.8,16.7-4.7c3.6,1.8,8.1,10.5,8.1,15.4
	c-0.1,10-4.7,19.5-10.2,20.9c-3.3,0.8-5.1,3.2-2.5,3.2c1.3,0,1.4,0.6,0.7,3c-1.2,4.2-4.7,9.7-6.6,10.4c-4,1.5-10.4-0.3-13.3-3.8
	c-2-2.4-3.4-1.9-2.7,0.8c0.9,3.5-0.9,7.6-3.4,7.6c-1.1,0-2,0.4-2,1c0,0.5,0.8,1,1.8,1c3.3,0,8,3.8,9.2,7.4c0.9,2.9,0.9,4.6-0.4,8.8
	c-1.6,5.6-6.9,13.8-8.9,13.8c-0.7,0-3.6,1.2-6.6,2.5c-3.8,1.8-5.1,2.9-4.4,3.6c0.7,0.7,2.3,0.4,5.1-1c5.2-2.7,10.2-2.7,13.6,0
	c5.4,4.2,1.5,7.9-8.5,8.1c-8.9,0.1-24-1.3-26.1-2.4c-1.4-0.6-1.8-2.1-1.8-5.7c0-4.8,0.1-5,4.5-7.1c5.4-2.6,10.9-7.6,10-9
	c-0.4-0.7-2.1,0.2-4.3,2.1c-5.9,5.2-11.6,7.2-21.7,7.7c-4.9,0.2-10.2-0.1-11.7-0.7c-2.5-0.9-2.6-1.3-1.7-4.3
	c2.3-8.2,0.2-17.1-4.8-20.4c-3.2-2.1-9.7-2-12.9,0.1c-3.4,2.2-2,3.9,1.6,2c9.1-4.7,16.6,3.6,14.1,15.6c-1.5,6.7-3.8,10.9-6,10.9
	c-3.2,0-9.1,2.9-9.1,4.5c0,1.9-0.1,1.9,5.3-0.5c6.8-3,13.7-0.7,13.7,4.5c0,4.1-2,4.6-17.2,4.6c-18.8,0.1-21.5-1-18.9-7.6
	c0.7-1.6-0.1-2.8-3.4-6c-3.3-3.1-4.5-5.1-5.3-9c-1.5-7.2-0.3-11.5,7-25.6c5.1-9.7,6.8-13.9,7.3-18.5c0.9-7.9,2.1-10.9,5.1-12.3
	c1.4-0.6,2.7-1.1,2.9-1.1c0.3,0,0.5,2.5,0.5,5.5c0,8.6,1.5,6.5,2.9-4c0.7-5.3,1.9-11.5,2.7-13.9c4.2-12.3,16.8-18.6,23.4-11.6
	c5.5,5.8,6.5,19.6,2.2,29.3c-2.5,5.6-5.4,8-10.5,8.6c-4.8,0.7-4.8,2.6,0.1,2.6c3.6,0,3.8,0.6,1.7,6.6c-2.1,5.8-6.1,9.9-9.7,9.9
	c-3.7,0-8.1-2.3-10.6-5.5c-2.3-2.9-3.2-3.2-3.2-0.9c0,2.5,5.3,7.1,9.8,8.5c7.7,2.3,13.5-2.4,16.7-13.6c1-3.3,3-7.5,4.6-9.3
	c5.9-6.7,8.4-24.6,4.5-32.2c-4.3-8.3-9.2-11-16.5-9c-8,2.1-15,11.6-16.6,22.2c-0.6,4.2-1,4.8-3.2,4.8c-2.4,0-7.5,4.2-8.5,7
	c-0.3,1.1-1.2,0.9-4.4-1c-6.2-3.7-12.8-9.6-15.8-13.8c-2.8-4.1-7-14.1-6.2-14.9c0.2-0.2,1.4,0.2,2.6,0.9c2,1.2,2.4,1,4.9-1.9
	c3.2-3.9,6.7-13.4,8.1-22.1c1-5.8,0.3-15.5-1.6-24.5c-0.6-2.5,0-3.5,4.7-7.8c8.9-8.3,22-14.5,34.7-16.4c3.5-0.6,4.5-1.3,5.8-3.8
	c2.7-5.2,6.5-8.7,9.6-8.7C-450.4,387-450,387.4-450,389.8z M-509,433.5c1.4,10.1,0.3,18.7-3.7,28c-4.1,9.5-4.4,9.5-10,3.9
	c-4.7-4.7-8.5-11.1-9.8-16.4c-1-4.1,4.9-12.5,13-18.7c3.8-2.9,7.5-5.3,8.1-5.3C-510.7,425-509.7,428.4-509,433.5z"/>
<path class="st1" d="M-391.8,422.8c0,0,10.7,4.1,10.7,13.2c0.1,11.5-1.4,13.7-1.4,13.7S-384.8,431.5-391.8,422.8z"/>
<g>
	<path class="st3" d="M-478.3,418c0,0,3.9-13.8,13.6-3.1"/>
	<path class="st3" d="M-415.1,416.8c0,0,8.5-9.9,12,2.7"/>
</g>
<g>
	<ellipse class="st4" cx="-463.1" cy="489.5" rx="8.3" ry="8.9"/>
	<ellipse class="st4" cx="-464.7" cy="474.2" rx="2.5" ry="3.1"/>
	<ellipse class="st4" cx="-457.5" cy="476.5" rx="2.7" ry="3.1"/>
	<ellipse class="st4" cx="-471.3" cy="477.3" rx="2.5" ry="3.1"/>
</g>
<g>
	<ellipse class="st4" cx="-385.4" cy="487.2" rx="6.8" ry="7.6"/>
	<ellipse class="st4" cx="-386.4" cy="474.2" rx="2.7" ry="3.1"/>
	<ellipse class="st4" cx="-393.3" cy="476.5" rx="2.5" ry="3.1"/>
	<circle class="st4" cx="-379.4" cy="476.5" r="2.3"/>
</g>
<g>
	<path class="st5" d="M-438.9,428.8c-0.1-0.6,0.4-1.2,1-1.3c2.9-0.3,11.2-1.1,13.3,0.5c1.1,0.9-5.3,11.5-5.3,11.5
		S-438.2,434.9-438.9,428.8z"/>
	<path class="st6" d="M-451.3,434.4c0,0,0.5,9.6-7.3,10.5"/>
	<path class="st6" d="M-419,437.8c0,0,5.5,5.6,3.8,10.4"/>
	<path class="st3" d="M-453.1,442.7c0,0,19,8.7,22.9-1.8"/>
	<path class="st3" d="M-416.9,443.5c0,0-11.9,7.3-13.3-3.3"/>
	<path class="st7" d="M-449.9,444.8c0,0,18.8,4.7,19.2-2.9c0.5-7.6,0.5,1.1,0.5,1.1s5.6,6,11.2,1.8c5.6-4.2-7.8,18.6-12.7,17.1
		C-436.6,460.4-445.9,461.5-449.9,444.8z"/>
</g>
<g id="tangue">
	<path class="st8" d="M-443.6,458.5c0,0,3.7-7,10.6-3.1c1.7,1,1-4.8,8.9-1.1c8,3.6,14.7,17.8,13.1,32.9
		c-1.6,15.1-12.9,17.5-12.9,17.5s-14.9,2-17.9-8s-2.1-26.4-0.4-29.3C-440.4,464.5-443.6,458.5-443.6,458.5z"/>
	<path class="st9" d="M-435.4,465.5c0,0,3.2-2.1,7.1-2.6c2.3-0.3,5,0,7.3,1.8"/>
	<path class="st9" d="M-432.7,455.6c6.3,8.2,4.4,7.3,4.4,7.3"/>
	<ellipse class="st10" cx="-427.2" cy="482.4" rx="14.5" ry="16.9"/>
</g>
<path class="st11" d="M-443.6,484.2c0.2-0.6,0.8-0.9,1.4-0.8c1.9,0.4,6.3,1.7,8.2,6.1c2.2,5.1,8.1,1.9,9.3,1.1
	c0.2-0.1,0.3-0.2,0.4-0.4c1-1.6,7.3-11.2,9.6-11.3c1.5-0.1,2.9,0.2,3.7,0.5c0.5,0.2,0.8,0.6,0.8,1.1c0.2,4.7,1.3,29.4,0.7,35.6
	c-0.6,7-2.5,15.9-8.8,19.4c-0.6,0.3,1.2,5.3,1.2,5.3s2.9,5.6,0.5,9.3c-2.5,3.7-2.6,1.5-2.6,1.5s-3.6-1.9-1.2-10.5
	c2.3-8.7-3.1-6.5-3.4-4.4c-0.2,1.4,0.1,4.8-1,5.5c-1.1,0.7-2.1,0.8-3,0.5c-0.8-0.3-1.4-1.3-1.2-2.5c0.4-2.2,1.9-12.2,0.2-14.6
	c-1.3-1.8-2.4-2.3-2.8-2.5c-0.1,0-0.3-0.1-0.4-0.1c-0.8,0-3.7,0.3-4.4,2.6c-0.7,2.7-1.4,3-1.4,5.3c0,0.7-0.1,1.1-0.3,1.3
	c-0.4,0.6-0.7,1.3-0.6,2c0.3,3.1,0.8,9.3-0.2,10.8c-0.8,1.1-1.5,1.5-2.1,1.6c-0.5,0.1-1-0.1-1.3-0.5c-0.5-0.7-1.1-2.1-1-4.6
	c0.2-3.7-0.4-8.1-1.2-9.7c-0.8-1.4-2.1-7.3-2.3-8.4c0-0.1,0-0.2,0-0.3C-446.7,520.9-445.7,490.4-443.6,484.2z"/>
</svg>
