<?xml version="1.0" encoding="utf-8"?>
<!-- Generator: Adobe Illustrator 19.1.0, SVG Export Plug-In . SVG Version: 6.00 Build 0)  -->
<svg version="1.1" id="Слой_1" xmlns="http://www.w3.org/2000/svg" xmlns:xlink="http://www.w3.org/1999/xlink" x="0px" y="0px"
	 viewBox="0 0 225.4 197.5" style="enable-background:new 0 0 225.4 197.5;" xml:space="preserve">
<style type="text/css">
	.st0t{fill:#BE875F;}
	.st1t{fill:#F4D5BE;}
	.st2t{fill:#BB865D;}
	.st3t{fill:#4F342B;}
	.st4t{fill:#BE875D;}
	.st5t{fill:#76423B;}
	.st6t{fill:#EEBEA2;stroke:#CF855A;stroke-width:2;stroke-miterlimit:10;}
	.st7t{fill:#EEBEA2;stroke:#CF855A;stroke-width:2;stroke-linecap:round;stroke-miterlimit:10;}
	.st8t{fill:#EEBEA2;}
	.st9t{fill:#55372E;}
	.st10t{fill:none;stroke:#55372E;stroke-width:2;stroke-linecap:round;stroke-miterlimit:10;}
</style>
<polygon class="st0t" points="163.6,36.6 162.6,39.7 162.6,44.5 163.6,54 164.2,58.3 166.1,65.9 168.8,72.7 172.3,80 175,82.5 
	178.5,81.4 181,78.4 187,69.1 190.5,57.6 190.5,51.8 186,47.5 175,40.3 169.1,37 164.2,35.5 "/>
<path class="st1t" d="M38.2,114.1c0,40.5,10.2,46.9,70.7,46.9s68.8-3.2,68.8-43.7c0-33.7,23-15.4,11.9-47.8l-12.1,13.4l-6.5-7.4
	L163.6,54c4.8,5-0.6,9,4.1,13.9c1.9,2,8.6,15,9.1,15c2.7,0,15.1-13.9,13.3-21.1c-0.7-3-0.8,0.9-0.8,4.4c0,2.1,3.2-5.5,2.4-3
	c-1.1,3.9-1.2,5.3-0.1,8.4c1.9,5.4,2.2,8.6,0.9,9c-0.7,0.2-3.5-10.1-4.1-12.7l-1.6,2.9l-3.8,6.2c-4.1,6.1-4.9,6.4-7.8,5.5
	c-2.9-0.9-9.6-13.3-11.5-23c-0.9-4.3-1.6-11.8-1.6-16.6v-8.8l-4-3.5c-5.2-4.4-12.8-8.5-20.9-11.2c-4.6-1.6-6-2.1-6.7-3.8
	c-7-0.9-14.3-1.4-21.7-1.4c-3.4,0-6.8,0.1-10.1,0.3c0.3,0.4,0.4,0.7,0.4,0.8c0,0.3-2.2,0.6-4.8,0.6c-16.1,0-35.3,15-45.2,35.3
	c-6,12.4-8,20.3-8,32.4"/>
<path class="st2t" d="M96.1,14.9c0,0,31.2-0.7,36.1,1.3s-6.7-13.4-6.7-13.4h-4.7L118.4,7l-3.7-2.5l-5.4-2.5l-3.7,0.9l-2.8,3.6
	l-4.1-1.6l-4.4-0.2L93,7.5L96.1,14.9z"/>
<path class="st3t" d="M102.8,1.8c-1.5,1.6-2.3,1.8-4.3,1c-5.1-1.9-9,3.1-6.3,8.1c0.9,1.7,0.6,2-1.7,2.5c-8.3,1.7-13.9,4.1-20.6,8.9
	c-5.4,3.9-8.6,5.5-12,5.9c-12.3,1.7-16.4,7.5-15.4,21.7c0.4,6.2,0.1,9.3-1.5,14.2c-2.2,7.1-3.4,20.6-2.4,26.2
	c1.2,6.4,2.6,2.8,2.6-6.7c0-12.1,2-20,8-32.4c9.9-20.3,29.1-35.3,45.2-35.3c2.6,0,4.8-0.3,4.8-0.6s-1.1-1.9-2.5-3.6
	c-4.7-5.6-2.5-8.4,3.6-4.4c2.1,1.5,4,2.3,4,1.9c0.1-0.5,0.2-1.9,0.3-3.3c0.1-2,0.7-2.6,2.9-2.8c3.7-0.4,6.9,1.7,10.8,7.4
	c2,3,3.5,4.2,4.1,3.6c0.6-0.6,0.6-1.7-0.2-3.1c-1.7-3.3-0.9-7.6,1.4-7.6c2.6,0,5.5,4.2,6.4,9.4c0.7,4.3,0.8,4.4,7.3,6.6
	c8.1,2.7,15.7,6.8,20.9,11.2l4,3.5v8.8c0,4.8,0.7,12.3,1.6,16.6c1.9,9.7,8.5,24,11.4,24.9c2.9,0.9,6.3-1.6,10.4-7.7l3.5-5.1l1.2,4.7
	c0.6,2.6,1.6,4.5,2.3,4.3c1.3-0.4,1-3.6-0.9-9c-1.1-3.1-1-4.5,0.1-8.4c0.8-2.5,1.4-6.3,1.4-8.4c0-3.5-0.6-4.3-6.2-9
	c-5.7-4.7-16.7-10.9-19.4-10.9c-0.5,0-2.6-1.6-4.5-3.6c-4.7-4.9-11.8-9.2-21.3-13l-8-3.3L132,9.7c-2.8-8.7-9-12.4-12.3-7.4l-1.6,2.5
	l-3.6-2.5C110.2-0.6,105.2-0.8,102.8,1.8z M174,40.8c8.3,4.2,16.2,11.5,16.2,15c0,4.3-3.7,14.1-7.5,19.8c-4.8,7.3-6.8,7.1-10.5-1
	c-4.1-8.7-6-16.6-6.7-27.5C164.8,36.3,164.9,36.2,174,40.8z"/>
<g>
	<path class="st3t" d="M78.2,83.4c0.3,2.6,1.3,5.7,2.1,6.9c1.4,2.1,1.3,2.4-0.4,3.4c-2.6,1.4-5,0.3-5.7-2.7c-0.4-1.3-1.1-2.2-1.7-2
		c-1.9,0.6-1.8,2.3,0.4,5.1c1.9,2.4,2.8,2.7,5.9,2.3l3.7-0.5l-0.1,3.8c-0.2,7.9,7.7,10.9,13.5,5.1c1.6-1.6,2.9-3.9,2.9-5
		c0-1.9,0.1-2,2.9-0.3c3.7,2.1,5.4,0.7,2.2-1.7c-1.4-1.1-2.6-3.3-3-5.5c-0.8-4.8-2.5-5.1-2.9-0.6c-0.2,1.9-1,4.1-1.9,4.7
		c-2.6,2-7.7,1.6-9.9-0.8c-1.8-2-1.8-2.1,1.4-4.5c2.8-2.2,6.2-7.1,6.2-8.9c0-1.3-7.2-3.5-11.6-3.5h-4.7L78.2,83.4z"/>
	<path class="st4" d="M80.5,80.4c0,0,0.4,9,2.9,10.1c2.5,1,6.9-7.6,6.9-7.6S86.7,80.4,80.5,80.4z"/>
	<path class="st5" d="M84.4,97.5c0,0,1.9,2.8,5.5,2.9s6.9-1.8,7-2.1c0.1-0.3-1.1,5.7-5,6.7s-5.9-0.5-5.9-0.5S82.5,102.4,84.4,97.5z"
		/>
</g>
<path id="right_x5F_hand_x5F_puppy" class="st6t" d="M191,82.9c-0.1-0.6,1.9-5.3,2.3-4.8c4.8,6.3,18.2,27.2,17.2,43.8
	c-2.6,43.2-31.8,52.2-41,58c-19.5,12.2-42.3,11.8-64,10.9c-28.8-1.1-55.5-7-69.3-23.2c-2.9-3.4-15.9-18.6-14.5-36.2
	c0.3-3.7,1.9-16,5.8-16.4c0.4,0,2.2-0.5,2.2,0.9c-0.1,6.7,0.9,21.2,7.6,25.2c2,1.2-9.5-18.8-0.3-22.2c2.7-1,4,4.2,6.7,9.2
	c1.8,3.4,4,6.9,5.6,9.3c1.1,1.7,2,3.6,2.7,5.5c1.1,3.2,4.2,8.8,12.6,10.8C76.4,156.5,196.8,117.7,191,82.9z"/>
<g id="left_x5F_hand_x5F_puppy">
	<path class="st6t" d="M40.6,92.5c0,0,1,18.6,42.1,30.5s62.4,1.5,62.4,1.5s-0.2-4.9,2.2-7.1s5.1-10.2,5.2-13.7c0.2-3.6-1-14,4.2-13.9
		c5.2,0.2,5.9,5.6,5.9,5.6s1.4,8.8,0,13c-1.4,4.2,9.8-1.4,11.2-2.4c1.4-1,9.8-9.1,11.3-15.6s5.2-4.2,5.2-4.2s2.9,0.7,3,4.9
		c0.1,3.1,0,3.6,0,3.6s1.2-1.3,3.7-0.1c2.3,1.1,2.5,3.5,2.5,5.3c0,1.8-1,6.3-1.5,7.4c-0.1,0.3,1.9-0.7,2.2,1.8
		c0.4,2.5,0.2,6.7-0.9,10.2c-0.6,2.1-2.1,7-4.7,10.6c-2.1,3-5.6,9.2-10,11.5s-55.2,41.3-129.9,10.4C10.1,133.1,40.6,92.5,40.6,92.5z
		"/>
	<path class="st6t" d="M185,112.3c0,0,7.4-12.3,8.6-17.5"/>
	<path class="st6t" d="M191.8,121.2c0,0,6-9,6.5-14"/>
</g>
<g id="thumb">
	<path class="st7" d="M36.7,140.6c0,0-7.8-20.8,0.4-21.7c8.2-0.9,1.5,9.1,11.3,15.8c9.8,6.7,16.1,20.6,16.1,20.6"/>
	<path class="st8" d="M34.2,141.3c0,0,6.9,1.2,7.2-4.2s12.3,5.6,12.3,5.6l5.7,7.5l9.8,11.4l-5.2,3.5l-20.4-6.7L34.2,141.3z"/>
</g>
<g>
	<path class="st1t" d="M51.7,103.5l-5.1,6.3l-2.6,5l-1.4,5.9v6.8l2.2,6.4l4.2,4.8l6.4,1.3l6.7-1.3c0,0,4.2-2.1,4.4-3
		c0.2-0.9,4.8-10.8,4.8-10.8l1.6-2.2l3.7-1.9l3.2-5.7L64.5,97.5L51.7,103.5z"/>
	<polygon class="st1t" points="116.1,101.5 103.4,118.8 99.2,125.7 98.7,134 100.9,145.7 111.2,150.4 123.3,143.9 126.1,120.7 
		133.2,97.5 	"/>
	<path class="st2t" d="M44.4,51.5c0,0-4.4-20.9,14.7-20.9C60.2,30.7,44.4,51.5,44.4,51.5z"/>
	<path class="st9t" d="M52.9,101.6c-7.7,3.9-13.7,16.4-12,25.2c0.5,2.5,0.9,4.8,1,5.2c0,0.5,1.6,2.6,3.5,4.7c2.9,3.2,4.5,4,8.3,4.6
		c10,1.4,15.9-3.6,18.7-15.8c0.4-2,1-2.7,2.1-2.3c0.9,0.3,1.2,0.1,0.9-0.4c-0.3-0.6,0.1-1,0.9-1c5,0-3.7-17-10.4-20.5
		C62.1,99.3,57.2,99.4,52.9,101.6z M66.9,105.4c3.4,2.9,8,11.1,8,14.4c0,3.3-1.7,2.3-2.7-1.6c-1.1-4.8-2.9-3.9-2.5,1.2
		c1.1,13.3-7.9,22.3-18.1,18.1c-4.9-2.1-7.7-6.8-7.7-13.3C43.9,108.2,57.2,97.3,66.9,105.4z"/>
	<path class="st9t" d="M110.3,111.8c-4.7,2.4-8.4,6-11.3,11.3c-2.9,5.2-3,16.8-0.1,21.4c4.2,6.9,11.6,8.9,19,5.1
		c2.4-1.3,5.3-3.7,6.3-5.5c2.4-4.1,4-14,2.6-16.4c-1.8-3.4-2.9-2-2.9,3.8c0,3.5-0.8,7.5-1.9,9.9c-3.4,7.5-13.4,9.6-19,4
		c-3.3-3.4-4.2-13.5-1.6-20.1c2-5.4,8.3-11.1,13.8-12.6c4.5-1.2,12.2,0.1,16.3,2.7c2.8,1.9,5.4,6.3,5.4,9.4c0,1.3,0.7,2,1.9,2
		c1.9,0,1.9-0.2,0.4-4.5c-0.8-2.5-2.8-5.8-4.3-7.3C129.6,109.7,117.7,108.1,110.3,111.8z"/>
	<path class="st10t" d="M59.4,60.1c0,0,5.1-7.6,11.8-1.4"/>
	<path class="st10t" d="M66.3,42.5c0,0,6.2-0.9,5.9-3.8"/>
	<path class="st10t" d="M134.4,43.6c0,0,2.7,4.1,5.3,4.3"/>
	<path class="st10t" d="M126.6,63.1c0,0,8.2-5.8,13.1,2"/>
</g>
</svg>
