<?xml version="1.0" encoding="utf-8"?>
<!-- Generator: Adobe Illustrator 19.1.0, SVG Export Plug-In . SVG Version: 6.00 Build 0)  -->
<svg version="1.1" id="Слой_1" xmlns="http://www.w3.org/2000/svg" xmlns:xlink="http://www.w3.org/1999/xlink" x="0px" y="0px"
	 viewBox="0 0 150 207.6" style="enable-background:new 0 0 150 207.6;" xml:space="preserve">
<style type="text/css">
	.st0{fill:#F0C4A0;stroke:#372226;stroke-linecap:round;stroke-miterlimit:10;}
	.st1{fill:#372226;}
	.st2{fill:#F0C4A0;stroke:#372226;stroke-miterlimit:10;}
	.st3{fill:#A76252;stroke:#372226;stroke-miterlimit:10;}
	.st4{fill:#A76252;}
	.st5{fill:#522E35;stroke:#372226;stroke-miterlimit:10;}
	.st6{fill:none;stroke:#372226;stroke-linecap:round;stroke-miterlimit:10;}
	.st7{fill:#FFFFFF;}
	.st8{fill:#522E35;stroke:#372226;stroke-linecap:round;stroke-miterlimit:10;}
	.st9{fill:#4F7650;stroke:#372226;stroke-miterlimit:10;}
	.st10{fill:#D7625E;}
	.st11{fill:#E29498;stroke:#D7625E;stroke-miterlimit:10;}
	.st12{fill:#372226;stroke:#372226;stroke-miterlimit:10;}
</style>
<g>
	<ellipse class="st0" cx="104.4" cy="56.4" rx="6.4" ry="6.2"/>
	<g>
		<path class="st1" d="M101.6,56.3c0,0,0-0.5,0.3-1.1c0.1-0.2,0.2-0.3,0.2-0.5c0.1-0.2,0.2-0.4,0.4-0.5c0.1-0.2,0.3-0.3,0.5-0.5
			c0.2-0.2,0.4-0.3,0.6-0.4c0.2-0.1,0.5-0.2,0.7-0.2c0.2-0.1,0.5-0.1,0.7,0c0.2,0,0.5,0.1,0.7,0.1c0.2,0.1,0.4,0.2,0.5,0.3
			c0.1,0.1,0.3,0.2,0.4,0.3c0.1,0.1,0.2,0.2,0.2,0.3c0.1,0.2,0.2,0.2,0.2,0.2s-0.1,0-0.3-0.1c-0.1,0-0.2-0.1-0.3-0.1
			c-0.1-0.1-0.3-0.1-0.4-0.1c-0.3-0.1-0.6-0.1-1-0.1c-0.2,0-0.3,0.1-0.5,0.1c-0.2,0-0.3,0.1-0.5,0.2c-0.2,0.1-0.3,0.2-0.5,0.3
			c-0.1,0.1-0.3,0.2-0.4,0.3c-0.3,0.2-0.5,0.5-0.8,0.7C101.9,56,101.6,56.3,101.6,56.3z"/>
	</g>
</g>
<path class="st2" d="M55.2,32.5h9l12.7-2.9l8-1.7l8.7-1.4l2.9,4.8c0,0,5.8,12.5,6.1,17.7s-2.3,6.7-1.4,11.2s5.2,15.5,2.6,21.8
	c-2.7,6.3-21.8,10.5-21.8,10.5L71.2,90L54.6,78.2l-6.4-19.5l-2.4-15.8L55.2,32.5z"/>
<g>
	<path class="st3" d="M34.1,44.7c0,0,0.4,11.5,4.4,14.9c4,3.4,13.7,4.1,13.7,4.1s1.7-1.9-2-7.3c-2.9-4.4,4.8-19.5,4.8-19.5
		S38.2,27.6,34.1,44.7z"/>
	<g>
		<path class="st4" d="M42.6,58.3c0,0-6.1-4.5-7.5-9.6"/>
		<path class="st1" d="M42.6,58.3c0,0-0.7-0.3-1.7-1c-0.5-0.3-1-0.8-1.6-1.3c-0.6-0.5-1.1-1.1-1.6-1.7c-0.5-0.6-1-1.3-1.3-1.9
			c-0.4-0.6-0.7-1.3-0.9-1.8c-0.1-0.3-0.2-0.5-0.2-0.8c-0.1-0.2-0.1-0.4-0.1-0.6c-0.1-0.3-0.1-0.5-0.1-0.5s0.1,0.2,0.3,0.5
			c0.1,0.3,0.4,0.7,0.7,1.2c0.2,0.2,0.3,0.5,0.5,0.8c0.2,0.3,0.4,0.5,0.6,0.8c0.4,0.6,0.9,1.2,1.4,1.7c1,1.2,2,2.3,2.8,3.1
			C42.1,57.7,42.6,58.3,42.6,58.3z"/>
	</g>
</g>
<g id="hair">
	<g>
		<path class="st1" d="M65.7,16.8c0,0-1-0.4-2.4-0.9c-1.4-0.6-3.3-1.3-5.2-2.1c-0.9-0.4-1.9-0.7-2.8-1c-0.9-0.3-1.7-0.6-2.5-0.8
			c-0.4-0.1-0.7-0.2-1-0.3c-0.3-0.1-0.6-0.1-0.8-0.2c-0.4-0.1-0.7-0.1-0.7-0.1s0.3,0,0.7-0.1c0.2,0,0.5,0,0.8,0c0.3,0,0.7,0,1.1,0.1
			c0.8,0.1,1.7,0.2,2.6,0.5c0.5,0.1,1,0.2,1.4,0.4c0.5,0.2,1,0.3,1.5,0.5c1.9,0.7,3.8,1.7,5.1,2.5c0.7,0.4,1.2,0.8,1.6,1
			C65.5,16.6,65.7,16.8,65.7,16.8z"/>
	</g>
	<g>
		<path class="st1" d="M45.3,30.1c0,0-0.9,0-2.3,0c-0.7,0-1.5,0-2.4,0c-0.9,0-1.8,0-2.7,0c-0.5,0-0.9,0-1.4,0.1
			c-0.4,0-0.9,0-1.3,0.1c-0.4,0-0.8,0.1-1.2,0.2c-0.4,0.1-0.7,0.1-1.1,0.2c-0.3,0.1-0.6,0.2-0.9,0.3c-0.3,0.1-0.5,0.2-0.7,0.3
			c-0.4,0.2-0.6,0.3-0.6,0.3s0.2-0.2,0.5-0.5c0.1-0.2,0.4-0.3,0.6-0.5c0.2-0.2,0.5-0.3,0.9-0.5c0.3-0.2,0.7-0.3,1.1-0.4
			c0.4-0.1,0.8-0.2,1.3-0.3c0.9-0.2,1.8-0.2,2.8-0.3c0.9,0,1.9,0,2.8,0.1c0.9,0.1,1.7,0.2,2.4,0.3C44.4,29.8,45.3,30.1,45.3,30.1z"
			/>
	</g>
	<path class="st5" d="M67.4,1.7c0,0,2.3,6.3,9.1,6.7c6.8,0.4,12.3-0.5,15.7,0.8c3.8,1.4,5.4,2.3,7.4,7.7c2.4,6.5-3.3,14.5-3.3,14.5
		l-0.9-0.9c-0.5-0.5-1.3-0.6-1.8-0.1c-3,2.2-12,8.3-16,6.1c-4.9-2.6-22.4,0.5-22.4,0.5s-16.7-6.4-21,7.8c-0.2,0.6-7.4-11.4-1.1-16.7
		s10.6-3.9,18.4-0.8c6.2,2.5-3.4-1.2-7.9-2.8c-1.7-0.6-2.8-2.2-2.6-4c0.2-1.5,1.1-3,3.9-3.4c0.7-0.1-1.1-4.8,4.3-5.5
		c4-0.5-0.7-3.6,18-2.9C72,8.8,64.6,8.2,67.4,1.7z"/>
	<g>
		<path class="st1" d="M75.2,24.2c0,0-0.5-0.2-1.3-0.5c-0.8-0.3-1.9-0.8-3.3-1.4c-1.4-0.6-3-1.2-4.7-1.8c-1.7-0.6-3.6-1.3-5.4-1.9
			c-1.9-0.6-3.8-1.1-5.5-1.5c-0.9-0.2-1.8-0.3-2.6-0.5c-0.8-0.1-1.6-0.2-2.3-0.2c-0.7,0-1.4,0-2,0c-0.6,0.1-1.1,0.1-1.5,0.2
			c-0.4,0.1-0.7,0.2-1,0.3c-0.2,0.1-0.3,0.1-0.3,0.1s0.1-0.1,0.3-0.2c0.2-0.1,0.5-0.3,0.9-0.4c0.4-0.2,0.9-0.3,1.5-0.4
			c0.3,0,0.6-0.1,1-0.2c0.3,0,0.7-0.1,1.1-0.1c0.8,0,1.6,0,2.4,0c0.9,0.1,1.8,0.2,2.7,0.3c0.9,0.2,1.9,0.3,2.8,0.6
			c1,0.2,1.9,0.5,2.9,0.8c1.9,0.6,3.8,1.3,5.5,2c1.7,0.7,3.3,1.5,4.6,2.1c1.3,0.7,2.4,1.3,3.2,1.7C74.8,23.9,75.2,24.2,75.2,24.2z"
			/>
	</g>
	<g>
		<path class="st1" d="M51.5,24.2c0,0,0.4,0.1,1.2,0.2c0.8,0.2,1.8,0.4,3.1,0.7c0.6,0.2,1.3,0.4,2.1,0.6c0.7,0.2,1.5,0.4,2.3,0.7
			c1.6,0.5,3.2,1.1,4.9,1.8c0.8,0.3,1.6,0.7,2.4,1.1c0.8,0.4,1.5,0.8,2.3,1.2c0.7,0.4,1.4,0.9,2,1.3c0.6,0.4,1.2,0.9,1.8,1.2
			c0.5,0.4,1,0.8,1.4,1.2c0.4,0.3,0.7,0.7,1,1c0.5,0.6,0.8,0.9,0.8,0.9s-0.3-0.3-1-0.8c-0.3-0.2-0.6-0.5-1.1-0.8
			c-0.4-0.3-0.9-0.6-1.5-1c-0.6-0.3-1.2-0.7-1.8-1.1c-0.7-0.3-1.4-0.7-2.1-1.1c-1.5-0.7-3-1.5-4.7-2.2c-1.6-0.7-3.2-1.3-4.8-1.9
			c-1.5-0.6-3-1.1-4.2-1.6C53.2,24.8,51.5,24.2,51.5,24.2z"/>
	</g>
	<g>
		<path class="st1" d="M76,14.7c0,0,0.4,0.1,1.1,0.3c0.7,0.2,1.6,0.5,2.7,1c1.1,0.5,2.4,1.2,3.6,2c1.3,0.8,2.5,1.9,3.6,3.2
			c0.5,0.6,1,1.3,1.4,2c0.4,0.7,0.8,1.4,1,2.2c0.5,1.5,0.7,2.9,0.6,4.2c0,0.6-0.1,1.2-0.2,1.7c-0.1,0.5-0.2,0.9-0.3,1.2
			c-0.2,0.7-0.4,1-0.4,1s0.1-0.4,0.2-1.1c0.1-0.3,0.1-0.8,0.1-1.2c0-0.5,0-1,0-1.6c0-1.2-0.3-2.5-0.9-3.8c-0.3-0.7-0.6-1.3-1-2
			c-0.4-0.6-0.9-1.3-1.4-1.8c-0.5-0.6-1-1.1-1.6-1.7c-0.6-0.5-1.1-1-1.7-1.4c-1.2-0.9-2.3-1.7-3.4-2.2c-1-0.6-1.9-1.1-2.5-1.4
			C76.4,14.9,76,14.7,76,14.7z"/>
	</g>
	<g>
		<path class="st1" d="M95.7,24.2c0,0-0.2-0.4-0.5-1c-0.3-0.6-0.8-1.5-1.5-2.5c-0.6-1-1.5-2.1-2.4-3.2c-0.5-0.6-1-1.1-1.6-1.7
			c-0.5-0.6-1.1-1.1-1.7-1.6c-0.6-0.5-1.2-1-1.9-1.4c-0.6-0.5-1.3-0.8-1.9-1.2c-0.6-0.4-1.3-0.7-1.9-1c-0.6-0.3-1.2-0.5-1.8-0.8
			c-0.6-0.2-1-0.5-1.5-0.6c-0.5-0.1-0.9-0.3-1.2-0.4c-0.7-0.2-1-0.4-1-0.4s0.4,0.1,1.1,0.2c0.3,0.1,0.8,0.1,1.3,0.2
			c0.5,0.1,1,0.3,1.6,0.4c0.6,0.2,1.2,0.3,1.9,0.6c0.6,0.3,1.3,0.5,2,0.9c0.7,0.4,1.4,0.7,2,1.2c0.6,0.5,1.4,0.9,2,1.5
			c0.6,0.5,1.2,1.1,1.8,1.7c0.6,0.6,1.1,1.2,1.6,1.8c0.5,0.6,0.9,1.2,1.3,1.8c0.4,0.6,0.7,1.2,1,1.7c0.3,0.5,0.5,1.1,0.7,1.5
			c0.2,0.5,0.3,0.9,0.4,1.2C95.6,23.8,95.7,24.2,95.7,24.2z"/>
	</g>
</g>
<g>
	<ellipse transform="matrix(0.7462 0.6658 -0.6658 0.7462 55.4091 -9.8776)" class="st2" cx="40.7" cy="67.7" rx="8.6" ry="6.6"/>
	<g>
		<path class="st1" d="M38.5,64.9c0,0,0.4-0.3,1.2-0.5c0.4-0.1,0.8-0.2,1.4-0.2c0.5,0,1.1,0.1,1.6,0.4c0.3,0.2,0.5,0.3,0.7,0.5
			c0.2,0.2,0.4,0.4,0.5,0.7c0.2,0.2,0.2,0.5,0.3,0.7c0.1,0.2,0.1,0.5,0.1,0.7c0.1,0.4,0,0.7-0.1,1c0,0.2-0.1,0.3-0.1,0.3
			s0-0.1-0.1-0.3c-0.1-0.2-0.1-0.5-0.3-0.8c-0.1-0.2-0.1-0.4-0.2-0.5c-0.1-0.2-0.2-0.4-0.3-0.5c-0.2-0.3-0.6-0.6-0.9-0.8
			c-0.7-0.4-1.7-0.5-2.4-0.5C39,64.9,38.5,64.9,38.5,64.9z"/>
	</g>
</g>
<g>
	<path class="st6" d="M84.1,46.6c0,0,1.9,4.6,1,7.5"/>
	<path class="st6" d="M73.1,65.3c0,0,6.5-4.8,4.7-9.5"/>
	<path class="st6" d="M88,56.3c0,0,4.2,8.2,4.7,9c0.5,0.8-4.1,5.6-9,2.5"/>
	<path class="st6" d="M90.6,56.3c0,0,4.2,5,5.7,4.7"/>
</g>
<g>
	<polygon class="st7" points="95.7,53.2 94,54.8 94,56.1 94.7,57.1 97.3,57 98.3,55.5 98.5,54.5 98.3,52.8 	"/>
	<path d="M95.7,53.2c0,0-0.7,2.9-1.8,3.3s-2.4-2.7-2.4-2.7S95.2,52.9,95.7,53.2z"/>
	<path class="st6" d="M91.4,53.6c0-0.1,6.2-1,6.9-1.1c0.8,0,1.1,4.5-1.9,4.8c-1,0.1-2-0.2-2.7-0.7C92.1,55.8,91.2,54.1,91.4,53.6z"
		/>
</g>
<g>
	<polygon class="st7" points="69.5,60.2 70.6,58 71.8,56.5 74.8,56.8 74.8,58.1 74.8,59.6 73.7,60.5 72.2,61 70.4,61 	"/>
	<path d="M67,56.9c0,0,1.3,3.6,2.6,3.6c1.3,0,2-3.6,2-3.6H67z"/>
	<path class="st6" d="M66.7,56.8c0,0,0.4,4.4,4.4,4.5c4.1,0.1,4.5-4.7,4.5-4.7L66.7,56.8z"/>
</g>
<g id="eye_x5F_brow_1_">
	<g id="eye_x5F_brow">
		<path class="st5" d="M55.8,53c0,0,0.2-4.7,5.2-5.4c5-0.7,8.2,2.1,8.2,2.1s0.2-1.8-1-3.2s8.1-0.5,10.8,5.3c1,2.1,0.2,5.9-3.7,5.4
			C73,57,62.6,51.3,55.8,53z"/>
		<g>
			<path class="st1" d="M73.1,54.2c0,0-0.3-0.2-0.6-0.6c-0.3-0.4-0.7-0.8-1.1-1.3c-0.2-0.2-0.4-0.5-0.5-0.7
				c-0.2-0.2-0.3-0.4-0.5-0.6c-0.1-0.2-0.3-0.4-0.3-0.5c-0.1-0.1-0.1-0.2-0.1-0.2s0.1,0,0.2,0c0.2,0,0.4,0.1,0.6,0.2
				c0.2,0.1,0.5,0.3,0.7,0.5c0.2,0.2,0.5,0.5,0.7,0.7c0.4,0.5,0.7,1.2,0.8,1.6C73.2,53.9,73.1,54.2,73.1,54.2z"/>
		</g>
	</g>
	<g>
		<path class="st8" d="M98.5,42.6c0,0-5.5,6.5-6.6,6.7c-1.1,0.2-4,1.1-5.3-2.4c-1.2-3.5,0.6-5.8,0.6-5.8l0.9,2.1
			c0,0,2.4-5.6,7.3-5.2C100.3,38.4,98.5,42.6,98.5,42.6z"/>
		<g>
			<path class="st1" d="M89.9,47.1c0,0-0.3-0.1-0.6-0.3c-0.3-0.2-0.6-0.6-0.8-1.1c-0.2-0.5-0.2-1-0.1-1.4c0.1-0.2,0.2-0.3,0.3-0.4
				c0.1-0.1,0.1-0.1,0.1-0.1s0,0.1,0,0.2c0,0.1,0.1,0.2,0.1,0.4c0.1,0.3,0.3,0.6,0.4,1c0.2,0.4,0.3,0.8,0.4,1.1
				C89.8,46.8,89.9,47.1,89.9,47.1z"/>
		</g>
	</g>
</g>
<g id="whisky">
	<path class="st5" d="M71.6,75.3c0,0-3.1-2.1-4.6,0.3c-1.4,2.4-0.4,5.2,1.2,5.8c1.7,0.7,6,0.8,9.4-1.8c1.2-0.9,3.4,1.9,6,1.4
		c1.7-0.3,3.9-2.2,5.2-3.5c1-1,2.2-0.3,3.5,0.4c1.4,0.8,2.9,1.4,3.4,1.8c1,0.6,4.6,0.8,6.6-0.1c1.5-0.6,3.3-0.1,3.4-1s3-0.2,3.7-2
		c0.7-1.7,0.7-6.6-4.7-6.6c-5.4,0,2.3,1.8,1.8,2.7s-2.5,1.7-3.6,1s-4.9-6.4-10.2-5.3c-2.2,0.4-3,0.8-3.3,1.1
		c-0.2,0.2-0.5,0.2-0.7,0.2c-1.6-0.5-5.8-1.6-8.1,0.8c-2.9,3-4.6,5.3-6.1,6.2c-0.9,0.5-3.2,2.3-4.4,0S71.6,75.3,71.6,75.3z"/>
	<g>
		<path class="st1" d="M93.6,70.2c0,0,0.6,0.4,1.4,1.2c0.8,0.8,1.9,1.9,2.8,3.1c0.2,0.3,0.4,0.6,0.6,1c0.1,0.2,0.2,0.3,0.3,0.5
			c0.1,0.2,0.1,0.3,0.2,0.5l0.1,0.2c0,0.1,0.1,0.1,0.1,0.2c0.1,0.1,0.2,0.2,0.2,0.3c0.2,0.2,0.4,0.4,0.6,0.6
			c0.4,0.3,0.8,0.5,1.1,0.6c0.3,0.1,0.5,0.2,0.5,0.2s-0.2,0-0.5,0c-0.3,0-0.8-0.1-1.4-0.3c-0.3-0.1-0.6-0.3-0.8-0.5
			c-0.1-0.1-0.3-0.2-0.4-0.4c-0.1-0.2-0.2-0.3-0.3-0.5c-0.1-0.1-0.2-0.3-0.2-0.5L97.6,76c-0.2-0.3-0.4-0.6-0.6-0.9
			c-0.9-1.2-1.8-2.4-2.4-3.3C94,70.8,93.6,70.2,93.6,70.2z"/>
	</g>
	<g>
		<path class="st1" d="M100.3,74.8c0,0,0.4,0.1,0.8,0.2c0.5,0.2,1,0.4,1.5,0.7c0.5,0.3,1,0.6,1.4,0.9c0.4,0.3,0.7,0.5,0.7,0.5
			s-0.3,0.1-0.9,0.1c-0.3,0-0.6-0.1-0.8-0.2c-0.3-0.1-0.6-0.2-0.9-0.4c-0.6-0.3-1.1-0.8-1.4-1.1C100.4,75.2,100.3,74.8,100.3,74.8z"
			/>
	</g>
	<g>
		<path class="st1" d="M86.5,71.1c0,0-0.5,0.4-1.2,1c-0.4,0.3-0.7,0.7-1.2,1.1c-0.2,0.2-0.4,0.4-0.6,0.6c-0.2,0.2-0.4,0.4-0.6,0.7
			c-0.2,0.2-0.4,0.5-0.6,0.7c-0.2,0.2-0.4,0.5-0.5,0.7c-0.3,0.5-0.6,0.9-0.8,1.3c-0.1,0.2-0.2,0.4-0.3,0.6c-0.1,0.2-0.1,0.3-0.2,0.5
			c-0.1,0.3-0.2,0.4-0.2,0.4s0-0.2,0-0.4c0-0.3,0-0.7,0.1-1.2c0-0.2,0.1-0.5,0.2-0.8c0.1-0.3,0.2-0.6,0.3-0.8
			c0.3-0.6,0.6-1.1,1.1-1.6c0.4-0.5,0.9-0.9,1.4-1.3c0.5-0.4,1-0.7,1.4-0.9C85.8,71.2,86.5,71.1,86.5,71.1z"/>
	</g>
	<g>
		<path class="st1" d="M90.1,73.9c0,0,0,0.1-0.2,0.3c-0.1,0.2-0.3,0.4-0.5,0.6c-0.4,0.5-1,1-1.6,1.6c-0.3,0.3-0.6,0.5-0.8,0.8
			c-0.3,0.3-0.5,0.5-0.7,0.7c-0.2,0.2-0.4,0.4-0.5,0.6c-0.1,0.1-0.2,0.2-0.2,0.2s0-0.1,0-0.3c0-0.2,0.1-0.5,0.2-0.8
			c0.2-0.6,0.7-1.4,1.4-1.9c0.6-0.6,1.4-1,1.9-1.3c0.3-0.1,0.5-0.2,0.7-0.3C90,74,90.1,73.9,90.1,73.9z"/>
	</g>
</g>
<path class="st2" d="M124.9,182.7c0,0,21.5-14,20.6-44.6c-0.9-30.6-22.6,4.8-22.6,4.8l-18,33.3l-2.3,11.6c0,0,0.6,3.7,2.5,4.5
	c1.9,0.8,8.3-1.2,13.1-4.3C122.9,184.9,124.9,182.7,124.9,182.7z"/>
<path class="st3" d="M128.3,147.7c0,0,14.4-0.4,16.9-12.9s-11.2-12.4-11.2-12.4l-12.6,10.1l-4.9,7.7l0.5,3.9c0,0,3.7,3.3,4.5,3.6
	C122.4,148,128.3,147.7,128.3,147.7z"/>
<path class="st5" d="M46,78.6c0,0-8.1,15.6-13.1,19.6c-6.1,4.9-22.3,27.4-24.5,31.1c-0.2,0.3-0.2,0.6-0.1,0.9c0.3,1,1.1,3.2,1.1,3.7
	c0,0.4-0.9,1-1.9,1.8c-0.6,0.5-1,1.3-1,2.2c0.1,3.9,0.5,15.1,2.8,18.6c2.2,3.2,15.6,24.7,19.7,28.6c4.9,4.6,7.9,9.1,13.6,11.8
	c5.5,2.6,11.7,9.1,43.8,1.3c15-3.7,15.6-7.1,16.8-7.1s6-1.4,6.7-2.2c0.7-0.9,10-49.7,10-49.7s15.8,0.5,17.8-14.2
	S96.8,98.1,94.9,93.9C92.9,89.8,46,78.6,46,78.6z"/>
<path class="st3" d="M37.2,103.5c0,0,13.2,9.3,14.1,10.4s3.2-4.5,3-5.2S44.8,94,45.4,83.4S37.2,103.5,37.2,103.5z"/>
<g>
	<path class="st5" d="M50.5,59.6l2.1,3.1c0,0-1.4,5.3,1.6,9.4c4.6,6.4,7.4,11.4,14.7,11.4c6.8,0.1,7.9,0,9.6,0.5
		c1.4,0.4-0.9,5.2,5.2,4.7c4.3-0.3,4.7-2.7,4.6-4.2c-0.1-0.8,0.4-1.5,1.2-1.7c1-0.3,2.8-1.1,4,0.2c1.2,1.2-0.8,4,3.7,3.2
		c4.5-0.8,3.2-4.9,3.2-4.9l2.1-1.7l3.2,0.2c0,0,6.3,6,5.2,14.3c-1.1,8.3-48.5,13.6-48.5,13.6l-10.8-5.2c0,0-4.6-10.6-4.2-18
		c0.5-7.4-4.7-28.2-4.7-28.2L50.5,59.6z"/>
	<g>
		<path class="st1" d="M100.3,86.9c0,0,0.6,0.6,1.2,1.7c0.3,0.5,0.7,1.2,1,2c0.3,0.7,0.6,1.6,0.7,2.4c0.1,0.4,0.2,0.9,0.2,1.3
			c0.1,0.4,0,0.9,0,1.3c0,0.4-0.1,0.8-0.2,1.2c-0.1,0.4-0.3,0.7-0.4,1c-0.1,0.3-0.4,0.5-0.5,0.7c-0.2,0.2-0.4,0.3-0.5,0.4
			c-0.3,0.2-0.5,0.3-0.5,0.3s0.1-0.2,0.4-0.5c0.1-0.1,0.3-0.3,0.4-0.5c0.1-0.2,0.3-0.4,0.3-0.7c0.1-0.3,0.2-0.6,0.2-0.9
			c0-0.3,0.1-0.7,0.1-1.1c0-0.2,0-0.4,0-0.6c0-0.2,0-0.4-0.1-0.6c0-0.4-0.1-0.8-0.2-1.2c-0.1-0.8-0.4-1.6-0.6-2.3
			c-0.1-0.4-0.2-0.7-0.3-1.1c-0.1-0.3-0.2-0.7-0.3-1C100.5,87.7,100.3,86.9,100.3,86.9z"/>
	</g>
	<g>
		<path class="st1" d="M107.1,89.1c0,0,0.4,0.4,0.8,1.2c0.1,0.2,0.2,0.4,0.3,0.7c0.1,0.2,0.2,0.5,0.2,0.8c0.1,0.3,0.1,0.6,0.2,0.9
			c0,0.3,0,0.6,0,0.9c-0.1,0.6-0.2,1.3-0.5,1.8c-0.1,0.3-0.3,0.5-0.5,0.7c-0.2,0.2-0.4,0.4-0.6,0.5c-0.2,0.1-0.4,0.2-0.5,0.3
			c-0.2,0.1-0.3,0.1-0.4,0.2c-0.2,0.1-0.4,0.1-0.4,0.1s0.1-0.1,0.3-0.3c0.1-0.1,0.2-0.2,0.3-0.3c0.1-0.1,0.2-0.3,0.4-0.4
			c0.1-0.1,0.2-0.3,0.4-0.5c0.1-0.2,0.2-0.4,0.3-0.6c0.1-0.2,0.1-0.5,0.2-0.7c0.1-0.2,0.1-0.5,0.1-0.8c0-0.3,0-0.5,0-0.8
			c0-0.3,0-0.5-0.1-0.8c-0.1-0.5-0.1-1-0.2-1.4C107.2,89.6,107.1,89.1,107.1,89.1z"/>
	</g>
	<g>
		<path class="st1" d="M55.2,76.7c0,0-0.1,0.4-0.3,1.1c-0.2,0.7-0.4,1.6-0.7,2.8c-0.3,1.1-0.6,2.5-0.9,4c-0.1,0.7-0.3,1.5-0.4,2.2
			c-0.1,0.8-0.2,1.5-0.3,2.3c-0.1,0.8-0.2,1.6-0.2,2.3c-0.1,0.8,0,1.5-0.1,2.3c0,0.7,0.1,1.4,0.1,2.1c0.1,0.7,0.2,1.3,0.2,1.9
			c0.1,0.6,0.3,1.1,0.4,1.6c0.1,0.5,0.3,0.8,0.4,1.2c0.3,0.6,0.4,1,0.4,1s-0.2-0.3-0.6-0.9c-0.2-0.3-0.4-0.7-0.6-1.1
			c-0.2-0.5-0.4-1-0.6-1.6c-0.1-0.6-0.3-1.2-0.4-1.9c-0.1-0.7-0.2-1.4-0.2-2.2c0-0.8-0.1-1.5,0-2.3c0-0.8,0.1-1.6,0.2-2.4
			c0.1-0.8,0.2-1.6,0.4-2.4c0.1-0.8,0.3-1.5,0.5-2.3c0.4-1.5,0.8-2.8,1.2-3.9c0.4-1.1,0.8-2,1.1-2.7C55,77.1,55.2,76.7,55.2,76.7z"
			/>
	</g>
	<g>
		<path class="st1" d="M59,89.1c0,0,0,0.1,0,0.2c0,0.1,0,0.3-0.1,0.5c-0.1,0.5-0.2,1.1-0.4,1.9c-0.1,0.8-0.3,1.7-0.4,2.7
			c-0.1,0.5-0.1,1-0.1,1.5c0,0.5,0,1,0,1.5c0.1,0.5,0.1,1,0.2,1.5c0.1,0.5,0.2,1,0.3,1.4c0.1,0.2,0.1,0.5,0.2,0.7
			c0.1,0.2,0.2,0.4,0.3,0.6c0.2,0.4,0.3,0.8,0.5,1.1c0.2,0.3,0.4,0.7,0.5,0.9c0.2,0.3,0.4,0.5,0.5,0.7c0.3,0.4,0.4,0.6,0.4,0.6
			s-0.2-0.2-0.6-0.5c-0.2-0.2-0.4-0.4-0.6-0.6c-0.2-0.2-0.5-0.5-0.7-0.9c-0.3-0.3-0.5-0.7-0.7-1.1c-0.1-0.2-0.2-0.4-0.3-0.6
			c-0.1-0.2-0.2-0.5-0.3-0.7c-0.2-0.5-0.3-1-0.4-1.5c-0.1-0.5-0.2-1.1-0.2-1.6c0-1.1,0-2.2,0.2-3.2c0.2-1,0.4-1.9,0.7-2.7
			c0.3-0.8,0.6-1.4,0.8-1.8c0.1-0.2,0.2-0.4,0.2-0.5C59,89.1,59,89.1,59,89.1z"/>
	</g>
	<g>
		<path class="st1" d="M63.1,93.7c0,0,0,0.1,0.1,0.3c0,0.2,0,0.5,0,0.8c0,0.7-0.2,1.5-0.3,2.3c-0.1,0.4-0.1,0.8-0.1,1.2
			c0,0.4,0,0.7,0.1,1c0.1,0.3,0.1,0.6,0.2,0.7c0,0.2,0.1,0.3,0.1,0.3s-0.1-0.1-0.2-0.2c-0.2-0.1-0.3-0.4-0.5-0.7
			c-0.2-0.3-0.3-0.7-0.4-1.1c-0.1-0.4-0.1-0.9-0.1-1.3c0.1-0.5,0.1-0.9,0.3-1.3c0.1-0.4,0.3-0.8,0.4-1c0.1-0.3,0.3-0.5,0.4-0.7
			C63,93.8,63.1,93.7,63.1,93.7z"/>
	</g>
	<g>
		<path class="st1" d="M69.2,97.1c0,0,0.3-0.7,1-1.6c0.2-0.2,0.4-0.5,0.6-0.7c0.3-0.2,0.5-0.5,0.8-0.7c0.3-0.2,0.6-0.4,1-0.6
			c0.2-0.1,0.4-0.1,0.6-0.2c0.2,0,0.4-0.1,0.6-0.1l0.6,0c0.2,0,0.4,0.1,0.6,0.1l0.3,0.1l0.3,0.1c0.2,0.1,0.4,0.2,0.5,0.3
			c0.3,0.2,0.6,0.5,0.8,0.7c0.2,0.3,0.4,0.5,0.6,0.8c0.1,0.1,0.2,0.2,0.2,0.3c0.1,0.1,0.1,0.2,0.1,0.3c0.1,0.2,0.2,0.4,0.2,0.6
			c0.1,0.3,0.2,0.5,0.2,0.5s-0.1-0.1-0.4-0.4c-0.1-0.1-0.2-0.3-0.4-0.5c-0.1-0.2-0.3-0.4-0.5-0.5c-0.2-0.2-0.4-0.4-0.6-0.6
			c-0.3-0.2-0.5-0.4-0.8-0.5c-0.3-0.1-0.6-0.3-0.9-0.3c-0.2,0-0.3-0.1-0.5-0.1l-0.5,0c-0.2,0-0.3,0.1-0.5,0.1
			c-0.2,0-0.3,0.1-0.5,0.1c-0.2,0.1-0.3,0.1-0.5,0.2c-0.2,0.1-0.3,0.2-0.4,0.2c-0.3,0.1-0.6,0.3-0.8,0.5c-0.2,0.2-0.5,0.4-0.7,0.5
			C69.8,96.6,69.2,97.1,69.2,97.1z"/>
	</g>
</g>
<g>
	<g>
		<path class="st9" d="M70,150.7c0,0,15.2,37.5,16.5,41.6c1.3,4.1,1.7-6.7,1.7-6.7s3.8,4.1,4.5,4.9c0.7,0.8,3-2.3,3-2.3l3.1,2.6
			l1.4-3.6c0,0,3.7,2.3,5.5,2.1s4-10,4-10s0.6,3.9,2.2,4.1c1.5,0.3,3.6-1.5,3.6-1.5s-5.9-37.5-5.8-43.4c0.1-5.9-6.9-10.3-7.3-10.3
			s-16.3-1-16.3-1l-14,5.1L70,150.7z"/>
		<g>
			<path class="st1" d="M95.7,182.3c0,0-0.2-0.8-0.4-2.2c-0.3-1.4-0.6-3.4-1.1-5.8c-0.9-4.8-2-11.1-3.2-17.5
				c-0.6-3.2-1.1-6.4-1.7-9.3c-0.6-3-1.1-5.8-1.6-8.1c-0.5-2.4-1-4.3-1.4-5.7c-0.4-1.4-0.8-2-0.8-2s0.1,0.2,0.3,0.5
				c0.2,0.3,0.5,0.8,0.7,1.5c0.5,1.3,1.2,3.2,1.8,5.6c0.6,2.4,1.3,5.1,1.9,8.1c0.6,3,1.3,6.2,1.8,9.3c0.5,3.2,1.1,6.4,1.6,9.4
				c0.5,3,0.8,5.8,1.2,8.2c0.3,2.4,0.6,4.4,0.7,5.8C95.6,181.5,95.7,182.3,95.7,182.3z"/>
		</g>
		<g>
			<path class="st1" d="M104.3,178.7c0,0-0.1-0.2-0.1-0.5c-0.1-0.3-0.1-0.9-0.2-1.5c-0.1-1.3-0.3-3.1-0.4-5.4
				c-0.1-2.2-0.3-4.8-0.4-7.6c-0.1-2.8-0.3-5.7-0.4-8.7c-0.1-3-0.3-5.9-0.4-8.7c-0.2-2.8-0.3-5.4-0.5-7.6c-0.2-2.2-0.4-4-0.7-5.3
				c-0.1-0.6-0.3-1.1-0.4-1.4c-0.2-0.3-0.3-0.4-0.3-0.4s0.2,0.1,0.4,0.4c0.2,0.3,0.4,0.8,0.6,1.4c0.4,1.3,0.8,3.1,1.1,5.3
				c0.3,2.2,0.6,4.8,0.8,7.6c0.2,2.8,0.4,5.7,0.6,8.7c0.1,3,0.2,5.9,0.3,8.7c0.1,2.8,0.1,5.4,0.1,7.6c0,2.2,0,4.1,0.1,5.4
				c0,0.6,0,1.2,0,1.5C104.2,178.5,104.3,178.7,104.3,178.7z"/>
		</g>
		<g>
			<path class="st1" d="M110.9,175.1c0,0,0.1-0.5,0.3-1.1c0.2-0.7,0.5-1.5,0.9-2.3c0.4-0.8,0.7-1.6,1-2.2c0.1-0.3,0.2-0.6,0.3-0.8
				c0.1-0.2,0.1-0.3,0.1-0.3s0,0.1,0.1,0.3c0,0.2,0.1,0.5,0.1,0.9c0,0.7-0.3,1.7-0.7,2.5c-0.4,0.9-0.9,1.7-1.3,2.2
				C111.2,174.8,110.9,175.1,110.9,175.1z"/>
		</g>
		<g>
			<path class="st1" d="M80.4,140.7c0,0,0.2,0.6,0.5,1.8c0.3,1.1,0.7,2.7,1.1,4.7c0.4,1.9,1,4.2,1.5,6.6c0.5,2.4,1,5,1.5,7.6
				c0.5,2.6,1,5.2,1.4,7.7c0.4,2.4,0.8,4.7,1.1,6.7c0.3,2,0.5,3.6,0.6,4.8c0.1,0.6,0.1,1,0.1,1.3c0,0.3,0,0.5,0,0.5s0-0.2-0.1-0.5
				c0-0.3-0.1-0.8-0.2-1.3c-0.2-1.1-0.6-2.8-1-4.7c-0.4-1.9-0.9-4.2-1.4-6.6c-0.5-2.4-1-5-1.5-7.6c-0.5-2.6-1-5.2-1.4-7.6
				c-0.4-2.4-0.8-4.7-1.2-6.7c-0.3-2-0.6-3.6-0.8-4.7C80.5,141.4,80.4,140.7,80.4,140.7z"/>
		</g>
		<g>
			<path class="st1" d="M72.2,146.3c0,0,0.2,0.3,0.5,0.7c0.3,0.5,0.7,1.2,1.2,2c0.9,1.7,2.1,4,3.2,6.3c1.1,2.3,2,4.7,2.6,6.6
				c0.3,0.9,0.5,1.7,0.7,2.2c0.1,0.6,0.2,0.9,0.2,0.9s-0.1-0.3-0.4-0.8c-0.2-0.5-0.6-1.2-1-2.1c-0.8-1.7-1.9-4-3-6.4
				c-1.1-2.3-2.1-4.7-2.8-6.5C72.6,147.6,72.2,146.3,72.2,146.3z"/>
		</g>
	</g>
	<g>
		<g>
			<path class="st10" d="M66.6,135.8c0,0,0.4,0.3,0.9,0.7c0.5,0.4,1.2,1,1.8,1.6c0.6,0.6,1.3,1.2,1.8,1.6c0.3,0.2,0.5,0.3,0.7,0.3
				c0.2,0,0.3,0,0.3,0c0,0-0.1,0.1-0.3,0.2c-0.2,0.1-0.6,0.1-0.9,0c-0.7-0.2-1.6-0.7-2.2-1.3c-0.7-0.6-1.2-1.4-1.6-2
				C66.7,136.2,66.6,135.8,66.6,135.8z"/>
		</g>
		<g>
			<path class="st10" d="M62.9,140.5c0,0,0.6,0.7,1.1,1.9c0.2,0.6,0.5,1.3,0.8,2c0.2,0.4,0.4,0.7,0.6,1c0,0.1,0.1,0.2,0.1,0.2
				c0,0,0.1,0.1,0.1,0.1c0.1,0-0.2-0.1,0,0l0.6,0.2c0.4,0.2,0.8,0.3,1.1,0.3c0.4,0,0.7,0,0.8-0.1c0.1-0.1,0.2-0.5,0.2-0.7
				c0-0.3-0.1-0.6-0.2-0.9c-0.2-0.6-0.5-1.1-0.6-1.4c-0.2-0.3-0.3-0.5-0.3-0.5s0.2,0.1,0.4,0.4c0.3,0.3,0.6,0.7,1,1.3
				c0.2,0.3,0.3,0.6,0.4,1.1c0.1,0.4,0.1,1-0.3,1.4c-0.4,0.5-1.1,0.5-1.5,0.4c-0.5-0.1-0.9-0.2-1.4-0.4l-0.6-0.3
				c0,0-0.3-0.2-0.3-0.2c-0.1-0.1-0.1-0.1-0.1-0.2c-0.1-0.1-0.1-0.2-0.2-0.3c-0.2-0.4-0.4-0.8-0.5-1.2c-0.3-0.8-0.5-1.6-0.6-2.2
				C63.1,141.3,62.9,140.5,62.9,140.5z"/>
		</g>
		<path class="st11" d="M80.7,98.6c0,0,2.5-12.3,12.3-8.9s5.5,7.9,5.5,7.9s3.7-2,6.5-1.7c0.6,0.1,1,0.1,1.4,0
			c1.3-0.1,1.6-0.8,3.7-0.9c1.6,0,2-2.2,3.9-0.8c1.9,1.4,2.5,2.4,2.5,2.4s1.1-1.3,2.9-0.1c1.7,1.1,0.7,2,2.3,2.1s2.3,2,2.6,2.9
			s4.9-0.7,4.3,3.3c-0.2,1.3-0.6,1.8-0.9,2c-0.3,0.2-0.5,0.5-0.5,0.9c0.1,1.2,0.1,3.6-1.9,4.9c-2.7,1.9,0.6,4.9-0.6,8
			c-1.1,3.2,1.6,0.4,2.1,2.7c0.6,2.3-2.3,4.4-2.3,4.4s4.2,0.6,4.1,4.4c-0.1,3.9-3.2-1.4-4.1,0s-0.9,3.7-2.9,5.6s-3.2,5.9-3.2,5.9
			l-3.3,2.7l-3.4-2.7c0,0-3-6.3-2.4-7.9c0.6-1.6-1,5.2-4.6,3s-6.7-6.3-6.7-6.3s-2.2,0.7-2.5,1.9s-0.2,2.1-2.9,2.7s-6-2.1-5.7-4
			c0.3-1.9-2.7,0.7-3.9-0.7c-1.1-1.4,0.6,3.2-0.7,3.9c-1.3,0.7-0.4,3.6-1.5,3.9s-4.1-1.3-4.4-3.6s0.7,3.7-3.4,5.3
			c-1.3,0.5,2.9,5.7-2.6,8s-6.6-1.9-6.6-1.9s-3.9-2.3-4.3-8.7c-0.1-2.3-2.4,0.1-4-2c-1.6-2.1,0-4.6,0-4.6s-5.4,0.5-7.9-4.4
			c-0.4-0.8-2.6,0.7-4.4,1.3c-1.9,0.6-3.2-1.6-1.5-3.4c1.7-1.9,3.8-2.1,3.8-2.1s-4.8-0.8-4.6-4.1c0.3-3.3,3.5-3.3,3.5-3.3
			s-0.4-3.2,0.7-3.7s-2.9-2.7-1.6-5.3s3.6-3.2,3.6-3.2s0.4-1.4,2.6-1.3c2.1,0.1,4,0.9,6,1c2,0.1,1,2.1,1,2.1s2.7,0.1,4-1.1
			c1.3-1.3-3.6-3.2,1.3-6.6s10.7-1.1,10.7-1.1s2-2.3,5.3,1.1C79.7,100.3,80.4,99.4,80.7,98.6z"/>
		<g>
			<path class="st10" d="M106,96.9c0,0-0.1,0.2-0.1,0.6c0,0.4,0,1,0.3,1.5c0.1,0.1,0.2,0.2,0.3,0.2c0.1,0,0.3,0.1,0.4,0
				c0.3,0,0.8-0.1,1.2-0.2c0.2,0,0.5-0.1,0.8,0c0.1,0,0.3,0,0.5,0.1c0.1,0,0.2,0.1,0.2,0.1l0.1,0.1l0.1,0l0,0c0,0-0.1-0.1-0.1,0l0,0
				l0,0c0.1,0.1,0.6,0.1,1,0c0.9-0.1,1.8-0.3,2.8-0.3c0.2,0,0.5,0,0.7,0.1c0.2,0,0.5,0.1,0.6,0.2c0.1,0,0.2,0.1,0.3,0.1
				c0,0,0.1,0,0.1,0c0.1,0,0.2-0.1,0.3-0.2c0.2-0.2,0.4-0.4,0.5-0.7c0.1-0.2,0.2-0.5,0.3-0.7c0.1-0.4,0.2-0.6,0.2-0.6s0,0.2,0,0.7
				c0,0.2,0,0.5-0.1,0.8c-0.1,0.3-0.2,0.6-0.5,1c-0.1,0.2-0.3,0.3-0.6,0.4c-0.1,0.1-0.3,0.1-0.4,0.1c-0.2,0-0.2,0-0.3,0
				c-0.4-0.1-0.7-0.1-1.1-0.1c-0.8,0.1-1.7,0.3-2.7,0.4c-0.2,0-0.5,0-0.8,0c-0.1,0-0.3,0-0.5-0.1c-0.1,0-0.2-0.1-0.3-0.1
				c-0.1,0-0.1-0.1-0.2-0.1l0,0l0,0l-0.1-0.1l0,0l0,0l0,0c0,0,0,0-0.1,0c0,0-0.1,0-0.2-0.1c-0.2,0-0.4,0-0.6,0c-0.4,0-0.9,0.1-1.3,0
				c-0.2,0-0.5-0.1-0.7-0.2c-0.3-0.2-0.4-0.3-0.5-0.5c-0.2-0.4-0.2-0.8-0.1-1.1c0-0.3,0.1-0.6,0.2-0.8C105.8,97.1,106,96.9,106,96.9
				z"/>
		</g>
		<g>
			<path class="st10" d="M117.3,97.6c0,0,0.3,0.4,0.7,1.1c0.3,0.7,0.7,1.6,0.8,2.6c0,0.3,0,0.5,0.1,0.8c0,0.1,0,0.3,0,0.4
				c0,0.1,0,0.2,0,0.3c0,0.4,0.1,0.7,0.2,1c0.2,0.2,0.4,0.4,0.6,0.5c0.2,0.1,0.3,0.1,0.3,0.1s-0.1,0.1-0.4,0.1c-0.2,0-0.6,0-1-0.3
				c-0.4-0.3-0.6-0.7-0.7-1.3c0-0.1,0-0.2,0-0.4c0-0.2,0-0.2,0-0.4c0-0.2,0-0.5-0.1-0.7c-0.1-0.9-0.3-1.9-0.4-2.6
				C117.3,98.1,117.3,97.6,117.3,97.6z"/>
		</g>
		<g>
			<path class="st10" d="M115.4,101c0,0,0.1,0.3,0.1,0.7c0,0.4-0.1,0.9-0.3,1.4c-0.2,0.5-0.5,0.9-0.9,1.1c-0.2,0.1-0.4,0.2-0.5,0.2
				c-0.1,0-0.2,0-0.2,0s0-0.1,0.1-0.2c0-0.1,0.1-0.2,0.2-0.4c0.1-0.3,0.3-0.8,0.4-1.2c0.2-0.4,0.4-0.8,0.7-1.1
				C115.1,101.1,115.4,101,115.4,101z"/>
		</g>
		<g>
			<path class="st10" d="M110.7,101c0,0,0.5,0.4,1.2,1c0.7,0.7,1.5,1.6,2.2,2.7c0.3,0.5,0.6,1.1,0.9,1.7c0.2,0.6,0.4,1.1,0.5,1.6
				c0.1,0.2,0.1,0.5,0.1,0.7c0,0.2,0,0.4,0,0.5c0,0.3-0.1,0.4-0.1,0.4s0-0.2-0.1-0.4c-0.1-0.3-0.2-0.6-0.4-1
				c-0.2-0.4-0.4-0.9-0.7-1.4c-0.3-0.5-0.6-1-0.9-1.5c-0.3-0.5-0.6-1-0.9-1.5c-0.3-0.5-0.6-1-0.8-1.4
				C110.9,101.5,110.7,101,110.7,101z"/>
		</g>
		<g>
			<path class="st10" d="M123.9,102.6c0,0,0.1,0.3,0.2,0.7c0.1,0.2,0.1,0.4,0.2,0.7c0.1,0.2,0.1,0.5,0.2,0.7c0,0.2,0.1,0.4,0.2,0.6
				c0.1,0.2,0.2,0.3,0.3,0.5c0.1,0.1,0.2,0.3,0.3,0.3c0.1,0.1,0.2,0.1,0.2,0.1c0,0-0.3,0.2-0.8,0c-0.2-0.1-0.5-0.2-0.7-0.5
				c-0.1-0.1-0.2-0.2-0.3-0.4c-0.1-0.1-0.1-0.3-0.2-0.4c-0.2-0.6-0.1-1.2,0-1.6C123.7,102.9,123.9,102.6,123.9,102.6z"/>
		</g>
		<g>
			<path class="st10" d="M119.9,105.2c0,0,0.2,0.3,0.3,0.9c0.1,0.5,0,1.3-0.5,2c-0.1,0.2-0.2,0.3-0.3,0.5c-0.1,0.2-0.3,0.3-0.4,0.4
				c-0.1,0.1-0.3,0.2-0.4,0.3c-0.1,0.1-0.3,0.1-0.4,0.2c-0.3,0.1-0.5,0.1-0.7,0.1c-0.2,0-0.3,0-0.3,0s0.1-0.1,0.2-0.2
				c0.1-0.1,0.3-0.3,0.4-0.4c0.2-0.2,0.4-0.4,0.5-0.6c0.2-0.2,0.4-0.5,0.5-0.7c0.2-0.2,0.3-0.5,0.4-0.8c0.1-0.3,0.2-0.5,0.3-0.8
				C119.8,105.6,119.9,105.2,119.9,105.2z"/>
		</g>
		<g>
			<path class="st10" d="M125.5,107.8c0,0-0.2,0.3-0.5,0.7c-0.1,0.2-0.3,0.4-0.4,0.7c-0.1,0.3-0.3,0.5-0.4,0.8
				c-0.1,0.3-0.2,0.5-0.4,0.8c-0.1,0.3-0.2,0.5-0.2,0.8c-0.1,0.2-0.1,0.4-0.2,0.6c0,0.1-0.1,0.2-0.1,0.2s0-0.1-0.1-0.2
				c-0.1-0.1-0.2-0.4-0.2-0.6c0-0.1-0.1-0.3-0.1-0.4c0-0.2,0-0.3,0-0.5c0-0.2,0-0.4,0.1-0.5c0.1-0.2,0.1-0.4,0.2-0.5
				c0.3-0.7,0.9-1.2,1.4-1.4C125.2,107.9,125.5,107.8,125.5,107.8z"/>
		</g>
		<g>
			<path class="st10" d="M119.1,109.5c0,0,0.2-0.2,0.5-0.3c0.3-0.1,0.8-0.2,1.2-0.1c0.2,0.1,0.4,0.2,0.6,0.3
				c0.2,0.1,0.3,0.3,0.4,0.5c0.2,0.3,0.1,0.6,0.1,0.6c0,0-0.1,0-0.2,0c-0.1,0-0.2-0.1-0.4-0.1c-0.1,0-0.3-0.1-0.4-0.1
				c-0.1,0-0.3-0.1-0.4-0.1c-0.3-0.1-0.6-0.2-0.9-0.3C119.4,109.7,119.1,109.5,119.1,109.5z"/>
		</g>
		<g>
			<path class="st10" d="M99,99.5c0.7,0,1.4,0,2.1,0.2c0.7,0.2,1.3,0.5,1.8,1.1c0.2,0.3,0.4,0.6,0.6,0.8c0.2,0.2,0.5,0.4,0.8,0.6
				c0.6,0.3,1.3,0.4,2,0.4l0,0l0,0c0.6,0.4,1,1,1.4,1.6c0.2,0.3,0.3,0.6,0.4,1c0.1,0.3,0.2,0.7,0.3,1c0,0.3,0.1,0.7,0.1,1
				c0,0.4,0,0.7,0,1.1c-0.1,0.7-0.2,1.4-0.4,2c-0.1,0.3-0.2,0.7-0.3,1c-0.1,0.2-0.1,0.3-0.3,0.6l-0.1,0.1c0,0,0,0-0.1,0.1
				c-0.1,0-0.2,0-0.3,0c-0.1,0-0.2-0.1-0.3-0.2c-0.1-0.1-0.1-0.2-0.1-0.3l0-0.1c0,0,0.1-0.2,0.2-0.2c0.2-0.1,0.3-0.1,0.5,0
				c0.2,0.1,0.1,0.1,0.1,0.1l0,0.1c0,0.1,0,0.1,0,0.1l0,0.2l0,0.1l0,0.1l0,0l0,0l0,0.1l0,0.3c0,0.2-0.2,0.6-0.3,0.7
				c-0.2,0.4-0.5,0.6-0.8,0.8c-1.2,0.8-2.5,1.3-3.8,1.8l0,0l-0.1,0c-1.2,0.1-2.3,0.1-3.5-0.1c-0.6-0.1-1.2-0.2-1.7-0.5
				c-0.3-0.1-0.6-0.3-0.8-0.6l-0.6-0.6c-0.8-0.8-1.6-1.6-2.4-2.4c-0.7-0.9-1.4-1.8-1.7-3c-0.2-0.6-0.2-1.2-0.1-1.7
				c0-0.6,0.1-1.1,0.3-1.7c0.2-0.5,0.4-1.1,0.8-1.5c0.4-0.4,0.9-0.8,1.4-0.9c0.6-0.1,1.2,0,1.7,0.2c0.3,0.1,0.5,0.1,0.8,0
				c0.3-0.1,0.4-0.4,0.4-0.6c0.1-0.5,0.2-1.1,0.4-1.6C97.9,99.9,98.4,99.6,99,99.5z M99,99.5c-0.5,0.1-1.1,0.5-1.3,1
				c-0.2,0.5-0.3,1.1-0.4,1.6c-0.1,0.3-0.2,0.6-0.5,0.7c-0.3,0.1-0.6,0.1-0.8,0c-0.5-0.1-1.1-0.3-1.6-0.1c-0.5,0.1-1,0.5-1.3,0.9
				c-0.3,0.4-0.5,0.9-0.7,1.5c-0.1,0.5-0.2,1.1-0.2,1.6c0,0.5,0,1.1,0.2,1.6c0.3,1,1,1.9,1.8,2.7c0.8,0.8,1.6,1.5,2.4,2.3l0.6,0.6
				c0.2,0.1,0.4,0.3,0.6,0.4c0.4,0.2,1,0.3,1.5,0.4c1.1,0.1,2.2,0.2,3.2,0.1l-0.1,0c1.2-0.4,2.5-0.9,3.6-1.6
				c0.2-0.2,0.5-0.4,0.6-0.6c0.1-0.1,0.1-0.1,0.1-0.2l0-0.3l0,0l0,0c0,0,0-0.1,0,0.1l0,0l0,0l0-0.1l0-0.1l0-0.1c0,0,0,0,0,0l0.1,0.1
				c0.1,0.1,0.2,0.1,0.4,0c0.1-0.1,0.1-0.2,0.1-0.2l0,0c0-0.1,0-0.1,0-0.2c0-0.1-0.1-0.1-0.2-0.2c-0.1,0-0.2,0-0.2,0l-0.1,0l0,0
				c0,0,0.1-0.2,0.2-0.3c0.1-0.3,0.2-0.6,0.3-0.9c0.2-0.6,0.4-1.3,0.5-1.9c0-0.3,0.1-0.6,0.1-1c0-0.3,0-0.7,0-1c0-0.3-0.1-0.6-0.2-1
				c-0.1-0.3-0.2-0.6-0.4-0.9c-0.3-0.6-0.7-1.1-1.2-1.5l0.1,0c-0.7,0-1.4-0.2-2-0.5c-0.3-0.2-0.6-0.4-0.8-0.6
				c-0.2-0.3-0.4-0.6-0.6-0.9c-0.4-0.6-1-0.9-1.7-1.1C100.4,99.5,99.7,99.4,99,99.5z"/>
		</g>
		<g>
			<path class="st10" d="M96,110.1c0,0,0-0.3,0.1-0.6c0.1-0.3,0.4-0.7,0.7-1c0.4-0.3,0.8-0.5,1.2-0.5c0.4,0,0.6,0.2,0.6,0.2
				s-0.2,0.2-0.4,0.4c-0.1,0.1-0.2,0.2-0.4,0.3c-0.1,0.1-0.3,0.2-0.4,0.4c-0.3,0.2-0.6,0.5-0.9,0.6C96.3,110,96,110.1,96,110.1z"/>
		</g>
		<g>
			<path class="st10" d="M100.1,106.9c0,0,0.2-0.2,0.4-0.4c0.3-0.2,0.7-0.4,1.2-0.4c0.2,0,0.5,0,0.7,0.1c0.2,0,0.4,0.1,0.6,0.3
				c0.2,0.1,0.3,0.2,0.3,0.3c0.1,0.1,0.1,0.2,0.1,0.2s-0.1,0-0.2,0c-0.1,0-0.2,0-0.4,0c-0.3,0-0.7,0.1-1,0.1c-0.4,0-0.8,0-1.1,0
				C100.4,107,100.1,106.9,100.1,106.9z"/>
		</g>
		<g>
			<path class="st10" d="M102.4,110.9c0,0-0.2-0.2-0.3-0.5c-0.2-0.3-0.3-0.8-0.3-1.2c0-0.5,0.1-0.9,0.2-1.3c0.2-0.3,0.4-0.5,0.4-0.5
				c0,0,0.1,0.2,0.2,0.6c0.1,0.3,0.2,0.7,0.2,1.2c0,0.4,0,0.9-0.1,1.2C102.5,110.6,102.4,110.9,102.4,110.9z"/>
		</g>
		<g>
			<path class="st10" d="M94.5,105.2c0,0,0.1-0.2,0.4-0.4c0.2-0.2,0.6-0.4,1.1-0.4c0.2,0,0.4,0,0.6,0.1c0.2,0.1,0.4,0.2,0.5,0.3
				c0.3,0.2,0.3,0.5,0.3,0.5s-0.2,0-0.5,0.1c-0.1,0-0.3,0-0.4,0.1c-0.1,0-0.3,0-0.5,0c-0.3,0-0.7,0-1,0
				C94.7,105.3,94.5,105.2,94.5,105.2z"/>
		</g>
		<g>
			<path class="st10" d="M97,107.4c0,0,0-0.2-0.1-0.5c0-0.3-0.1-0.9,0-1.5c0-0.3,0.1-0.6,0.3-1c0.2-0.3,0.4-0.7,0.8-1
				c0.4-0.3,0.9-0.4,1.4-0.4c0.5,0,0.8,0.1,1.2,0.2c0.8,0.1,1.5,0.2,2.3,0.5c0.4,0.1,0.8,0.4,1,0.7c0.3,0.3,0.4,0.5,0.6,0.7
				c0.4,0.4,0.8,0.5,1.1,0.4c0.3,0,0.5-0.1,0.5-0.1s-0.2,0.1-0.5,0.3c-0.2,0.1-0.4,0.1-0.7,0.1c-0.3,0-0.6-0.1-0.9-0.3
				c-0.3-0.2-0.5-0.4-0.7-0.6c-0.2-0.2-0.5-0.3-0.8-0.4c-0.6-0.1-1.4-0.2-2.2-0.3c-0.4-0.1-0.8-0.2-1.1-0.2c-0.3-0.1-0.6,0-0.8,0.1
				c-0.2,0.1-0.4,0.4-0.6,0.6c-0.1,0.3-0.3,0.5-0.4,0.8c-0.2,0.5-0.3,1-0.4,1.3C97.1,107.2,97,107.4,97,107.4z"/>
		</g>
		<g>
			<path class="st10" d="M83.9,98.4c0-0.9,0.3-1.9,0.8-2.7c0.1-0.2,0.3-0.4,0.5-0.6c0.2-0.2,0.4-0.4,0.6-0.5
				c0.4-0.3,0.9-0.5,1.4-0.6c0.3-0.1,0.5,0,0.8-0.1c0.3,0,0.5,0,0.7,0c0.5,0,1,0.1,1.4,0.2c0.5,0.1,0.9,0.3,1.4,0.5
				c0.2,0.1,0.4,0.2,0.6,0.4c0.2,0.2,0.4,0.3,0.6,0.6l0,0c0.3,0.4,0.7,0.9,1.2,1.3c0.4,0.4,0.9,0.7,1.5,0.8c-0.3,0.1-0.6,0.1-0.9,0
				c-0.3-0.1-0.6-0.2-0.9-0.4c-0.6-0.3-1-0.7-1.5-1.2l0,0c-0.1-0.1-0.3-0.2-0.4-0.3c-0.2-0.1-0.4-0.2-0.5-0.3
				c-0.4-0.2-0.8-0.3-1.2-0.4c-0.4-0.1-0.9-0.2-1.3-0.2c-0.2,0-0.5-0.1-0.7-0.1c-0.2,0-0.4,0-0.6,0c-0.2,0-0.4,0.1-0.6,0.1
				c-0.2,0-0.4,0.2-0.6,0.2c-0.2,0.1-0.4,0.2-0.5,0.4c-0.2,0.1-0.3,0.3-0.5,0.4C84.7,96.7,84.2,97.5,83.9,98.4z"/>
		</g>
		<g>
			<path class="st10" d="M86,102.6c-0.4-0.5-0.8-1-1.3-1.4c-0.2-0.2-0.4-0.5-0.7-0.7c-0.1-0.1-0.3-0.2-0.3-0.4c0-0.2,0-0.4,0-0.5
				c0.2-0.7,0.6-1.2,1.2-1.6c0.3-0.2,0.6-0.4,0.9-0.5c0.3-0.1,0.7-0.1,1-0.1c0.6,0,1.3-0.1,1.9-0.1c0.7,0,1.3,0,2,0.2
				c0.3,0.1,0.7,0.3,0.9,0.7c0.1,0.1,0.1,0.2,0.1,0.3c0,0.1,0.1,0.2,0.1,0.3c0,0.2,0,0.4,0,0.6c-0.1,0.4-0.2,0.7-0.4,1
				c-0.2,0.3-0.4,0.6-0.6,0.9l0,0c-0.5,0.5-1.1,1-1.5,1.6c-0.2,0.3-0.4,0.6-0.4,0.9c-0.1,0.2-0.1,0.3-0.1,0.5c0,0.2,0,0.3,0.1,0.4
				c0.1,0.2,0.1,0.4,0.1,0.6c0,0.2,0.1,0.4,0.1,0.6c0,0.4,0,0.8,0,1.2c0,0.8-0.2,1.6-0.3,2.4l0-0.3c0.3,0.8,0.5,1.6,0.6,2.4
				c0.1,0.4,0.1,0.9,0.1,1.3c0,0.1,0,0.2-0.1,0.4c0,0.1-0.1,0.3-0.1,0.3c0,0.1-0.1,0.2-0.1,0.3c0,0,0,0.1,0,0.2
				c0,0.7,0.4,1.5,0.5,2.3c0.1,0.4,0.1,0.9,0,1.4c-0.1,0.5-0.3,0.9-0.5,1.3c-0.3,0.4-0.5,0.7-0.8,1c-0.3,0.3-0.6,0.6-0.9,0.9
				c-0.6,0.5-1.3,1-2,1.5c-0.4,0.2-0.7,0.4-1.2,0.6c-0.1,0.1-0.5,0.1-0.7,0.1c-0.2,0-0.5-0.1-0.7-0.1c-0.9-0.3-1.5-0.8-2.2-1.3
				l-0.4-0.3l0.4-0.2c0.8-0.4,1.6-0.9,2.3-1.4c0.4-0.3,0.7-0.5,1-0.8c0.2-0.2,0.3-0.3,0.5-0.5c0.1-0.2,0.3-0.3,0.3-0.5
				c0-0.1,0.1-0.2,0.1-0.3l0-0.1c0,0,0,0,0-0.1l0,0l0-0.2c0-0.1,0-0.3,0.1-0.4l0.1-0.3c0.2-0.4,0.5-0.8,0.8-1.1
				c0.6-0.7,1.3-1.3,2.1-1.8c-0.7,0.6-1.3,1.3-1.9,2c-0.3,0.4-0.5,0.7-0.7,1.1c-0.1,0.2-0.1,0.4-0.1,0.6l0,0.2l0,0.2
				c0,0.2,0,0.3-0.1,0.4c-0.1,0.3-0.2,0.5-0.4,0.7c-0.1,0.2-0.3,0.4-0.5,0.5c-0.3,0.3-0.7,0.6-1.1,0.9c-0.7,0.6-1.5,1.1-2.3,1.6
				l0-0.5c0.6,0.5,1.3,0.9,2,1.1c0.2,0,0.3,0.1,0.5,0.1c0.2,0,0.2,0,0.4-0.1c0.3-0.1,0.7-0.4,1-0.6c0.7-0.4,1.3-0.9,1.9-1.4
				c0.3-0.3,0.6-0.5,0.8-0.8c0.3-0.3,0.5-0.6,0.7-0.9c0.4-0.6,0.5-1.3,0.3-2c-0.1-0.4-0.2-0.7-0.3-1.1c-0.1-0.4-0.2-0.8-0.3-1.3
				c0-0.1,0-0.3,0-0.4c0-0.2,0.1-0.2,0.1-0.3c0.1-0.2,0-0.2,0.1-0.3c0-0.1,0-0.2,0-0.2c0-0.3,0-0.7-0.1-1.1
				c-0.1-0.8-0.3-1.5-0.6-2.3l0-0.1l0-0.1c0.2-0.7,0.3-1.5,0.3-2.2c0-0.4,0-0.7,0-1.1c0-0.2,0-0.4-0.1-0.5c0-0.1-0.1-0.4-0.1-0.5
				c-0.1-0.2-0.1-0.5-0.1-0.7c0-0.2,0-0.5,0.1-0.7c0.1-0.4,0.3-0.8,0.6-1.2c0.5-0.7,1-1.3,1.7-1.8l0,0c0.4-0.4,0.8-0.9,0.9-1.4
				c0-0.1,0-0.2,0-0.3c0,0,0-0.1,0-0.1c0-0.1-0.1-0.2-0.1-0.2c-0.1-0.2-0.3-0.3-0.6-0.4c-0.5-0.2-1.2-0.3-1.8-0.3
				c-0.6,0-1.3,0-1.9,0c-0.3,0-0.6,0-0.9,0.1c-0.3,0.1-0.6,0.2-0.8,0.3c-0.5,0.3-0.9,0.8-1.1,1.4c0,0.1-0.1,0.3-0.1,0.4
				c0,0.1,0,0.2,0.2,0.3c0.3,0.2,0.5,0.5,0.7,0.7C85.2,101.6,85.6,102.1,86,102.6z"/>
		</g>
		<g>
			<path class="st10" d="M72.2,104.9c0,0,0-0.3,0.1-0.9c0.1-0.3,0.1-0.6,0.3-1c0.2-0.4,0.3-0.8,0.7-1.2c0.3-0.4,0.8-0.8,1.5-1
				c0.6-0.1,1.3-0.1,2,0.1c0.3,0.1,0.6,0.2,0.9,0.3c0.3,0.1,0.6,0.2,0.9,0.2c0.6,0.1,1.2,0.2,1.9,0.2c0.4,0,0.8,0.1,1.1,0.4
				c0.3,0.2,0.6,0.5,0.8,0.7c0.5,0.5,0.9,1,1.2,1.6c0.3,0.5,0.6,1.2,0.8,1.7c0.2,0.6,0.3,1.1,0.3,1.6c0.1,1,0,1.9-0.1,2.5
				c-0.1,0.6-0.3,0.9-0.3,0.9s0-0.3,0.1-0.9c0-0.6,0-1.4-0.2-2.3c-0.1-0.5-0.3-1-0.5-1.5c-0.2-0.5-0.5-1-0.8-1.5
				c-0.3-0.5-0.8-1-1.2-1.4c-0.2-0.2-0.4-0.4-0.6-0.5c-0.2-0.1-0.4-0.2-0.7-0.2c-0.6-0.1-1.4-0.1-2-0.3c-0.3-0.1-0.7-0.2-1-0.3
				c-0.3-0.1-0.6-0.2-0.9-0.3c-0.5-0.2-1.1-0.3-1.6-0.2c-0.5,0.1-0.9,0.3-1.2,0.6c-0.3,0.3-0.6,0.7-0.8,1c-0.2,0.3-0.3,0.7-0.4,0.9
				C72.2,104.6,72.2,104.9,72.2,104.9z"/>
		</g>
		<g>
			<path class="st10" d="M74.2,109.1c0,0-0.2-0.7,0-1.8c0.1-0.6,0.2-1.2,0.6-1.9c0.2-0.3,0.4-0.7,0.9-0.9c0.4-0.2,0.7-0.3,1.1-0.4
				c1.5-0.4,3-0.4,4.1,0c0.5,0.2,1,0.4,1.2,0.6c0.1,0.1,0.2,0.2,0.3,0.3c0.1,0.1,0.1,0.1,0.1,0.1s-0.2-0.1-0.5-0.2
				c-0.3-0.1-0.7-0.2-1.2-0.2c-1-0.1-2.4,0-3.7,0.4c-0.3,0.1-0.6,0.2-0.9,0.3c-0.2,0.1-0.4,0.3-0.6,0.5c-0.3,0.5-0.6,1.1-0.7,1.5
				C74.4,108.4,74.2,109.1,74.2,109.1z"/>
		</g>
		<g>
			<path class="st10" d="M76.7,102.6c0,0-0.4,0.6-1.1,1.2c-0.3,0.3-0.8,0.7-1.3,1.1c-0.3,0.2-0.5,0.4-0.8,0.5
				c-0.3,0.2-0.7,0.2-1,0.3c-0.6,0.2-1.2,0.4-1.7,0.6c-0.5,0.2-1,0.5-1.3,0.7c-0.4,0.3-0.6,0.5-0.8,0.7c-0.2,0.2-0.3,0.3-0.3,0.3
				s0-0.2,0.1-0.4c0.1-0.3,0.3-0.7,0.6-1.1c0.3-0.4,0.8-0.8,1.3-1.1c0.5-0.3,1.2-0.6,1.8-0.7c0.3-0.1,0.6-0.2,0.8-0.2
				c0.2-0.1,0.5-0.3,0.7-0.4c0.5-0.3,1-0.6,1.4-0.8C76.2,102.9,76.8,102.7,76.7,102.6z"/>
		</g>
		<g>
			<path class="st10" d="M63.8,105.5c0,0,0-0.2,0.1-0.4c0.1-0.3,0.2-0.6,0.4-1.1c0.1-0.2,0.2-0.4,0.4-0.7c0.2-0.2,0.3-0.5,0.6-0.7
				c0.2-0.2,0.5-0.4,0.8-0.6c0.3-0.2,0.6-0.3,0.9-0.4c0.3-0.1,0.7-0.1,1-0.2c0.3,0,0.7,0.1,1,0.1c0.3,0.1,0.6,0.2,0.9,0.3
				c0.3,0.1,0.5,0.3,0.7,0.4c0.4,0.2,0.7,0.6,0.9,0.7c0.2,0.2,0.3,0.3,0.3,0.3s-0.1-0.1-0.4-0.1c-0.3-0.1-0.6-0.3-1-0.4
				c-0.2-0.1-0.4-0.1-0.7-0.2c-0.2,0-0.5-0.1-0.8-0.1c-0.3,0-0.5,0-0.8,0c-0.3,0-0.5,0.1-0.8,0.2c-0.3,0.1-0.5,0.2-0.7,0.3
				c-0.2,0.1-0.5,0.3-0.7,0.4c-0.2,0.2-0.4,0.3-0.6,0.5c-0.2,0.2-0.3,0.4-0.5,0.5c-0.3,0.3-0.5,0.6-0.7,0.8
				C63.9,105.3,63.8,105.5,63.8,105.5z"/>
		</g>
		<g>
			<path class="st10" d="M61.1,105.9c0,0,0.2,0.1,0.7,0.2c0.4,0.1,1,0.3,1.7,0.2c0.4,0,0.9,0,1.3,0.1c0.4,0.1,0.9,0.3,1.4,0.5
				c0.4,0.2,0.9,0.5,1.3,0.9c0.2,0.2,0.4,0.4,0.5,0.6l0.2,0.4c0.1,0.1,0.1,0.2,0.2,0.3c0.1,0.3,0.2,0.6,0.2,0.9
				c0,0.3-0.1,0.6-0.1,0.8c-0.1,0.4,0,0.7,0.2,1c0.1,0.2,0.2,0.3,0.4,0.5c0.2,0.2,0.3,0.3,0.4,0.6c0.3,0.4,0.4,0.9,0.4,1.3
				c0,0.9-0.3,1.5-0.6,1.8c-0.3,0.4-0.5,0.5-0.5,0.5s0.1-0.2,0.3-0.6c0.2-0.4,0.3-1,0.2-1.7c-0.1-0.3-0.2-0.7-0.4-0.9
				c-0.1-0.1-0.3-0.3-0.4-0.5c-0.2-0.2-0.3-0.4-0.5-0.6c-0.1-0.2-0.3-0.5-0.4-0.8c-0.1-0.3-0.1-0.7,0-0.9c0-0.3,0.1-0.5,0.1-0.6
				c0-0.2-0.1-0.4-0.1-0.5c0-0.1-0.1-0.2-0.2-0.3l-0.2-0.3c-0.1-0.2-0.3-0.4-0.4-0.5c-0.3-0.3-0.7-0.6-1-0.8
				c-0.4-0.2-0.7-0.4-1.1-0.5c-0.4-0.1-0.7-0.2-1.1-0.3c-0.8-0.1-1.4-0.4-1.8-0.6C61.3,106.1,61.1,105.9,61.1,105.9z"/>
		</g>
		<g>
			<path class="st10" d="M69.1,110.1c0,0,0.3-0.2,0.9-0.2c0.3,0,0.7,0,1.1,0.1c0.4,0.1,0.8,0.4,1.2,0.9c0.3,0.4,0.5,1,0.7,1.5
				c0.2,0.5,0.3,1.1,0.6,1.5c0.2,0.2,0.3,0.2,0.4,0.2c0.1,0,0.3-0.2,0.5-0.4c0.1-0.1,0.2-0.2,0.2-0.3l0-0.1c0,0,0-0.1,0,0l0-0.1
				c0-0.1,0-0.1,0-0.2c0-0.2,0-0.6,0.1-0.9c0-0.7,0-1.3,0.1-2c0-0.3,0.1-0.7,0.3-1.1c0.1-0.2,0.2-0.4,0.4-0.5
				c0.3-0.2,0.4-0.2,0.5-0.3c0.5-0.2,1-0.6,1.6-0.8c0.5-0.2,1.1-0.4,1.6-0.5c0.5-0.1,1-0.1,1.4-0.1c0.4,0.1,0.8,0.2,1,0.4
				c0.3,0.1,0.4,0.3,0.5,0.4c0.1,0.1,0.2,0.2,0.2,0.2s-0.1,0-0.2-0.1c-0.1,0-0.1-0.1-0.2-0.1c-0.1,0-0.2-0.1-0.3-0.1
				c-0.3-0.1-0.6-0.2-1-0.2c-0.4,0-0.8,0.1-1.2,0.3c-0.4,0.2-0.9,0.4-1.4,0.7c-0.5,0.3-0.9,0.6-1.5,0.9c-0.4,0.2-0.3,0.1-0.4,0.4
				c-0.1,0.2-0.1,0.5-0.2,0.8c-0.1,0.6-0.1,1.2-0.1,1.9c0,0.3,0,0.6-0.1,1.1c0,0.1-0.1,0.2-0.1,0.3l0,0.1c0,0.1,0,0.1-0.1,0.1
				l-0.1,0.1c-0.1,0.2-0.2,0.3-0.3,0.5c-0.3,0.3-0.6,0.6-1.1,0.7c-0.3,0-0.6,0-0.7-0.2c-0.2-0.1-0.3-0.3-0.5-0.4
				c-0.4-0.6-0.5-1.3-0.7-1.8c-0.1-0.5-0.2-1-0.5-1.4c-0.2-0.4-0.5-0.7-0.8-0.9c-0.3-0.2-0.7-0.3-0.9-0.3
				C69.5,110,69.1,110.1,69.1,110.1z"/>
		</g>
		<g>
			<path class="st10" d="M76.3,112.6c0,0,0.1-0.1,0.3-0.4c0.2-0.2,0.5-0.5,1-0.8c0.5-0.3,1.1-0.5,1.8-0.5c0.3,0,0.6,0,0.9,0
				c0.3,0,0.7,0,1,0c0.7,0.1,1.4,0.1,2.1,0.5c0.3,0.2,0.6,0.5,0.8,0.7c0.2,0.2,0.3,0.5,0.4,0.7c0.4,0.9,0.5,1.6,0.5,1.6
				s-0.4-0.6-1-1.3c-0.2-0.2-0.3-0.4-0.5-0.6c-0.2-0.2-0.3-0.3-0.6-0.4c-0.5-0.2-1.1-0.2-1.8-0.3c-0.3,0-0.7,0-1-0.1
				c-0.3,0-0.7-0.1-1-0.1c-0.5-0.1-1,0-1.5,0.1c-0.5,0.1-0.8,0.3-1.1,0.5C76.5,112.5,76.3,112.6,76.3,112.6z"/>
		</g>
		<g>
			<path class="st10" d="M75.3,115.1c0,0-0.1,0.6,0,1.4c0,0.4,0.1,0.8,0.3,1.1c0,0.1,0.1,0.1,0.2,0.2c0.1,0,0.1,0.1,0.3,0.2
				c0.2,0.1,0.5,0.3,0.7,0.5c0.4,0.4,0.8,0.7,1.2,1.1c0.4,0.3,0.7,0.5,1,0.6c0.2,0,0.3,0.1,0.5,0.1c0.2,0,0.3,0,0.4,0
				c0.2,0,0.4-0.1,0.4-0.1s-0.1,0.1-0.3,0.3c-0.1,0.1-0.2,0.2-0.4,0.2c-0.2,0.1-0.4,0.1-0.6,0.1c-0.5,0-1-0.2-1.5-0.5
				c-0.5-0.3-0.9-0.7-1.3-1c-0.2-0.2-0.3-0.3-0.6-0.4c-0.1-0.1-0.2-0.2-0.4-0.3c-0.1-0.1-0.2-0.3-0.3-0.4c-0.3-0.6-0.2-1.2-0.2-1.6
				C75,115.5,75.3,115.1,75.3,115.1z"/>
		</g>
		<g>
			<path class="st10" d="M115.4,110.9c-0.4,0.6-0.8,1.2-1.3,1.7c-0.2,0.3-0.5,0.5-0.7,0.8c-0.1,0.1-0.3,0.3-0.4,0.4
				c-0.1,0.1-0.2,0.1-0.3,0.2c0.1,0-0.2,0.1-0.1,0.1c0,0,0,0,0,0l0,0.1c0,0.1,0,0.1-0.1,0.2c0,0.1-0.1,0.3-0.1,0.5
				c-0.1,0.3-0.1,0.7-0.1,1c0,0.7-0.1,1.4-0.1,2.1l0,0.2l-0.2,0.1c-0.7,0.6-1.4,1.1-2.2,1.5c-0.4,0.2-0.9,0.4-1.4,0.4
				c-0.3,0-0.6,0-0.8-0.1c-0.1-0.1-0.3-0.2-0.4-0.3c-0.1-0.1-0.2-0.1-0.2-0.2c-0.3-0.2-0.6-0.5-1-0.7l-1.1-0.7
				c-0.4-0.2-0.7-0.5-1.1-0.8c-0.2-0.2-0.3-0.3-0.4-0.5c-0.1-0.2-0.2-0.4-0.2-0.6c0.1,0.4,0.5,0.7,0.8,0.9c0.3,0.2,0.7,0.4,1.1,0.6
				c0.4,0.2,0.8,0.3,1.2,0.5c0.4,0.2,0.8,0.4,1.2,0.7l0.3,0.2c0.1,0,0.1,0.1,0.2,0.1c0.1,0,0.3,0.1,0.4,0c0.3,0,0.7-0.2,1-0.4
				c0.7-0.4,1.4-0.9,2-1.4l-0.2,0.4c0-0.7,0.1-1.5,0.1-2.2c0-0.4,0.1-0.7,0.2-1.1c0.1-0.2,0.1-0.4,0.2-0.6c0-0.1,0.1-0.2,0.1-0.3
				c0-0.1,0-0.1,0.1-0.2c0-0.1,0.1-0.1,0.2-0.2c0.2-0.2,0.1-0.1,0.3-0.2c0,0,0.1,0,0.2-0.1c0.1-0.1,0.3-0.2,0.4-0.3
				c0.3-0.2,0.5-0.4,0.8-0.7C114.3,111.9,114.8,111.4,115.4,110.9z"/>
		</g>
		<g>
			<path class="st10" d="M111.1,110.5c0,0-0.1,0.3-0.4,0.6c-0.3,0.3-0.8,0.7-1.3,0.9c-0.3,0.1-0.6,0.2-0.9,0.2c-0.3,0-0.6,0-0.9-0.1
				c-0.1,0-0.2-0.1-0.3-0.2c-0.1-0.1-0.1-0.1-0.2-0.2c-0.1-0.1-0.1-0.2-0.1-0.2s0.1,0,0.2,0.1c0.1,0,0.3,0,0.4,0
				c0.1,0,0.2,0,0.3-0.1c0.1,0,0.2-0.1,0.3-0.1c0.2-0.1,0.4-0.2,0.7-0.3c0.5-0.2,1-0.4,1.4-0.5C110.8,110.6,111.1,110.5,111.1,110.5
				z"/>
		</g>
		<g>
			<path class="st10" d="M122.4,112.3c0,0-0.4,0.1-1,0.3c-0.3,0.1-0.7,0.3-1.1,0.5c-0.4,0.2-0.9,0.6-0.9,0.9c0,0.1,0.1,0.5,0.2,0.7
				c0.1,0.3,0.2,0.6,0.3,0.9c0.2,0.6,0.4,1.3,0.5,2.1c0.1,0.4,0.1,0.8,0.1,1.2c0,0.2-0.1,0.4-0.1,0.7l-0.2,0.5
				c-0.1,0.4-0.2,0.7-0.3,1.1c-0.1,0.4-0.2,0.8-0.8,1.3c-0.1,0.1-0.3,0.2-0.5,0.2l-0.3,0l-0.6,0c-0.4,0-0.8,0-1.2,0
				c-0.4,0-0.9-0.1-1.3-0.4c-0.2-0.1-0.4-0.3-0.5-0.6c-0.1-0.2-0.2-0.5-0.2-0.7c0-0.7-0.1-1.4-0.2-2c0-0.7-0.2-1.4,0.2-2
				c0.3-0.3,0.5-0.4,0.7-0.6c0.2-0.2,0.4-0.3,0.6-0.4c0.4-0.3,0.7-0.5,1-0.7c0.5-0.4,0.8-0.7,0.8-0.7s-0.2,0.3-0.7,0.8
				c-0.2,0.3-0.5,0.6-0.8,0.9c-0.2,0.2-0.4,0.3-0.5,0.5c-0.2,0.2-0.5,0.4-0.5,0.5c-0.2,0.4-0.1,1,0,1.6c0.1,0.6,0.3,1.3,0.4,2.1
				c0,0.3,0.1,0.4,0.3,0.6c0.2,0.1,0.5,0.2,0.9,0.2c0.3,0,0.7,0,1.1,0l0.6-0.1c0.1,0,0.2,0,0.3,0c0,0,0,0,0.1,0
				c0.1,0,0.3-0.4,0.4-0.7c0.1-0.4,0.2-0.7,0.3-1.1c0.1-0.2,0.1-0.4,0.2-0.6c0-0.1,0.1-0.3,0.1-0.4c0-0.3,0-0.7,0-1
				c-0.1-0.7-0.2-1.4-0.4-2c-0.1-0.3-0.2-0.6-0.2-0.9c-0.1-0.3-0.2-0.6-0.1-1c0.1-0.4,0.3-0.7,0.6-0.8c0.2-0.2,0.5-0.3,0.7-0.4
				c0.5-0.2,0.9-0.3,1.2-0.4C122,112.4,122.4,112.3,122.4,112.3z"/>
		</g>
		<g>
			<path class="st10" d="M111.8,115.7c0,0,0.2-0.1,0.5-0.2c0.3-0.1,0.7-0.1,1.1,0c0.4,0.1,0.8,0.3,1,0.5c0.2,0.2,0.3,0.5,0.3,0.5
				s-0.2,0.1-0.5,0.1c-0.3,0-0.6,0-1-0.1c-0.3-0.1-0.7-0.2-0.9-0.4C112,115.9,111.8,115.7,111.8,115.7z"/>
		</g>
		<g>
			<path class="st10" d="M88.7,110.5c0,0,0.3-0.2,0.7-0.4c0.4-0.2,1-0.3,1.7-0.4c0.6,0,1.3,0,1.7,0.2c0.2,0.1,0.4,0.2,0.5,0.3
				c0.1,0.1,0.1,0.2,0.1,0.2s-0.1,0-0.2,0c-0.1,0-0.3,0-0.5,0c-0.4,0.1-1,0.2-1.6,0.2c-0.6,0-1.2,0-1.6,0
				C89.1,110.7,88.7,110.5,88.7,110.5z"/>
		</g>
		<g>
			<path class="st10" d="M89.7,116.5c0.6-0.1,1.2-0.2,1.8-0.4c0.3-0.1,0.6-0.2,0.9-0.3c0.3-0.1,0.5-0.3,0.7-0.4c0,0,0.1-0.1,0.1-0.1
				l0,0l0-0.1c0,0,0-0.1,0.1-0.1c0-0.1,0.2-0.1,0.3-0.1c0.2,0,0.3,0.1,0.4,0.2c0.1,0.1,0.1,0.1,0.1,0.2c0.1,0.1,0.1,0.2,0.1,0.2
				c0.2,0.3,0.3,0.6,0.4,0.9c0.2,0.6,0.4,1.2,0.7,1.6c0.1,0.1,0.1,0.2,0.2,0.2c0,0-0.1,0,0,0c0.1,0,0.1,0,0.2,0c0.4,0,0.7,0.1,1,0.2
				c0.6,0.2,1.3,0.5,1.8,0.9c0.1,0.1,0.3,0.2,0.4,0.4l0,0.1l0,0l0,0c0,0-0.1-0.1,0-0.1l0,0l0,0l0.1,0.1c0,0,0,0,0,0
				c0.2,0.1,0.5,0.1,0.7,0.1c0.6,0,1.2-0.1,1.8-0.2l-0.2,0.2c0.3-0.5,0.6-1.1,1-1.6c0.3-0.5,0.6-1,1-1.5c-0.2,0.6-0.4,1.1-0.6,1.7
				c-0.2,0.6-0.5,1.1-0.7,1.7l-0.1,0.1l-0.2,0c-0.6,0.2-1.2,0.4-1.9,0.4c-0.3,0-0.7,0-1.1-0.1c-0.1,0-0.3-0.2-0.4-0.2l-0.1-0.1l0,0
				l0,0l-0.1-0.1l0,0l0,0c0-0.1-0.1-0.1-0.2-0.2c-0.4-0.3-1-0.5-1.5-0.7c-0.3-0.1-0.6-0.2-0.8-0.2c-0.1,0-0.1,0-0.2,0
				c-0.1,0-0.4-0.1-0.5-0.1c-0.2-0.2-0.4-0.3-0.5-0.5c-0.4-0.6-0.5-1.2-0.7-1.8c-0.1-0.3-0.2-0.6-0.3-0.9c0-0.1-0.1-0.1-0.1-0.2
				c0-0.1-0.1,0,0.2,0c0.1,0,0.1,0,0.2-0.1c0,0,0.1-0.1,0,0c0,0,0,0.1,0,0l-0.1,0.1c-0.1,0.1-0.1,0.2-0.2,0.2
				c-0.3,0.2-0.6,0.3-1,0.4c-0.3,0.1-0.6,0.1-1,0.2C91,116.5,90.3,116.6,89.7,116.5z"/>
		</g>
		<g>
			<path class="st10" d="M89.7,126.3c0,0,0-0.1-0.1-0.1c-0.1-0.1-0.2-0.2-0.4-0.3c-0.3-0.3-0.8-0.6-1.3-1.2
				c-0.1-0.2-0.2-0.3-0.3-0.6c-0.1-0.2-0.1-0.6,0-0.8c0.1-0.4,0.2-0.8,0.5-1.3c0.2-0.4,0.5-0.9,1.1-1.2c0.3-0.1,0.6-0.2,0.9-0.2
				c0.2,0,0.4,0,0.6,0c0.4,0,0.9-0.1,1.4-0.1c0.5,0,1-0.1,1.6,0.2c0.5,0.3,0.7,0.7,1,1c0.3,0.3,0.5,0.7,0.6,1
				c0.3,0.6,0.6,1.2,0.6,1.6c0,0.2,0,0.4,0,0.5c0,0.1,0,0.2,0,0.2s0-0.2-0.2-0.6c-0.2-0.4-0.5-0.8-0.9-1.4c-0.2-0.3-0.5-0.5-0.7-0.8
				c-0.3-0.3-0.6-0.5-0.8-0.7c-0.2-0.1-0.6-0.1-1.1,0c-0.4,0-0.9,0.1-1.4,0.2c-0.2,0-0.5,0-0.8,0c-0.2,0-0.3,0-0.4,0.1
				c-0.3,0.1-0.5,0.4-0.8,0.7c-0.2,0.3-0.4,0.7-0.5,1c-0.1,0.2-0.1,0.2-0.1,0.4c0,0.1,0.1,0.3,0.2,0.4c0.3,0.6,0.7,1,1,1.3
				c0.1,0.2,0.2,0.3,0.3,0.4C89.7,126.2,89.7,126.3,89.7,126.3z"/>
		</g>
		<g>
			<path class="st10" d="M88.7,129.9c0,0,0-0.2,0-0.5c0-0.3,0-0.7,0.2-1.2c0.1-0.2,0.2-0.5,0.3-0.8c0.2-0.3,0.3-0.5,0.5-0.8
				c0.4-0.5,1-0.9,1.6-1.3c0.3-0.1,0.7-0.3,1-0.3c0.3-0.1,0.7-0.1,1-0.1c0.6,0,1.2,0,1.7,0.1c0.5,0.1,0.9,0.3,1.1,0.3
				c0.3,0.1,0.4,0.2,0.4,0.2s-0.2,0-0.5,0c-0.3,0-0.7,0-1.2,0c-0.2,0-0.5,0-0.8,0c-0.3,0-0.5,0.1-0.8,0.1c-0.3,0-0.6,0.1-0.8,0.2
				c-0.3,0-0.5,0.2-0.8,0.3c-0.3,0.1-0.5,0.3-0.7,0.4c-0.2,0.2-0.5,0.3-0.6,0.5c-0.4,0.4-0.7,0.8-0.9,1.2
				C88.9,129.2,88.7,129.9,88.7,129.9z"/>
		</g>
		<g>
			<path class="st10" d="M98.7,120c-0.1,0.6-0.2,1.3-0.2,1.9c-0.1,0.7-0.2,1.3-0.3,2c-0.1,0.6-0.2,1.3-0.6,2
				c-0.3,0.4-0.2,1.1-0.1,1.7c0.1,0.6,0.3,1.2,0.6,1.7c0.1,0.1,0.2,0.2,0.2,0.2c0.1,0.1,0.1,0.1,0.3,0.2c0.1,0.1,0.1,0.2,0.2,0.3
				c0.2,0.4,0.2,0.7,0.3,1.1l0,0.5l0,0.2c0,0,0,0.1,0,0.1l0,0c0,0,0-0.1,0-0.1c0,0,0-0.1-0.1-0.1c0,0-0.1,0-0.1,0c0,0,0,0-0.1,0
				c0.2,0,0.1,0,0.1,0l0.1,0l0.2,0.1c0.1,0.1,0.2,0.1,0.3,0.2l0.4,0.2c0.5,0.3,1.1,0.6,1.7,0.7c0.6,0.2,1.2,0.2,1.7,0.1
				c0.6-0.1,1.1-0.3,1.6-0.7c0.2-0.2,0.5-0.4,0.6-0.6c0.2-0.3,0.4-0.5,0.5-0.8c0.1-0.3,0.3-0.5,0.3-0.8c0.1-0.3,0.2-0.6,0.2-0.9
				c0.1-0.6,0.1-1.2,0.1-1.9c0-0.6-0.1-1.3-0.2-1.9c-0.2-1.3-0.5-2.5-1-3.7l0.4,0.1c-0.3,0.3-0.6,0.6-0.9,1
				c-0.3,0.4-0.5,0.7-0.7,1.1c-0.1,0.2-0.2,0.4-0.2,0.6c-0.1,0.2-0.1,0.4-0.1,0.7c0,0.2-0.1,0.5,0,0.7c0,0.2,0,0.5,0.1,0.7
				c-0.1-0.4-0.2-0.9-0.2-1.4c0-0.2,0-0.5,0.1-0.7c0-0.2,0.1-0.5,0.2-0.7c0.2-0.5,0.4-0.9,0.6-1.3c0.3-0.4,0.6-0.8,0.9-1.1l0.3-0.3
				l0.2,0.4c0.5,1.2,0.9,2.5,1.2,3.8c0.1,0.7,0.2,1.3,0.3,2c0,0.7,0,1.4-0.1,2.1c0,0.3-0.1,0.7-0.2,1c-0.1,0.3-0.3,0.7-0.4,1
				c-0.2,0.3-0.4,0.5-0.6,0.8c-0.3,0.3-0.5,0.5-0.8,0.8c-0.6,0.5-1.3,0.8-2,0.9c-0.7,0.1-1.5,0-2.2-0.2c-0.7-0.2-1.3-0.5-1.9-0.9
				l-0.4-0.3c-0.1,0-0.2-0.1-0.1-0.1c0,0,0,0,0,0l-0.1,0c0,0-0.1,0,0.1,0l-0.1,0c-0.1,0-0.1,0-0.2-0.1c-0.1-0.1-0.2-0.2-0.2-0.2
				c0-0.1-0.1-0.1-0.1-0.2l0-0.1c0-0.1,0-0.1,0-0.2l0-0.3l0-0.5c0-0.3-0.1-0.6-0.2-0.8l-0.1-0.1c0,0-0.1-0.1-0.1-0.1
				c-0.2-0.2-0.3-0.3-0.4-0.5c-0.3-0.7-0.5-1.3-0.6-2c0-0.3-0.1-0.7,0-1c0-0.2,0-0.4,0.1-0.5c0-0.2,0.2-0.4,0.2-0.5
				c0.4-0.4,0.5-1.1,0.7-1.7c0.2-0.6,0.3-1.3,0.4-1.9C98.4,121.3,98.5,120.7,98.7,120z"/>
		</g>
		<g>
			<path class="st10" d="M100.7,121c0,0,0.3,0.4,0.6,1c0.3,0.6,0.7,1.4,0.8,2.4c0,0.2,0,0.5,0,0.7c0,0.1,0,0.3,0,0.4
				c0,0.1-0.1,0.3-0.1,0.4c-0.1,0.2-0.1,0.3-0.1,0.5c0,0.1,0,0.3,0,0.4c0.1,0.3,0.2,0.5,0.3,0.7c0.1,0.2,0.2,0.2,0.2,0.2
				s-0.1,0-0.3-0.1c-0.2-0.1-0.5-0.2-0.7-0.6c-0.1-0.2-0.2-0.4-0.2-0.6c0-0.2,0-0.5,0-0.7c0-0.1,0-0.2,0-0.3c0-0.1,0-0.2,0-0.3
				c0-0.2,0-0.4-0.1-0.6c-0.1-0.8-0.3-1.7-0.3-2.3C100.7,121.5,100.7,121,100.7,121z"/>
		</g>
		<g>
			<path class="st10" d="M99.6,130.4c0,0,0.3-0.3,0.7-0.6c0.2-0.1,0.5-0.3,0.8-0.4c0.3-0.1,0.7-0.2,1-0.3c0.4,0,0.7-0.1,1.1,0
				c0.2,0,0.4,0.1,0.5,0.1c0.2,0.1,0.3,0.1,0.4,0.2c0.1,0.1,0.2,0.2,0.3,0.3c0.1,0.1,0.1,0.2,0.1,0.3c0.1,0.2,0.1,0.3,0.1,0.3
				s-0.1,0-0.2-0.1c-0.1,0-0.1-0.1-0.2-0.1c-0.1,0-0.2-0.1-0.3-0.1c-0.4-0.1-1,0-1.7,0.1c-0.6,0.1-1.3,0.2-1.8,0.2
				C100,130.5,99.6,130.4,99.6,130.4z"/>
		</g>
		<g>
			<path class="st10" d="M109.2,120.4c0,0,0.2,0.3,0.4,0.8c0.1,0.2,0.3,0.5,0.5,0.8c0.2,0.3,0.5,0.7,0.7,1c0.3,0.4,0.6,0.7,1,1.1
				c0.4,0.3,0.8,0.7,1.3,0.9c0.5,0.3,1,0.5,1.6,0.6c0.5,0.2,1.1,0.2,1.7,0.2c0.3,0,0.6,0,0.9,0c0.3,0,0.6-0.1,0.9-0.1
				c0.6-0.1,1.1-0.2,1.6-0.4c0.5-0.2,1-0.4,1.4-0.7c0.4-0.3,0.8-0.6,1.1-0.9c0.3-0.3,0.6-0.6,0.8-1c0.2-0.3,0.3-0.6,0.5-0.8
				c0.2-0.5,0.3-0.8,0.3-0.8s0,0.3-0.1,0.9c-0.1,0.5-0.4,1.3-1,2.1c-0.3,0.4-0.7,0.8-1.1,1.1c-0.5,0.3-1,0.7-1.5,0.9
				c-0.6,0.2-1.2,0.4-1.8,0.5c-0.3,0-0.6,0.1-0.9,0.1c-0.4,0-0.7,0-1,0c-0.7,0-1.3-0.1-2-0.3c-0.6-0.2-1.2-0.5-1.8-0.8
				c-0.5-0.3-1-0.7-1.4-1.1c-0.4-0.4-0.7-0.8-0.9-1.3c-0.2-0.4-0.4-0.8-0.6-1.2c-0.1-0.4-0.3-0.7-0.3-0.9c-0.1-0.3-0.1-0.5-0.2-0.6
				C109.3,120.4,109.2,120.4,109.2,120.4z"/>
		</g>
		<g>
			<path class="st10" d="M106.2,131.6c0,0,0.7,0.3,1.9,0.5c0.6,0.1,1.2,0.1,1.9,0c0.7-0.1,1.4-0.4,2-0.8c0.3-0.1,0.7-0.5,0.9-0.7
				c0.2-0.2,0.5-0.5,0.7-0.8c0.4-0.5,0.7-1.1,0.8-1.7c0.1-0.5,0.2-1,0.2-1.4c0-0.3,0-0.5,0-0.5s0.1,0.2,0.2,0.5
				c0.1,0.3,0.2,0.9,0.2,1.5c0,0.6-0.2,1.4-0.7,2.1c-0.2,0.3-0.5,0.7-0.8,1c-0.2,0.2-0.3,0.3-0.5,0.4l-0.2,0.2l-0.3,0.2
				c-0.7,0.5-1.6,0.8-2.4,0.8c-0.8,0.1-1.6-0.1-2.1-0.3c-0.6-0.2-1-0.5-1.3-0.7C106.3,131.7,106.2,131.6,106.2,131.6z"/>
		</g>
		<g>
			<path class="st10" d="M115.4,126.9c0,0,0.2,0.1,0.5,0.3c0.3,0.2,0.7,0.6,1,1.1c0.2,0.3,0.4,0.6,0.5,0.9c0.1,0.3,0.3,0.7,0.3,1.1
				c0.1,0.4,0.1,0.8,0.1,1.2c0,0.4,0,0.8-0.1,1.3c-0.1,0.4-0.2,0.8-0.4,1.3c-0.2,0.4-0.5,0.8-0.9,1c-0.7,0.5-1.5,0.6-2.1,0.6
				c-0.6,0.1-1.1,0.1-1.4,0.2c-0.3,0.1-0.5,0.3-0.5,0.3c0,0,0.1-0.2,0.4-0.4c0.3-0.2,0.8-0.5,1.4-0.6c0.6-0.2,1.2-0.4,1.7-0.8
				c0.2-0.2,0.4-0.5,0.6-0.8c0.1-0.3,0.2-0.6,0.3-1c0.1-0.3,0.1-0.7,0.1-1.1c0-0.4,0-0.7,0-1.1c0-0.4-0.1-0.7-0.2-1
				c-0.1-0.3-0.2-0.6-0.3-0.9C115.9,127.5,115.4,126.9,115.4,126.9z"/>
		</g>
		<g>
			<path class="st10" d="M118.5,131.2c0,0,0.2,0.4,0.4,1c0.2,0.6,0.3,1.5,0.1,2.4c0,0.2-0.1,0.4-0.2,0.7c-0.1,0.2-0.2,0.4-0.3,0.6
				c-0.1,0.2-0.3,0.3-0.4,0.5c-0.2,0.1-0.3,0.3-0.5,0.3c-0.2,0.1-0.3,0.1-0.4,0.2c-0.1,0.1-0.3,0-0.4,0.1c-0.2,0-0.3,0-0.3,0
				s0.1-0.1,0.2-0.2c0.2-0.1,0.3-0.3,0.5-0.5c0.1-0.1,0.2-0.3,0.2-0.4c0.1-0.1,0.1-0.3,0.2-0.4c0.1-0.3,0.2-0.7,0.3-1
				c0.1-0.4,0.1-0.8,0.2-1.1c0.1-0.4,0.1-0.7,0.1-1C118.4,131.6,118.5,131.2,118.5,131.2z"/>
		</g>
		<g>
			<path class="st10" d="M116.6,138.2c0,0,0.3,0.1,0.6,0.3c0.3,0.2,0.7,0.5,1,0.8c0.2,0.2,0.3,0.3,0.5,0.5c0.1,0.1,0.3,0.3,0.4,0.4
				c0.1,0,0.1,0.1,0.2,0.1c0.1,0,0.1,0.1,0.2,0.1c0.1,0,0.2,0.1,0.2,0.1s0,0.1-0.1,0.1c-0.1,0.1-0.1,0.1-0.2,0.1c-0.1,0-0.2,0-0.3,0
				c-0.2,0-0.5-0.1-0.7-0.2c-0.2-0.1-0.4-0.3-0.6-0.5c-0.4-0.4-0.7-0.8-0.8-1.2C116.6,138.5,116.6,138.2,116.6,138.2z"/>
		</g>
		<g>
			<path class="st10" d="M85.8,131.6c0,0,0-0.2,0-0.5c0-0.3,0-0.7,0.2-1.2c0-0.1,0.1-0.3,0.2-0.4c0-0.1,0.1-0.1,0.2-0.2
				c0,0,0.1-0.1,0.1-0.1l0.1-0.1l0,0l0.1,0c0,0,0.2,0,0.3,0c0.1,0,0.1,0.1,0.2,0.1c0.1,0.1,0.2,0.1,0.2,0.2c0.1,0.1,0.2,0.2,0.4,0.3
				c0.5,0.4,0.9,0.9,1.3,1.4c0.9,0.9,1.8,1.8,2.5,2.3c0.8,0.5,1.4,0.7,1.4,0.7s-0.2,0-0.5,0.1c-0.3,0-0.7,0-1.2-0.2
				c-1-0.3-2.1-1.2-3-2.2c-0.4-0.5-0.9-1-1.2-1.5c-0.1-0.1-0.2-0.2-0.3-0.3c0,0-0.1-0.1-0.1-0.1c0,0,0,0,0,0c0,0,0.2,0,0.1,0l0,0
				l0,0l0,0c0,0,0.2,0,0.1,0l0,0l0,0c0,0,0,0,0,0c0,0-0.1,0.1-0.1,0.1c-0.1,0.1-0.1,0.2-0.2,0.3c-0.2,0.4-0.4,0.8-0.5,1
				C85.9,131.4,85.8,131.6,85.8,131.6z"/>
		</g>
		<g>
			<path class="st10" d="M46.8,104.5c0,0,0.3,0.1,0.8,0.4c0.5,0.3,1.2,0.7,1.9,1.4c0.4,0.3,0.7,0.8,1,1.3c0.3,0.5,0.5,1.1,0.6,1.7
				c0.1,0.6,0.1,1.3,0,2c-0.1,0.6-0.3,1.2-0.5,1.9c-0.4,1.2-1,2.4-1.8,3.4c-0.4,0.5-0.8,0.9-1.2,1.3c-0.1,0.1-0.2,0.2-0.3,0.3
				c-0.1,0-0.1,0.1-0.2,0.1c0,0-0.1,0.1-0.1,0.1c0,0,0,0.1-0.1,0.2c0,0.1,0,0.2-0.1,0.3c-0.1,0.9,0.1,1.7,0.3,2.1
				c0.2,0.5,0.4,0.7,0.4,0.7s-0.1,0-0.2-0.1c-0.1-0.1-0.3-0.3-0.4-0.5c-0.1-0.2-0.3-0.6-0.4-0.9c-0.1-0.4-0.2-0.8-0.3-1.3
				c0-0.1,0-0.3,0-0.4c0-0.1,0-0.3,0.2-0.5c0.1-0.1,0-0.1,0.2-0.2c0,0,0.1-0.1,0.1-0.1c0.1-0.1,0.2-0.2,0.3-0.2
				c0.3-0.4,0.7-0.8,1-1.3c0.6-0.9,1.1-2,1.5-3.2c0.1-0.3,0.2-0.6,0.3-0.9c0.1-0.3,0.2-0.6,0.2-0.9c0.1-0.5,0.2-1.1,0.1-1.6
				c-0.1-0.5-0.2-1-0.4-1.5c-0.2-0.4-0.5-0.9-0.8-1.2c-0.6-0.7-1.1-1.2-1.6-1.6C47.1,104.7,46.8,104.5,46.8,104.5z"/>
		</g>
		<g>
			<path class="st10" d="M56,129.4c0,0-0.6,0.1-1.3-0.2c-0.4-0.1-0.8-0.4-1.2-0.7c-0.4-0.3-0.7-0.8-1-1.3c-0.2-0.5-0.4-1-0.5-1.6
				c-0.1-0.5-0.1-1,0-1.4c0-0.4,0.1-0.7,0.2-1c0.1-0.2,0.1-0.3,0.1-0.3s0,0.1,0.1,0.4c0.1,0.2,0.1,0.5,0.2,0.9
				c0,0.2,0.1,0.4,0.1,0.6c0.1,0.2,0.1,0.4,0.2,0.6c0.1,0.2,0.2,0.4,0.2,0.6c0.1,0.2,0.2,0.4,0.3,0.6c0.1,0.2,0.2,0.4,0.4,0.6
				c0.1,0.2,0.3,0.4,0.4,0.5c0.3,0.3,0.6,0.6,0.9,0.9C55.5,129.2,56,129.4,56,129.4z"/>
		</g>
		<g>
			<path class="st10" d="M56.3,108.2c0,0-0.2,0.1-0.5,0.3c-0.3,0.2-0.7,0.5-1.1,1c-0.2,0.2-0.4,0.5-0.5,0.7
				c-0.2,0.3-0.3,0.6-0.4,0.9c0,0.2-0.1,0.3-0.1,0.5c0,0.2,0,0.4,0,0.5c0,0.4,0,0.7,0.1,1.1c0,0.2,0.1,0.3,0.1,0.6
				c0.1,0.2,0.1,0.4,0.2,0.6c0.1,0.2,0.1,0.3,0.2,0.5c0.1,0.2,0.2,0.3,0.2,0.5c0.2,0.3,0.3,0.6,0.5,0.9c0.2,0.2,0.4,0.5,0.6,0.7
				c0.4,0.4,0.9,0.6,1.2,0.7c0.3,0.1,0.5,0.2,0.5,0.2s-0.2,0.1-0.6,0c-0.4,0-0.9-0.1-1.5-0.4c-0.3-0.2-0.6-0.4-0.9-0.6
				c-0.3-0.3-0.5-0.6-0.8-0.9c-0.2-0.4-0.4-0.7-0.6-1.2c-0.1-0.2-0.1-0.4-0.2-0.6c-0.1-0.2-0.1-0.4-0.2-0.6
				c-0.1-0.4-0.1-0.9-0.1-1.3c0-0.4,0.1-0.9,0.3-1.3c0.3-0.8,0.9-1.4,1.4-1.8c0.5-0.4,1-0.6,1.4-0.7
				C56.1,108.2,56.3,108.2,56.3,108.2z"/>
		</g>
		<g>
			<path class="st10" d="M54.7,113.6c0.3-0.2,0.5-0.4,0.8-0.7l0.8-0.7c0.5-0.5,1-1,1.3-1.6c0-0.1,0.1-0.1,0.1-0.2c0-0.1,0,0,0.1-0.2
				l0.1-0.1c0.3-0.3,0.6-0.2,0.8-0.2c0.4,0.1,0.7,0.3,1,0.5c0.6,0.4,1.2,0.8,1.7,1.3l-0.1-0.1c0.6,0.1,1.3,0.2,1.9,0.3
				c0.3,0,0.6,0,0.9,0l0.1,0l0.1,0l0,0l0,0l0,0l0,0l0.1,0c0,0,0.3,0.1,0.4,0.1c0.2,0.2,0.4,0.3,0.5,0.4c0.3,0.3,0.4,0.6,0.6,0.9
				c0.2,0.3,0.3,0.6,0.5,0.9c0.3,0.6,0.6,1.2,0.8,1.9c0.2,0.6,0.4,1.3,0.6,1.9c0.1,0.3,0.1,0.7,0.2,1c0,0.3,0.1,0.7,0,1.1
				c-0.1,0.7-0.3,1.4-0.5,2.1c-0.1,0.3-0.3,0.6-0.5,0.9c-0.2,0.3-0.4,0.6-0.6,0.9l0,0l0,0c-0.6,0.4-1.2,0.8-1.8,1.1
				c-0.6,0.3-1.3,0.6-2,0.7c-0.7,0.2-1.5,0.2-2.2-0.1c-0.2-0.1-0.3-0.2-0.5-0.2c-0.2-0.1-0.3-0.2-0.5-0.3c-0.3-0.2-0.6-0.4-0.8-0.7
				c-1-0.9-1.8-2-2.6-3.1c-0.7-1.1-1.4-2.3-1.8-3.6c0.6,1.2,1.3,2.3,2.2,3.3c0.8,1,1.7,2,2.7,2.9c0.2,0.2,0.5,0.4,0.8,0.6l0.4,0.2
				c0.1,0.1,0.3,0.2,0.4,0.2c0.5,0.2,1.1,0.1,1.7,0c1.2-0.3,2.4-1,3.4-1.7l-0.1,0.1c0.2-0.2,0.4-0.5,0.5-0.7
				c0.2-0.3,0.3-0.5,0.4-0.8c0.2-0.6,0.4-1.1,0.4-1.7c0-0.3,0-0.5,0-0.9c0-0.3-0.1-0.6-0.2-0.9c-0.1-0.6-0.3-1.2-0.5-1.8
				c-0.2-0.6-0.4-1.2-0.7-1.8c-0.3-0.6-0.6-1.2-0.9-1.6c-0.1-0.1-0.2-0.2-0.2-0.2c0,0,0,0,0,0c0,0,0,0,0,0l-0.1,0l-0.1,0l0,0l0,0
				l0,0l0,0c-0.1,0,0.1,0,0.1,0l-0.2,0c-0.4,0-0.7,0-1.1,0c-0.7-0.1-1.3-0.2-2-0.4l-0.1,0l-0.1-0.1c-0.5-0.5-1-0.9-1.6-1.3
				c-0.3-0.2-0.6-0.4-0.9-0.5c-0.2-0.1-0.2,0-0.2-0.1l-0.1,0.1l0,0c0.1-0.1,0,0,0,0l0,0l0,0.1c0,0.1-0.1,0.2-0.2,0.2
				c-0.5,0.6-1,1.1-1.5,1.5c-0.3,0.2-0.5,0.5-0.8,0.7C55.3,113.2,55,113.5,54.7,113.6z"/>
		</g>
		<g>
			<path class="st10" d="M51.3,116.5c0,0,0.1,0.4,0.2,0.8c0.1,0.5,0.2,1.1,0.3,1.7c0,0.1,0,0.3,0.1,0.4c0,0.1,0,0.3,0.1,0.4
				c0,0.1,0.1,0.2,0.1,0.3c0,0.1,0.1,0.2,0.2,0.3c0.1,0.1,0.1,0.1,0.2,0.2c0.1,0.1,0.1,0.1,0.2,0.2c0.1,0.1,0.2,0.1,0.2,0.1
				s-0.1,0-0.2,0c-0.1,0-0.2,0-0.3,0c-0.1,0-0.3,0-0.4-0.1c-0.1-0.1-0.3-0.2-0.4-0.3c-0.1-0.1-0.2-0.3-0.3-0.4
				c-0.2-0.3-0.3-0.7-0.4-1c0-0.4-0.1-0.7,0-1c0-0.3,0.1-0.6,0.2-0.9C51.1,116.8,51.3,116.5,51.3,116.5z"/>
		</g>
		<g>
			<path class="st10" d="M62.9,112.3c0,0,0.3,0.5,0.5,1.2c0.3,0.8,0.5,1.8,0.5,2.9c0,0.3,0,0.5,0,0.8c0,0.3-0.1,0.5-0.1,0.8
				c-0.1,0.3-0.1,0.5-0.2,0.7c-0.1,0.2-0.2,0.5-0.3,0.6c-0.1,0.2-0.2,0.4-0.4,0.5c-0.1,0.1-0.2,0.2-0.4,0.3
				c-0.2,0.1-0.4,0.1-0.4,0.1s0.1-0.1,0.2-0.3c0.1-0.1,0.1-0.2,0.2-0.3c0.1-0.1,0.1-0.3,0.1-0.5c0.1-0.2,0-0.4,0.1-0.6
				c0-0.2,0-0.4,0-0.7c0-0.5,0-1,0-1.5c0-0.5,0-1-0.1-1.5c0-0.5,0-0.9,0-1.3C62.8,112.9,62.9,112.3,62.9,112.3z"/>
		</g>
		<g>
			<path class="st10" d="M67.1,117.8c0,0-0.1,0.3-0.4,0.6c-0.2,0.3-0.6,0.7-1.1,1c-0.5,0.3-1,0.5-1.4,0.6c-0.4,0.1-0.7,0-0.7,0
				s0.2-0.2,0.5-0.5c0.3-0.3,0.7-0.6,1.1-0.9c0.4-0.3,0.9-0.5,1.3-0.6C66.8,117.9,67.1,117.8,67.1,117.8z"/>
		</g>
		<g>
			<path class="st10" d="M74.2,116.3c0,0-0.5,0.9-1.5,2.2c-0.1,0.2-0.2,0.3-0.4,0.5c-0.2,0.2-0.2,0.3-0.5,0.6
				c-0.1,0-0.1,0.1-0.2,0.1c-0.1,0-0.2,0.1-0.3,0.1c-0.1,0-0.3,0.1-0.4,0.1c-0.2,0-0.5,0.1-0.6,0.1c-0.4,0.1-0.7,0.4-0.9,0.7
				c-0.1,0.2-0.2,0.4-0.3,0.6c-0.1,0.2-0.2,0.5-0.2,0.6c0,0.1-0.1-0.1,0,0c0.1,0,0.4,0,0.6,0c0.5-0.1,0.9-0.2,1.4-0.4
				c0.9-0.3,1.8-0.6,2.5-0.9c0.7-0.3,1.3-0.6,1.7-0.8c0.4-0.2,0.6-0.4,0.6-0.4s-0.2,0.2-0.5,0.5c-0.4,0.3-0.9,0.7-1.6,1.1
				c-0.7,0.4-1.5,0.9-2.4,1.2c-0.5,0.2-1,0.4-1.5,0.5c-0.3,0-0.6,0.1-1,0c-0.2,0-0.4-0.1-0.6-0.3c-0.2-0.2-0.2-0.5-0.2-0.7
				c0-0.4,0.2-0.6,0.3-0.9c0.1-0.3,0.3-0.5,0.5-0.8c0.3-0.5,0.9-0.9,1.5-1c0.5-0.1,1.1-0.1,1.3-0.2c0.1,0,0.3-0.3,0.4-0.4
				c0.2-0.1,0.3-0.3,0.4-0.4c0.6-0.6,1-1,1.4-1.3C74,116.5,74.2,116.3,74.2,116.3z"/>
		</g>
		<g>
			<path class="st10" d="M77.3,120.4c0,0-0.3,0.5-0.9,1.3c-0.6,0.8-1.4,2-2.5,3.4c-0.6,0.7-1.2,1.4-1.9,2.1c-0.4,0.3-0.7,0.7-1.2,1
				c-0.4,0.3-1,0.6-1.5,0.8c-0.7,0-0.2,1.3,0.4,2.1c0.6,0.8,1.5,1.6,2.5,2.1c0.9,0.5,2,0.7,3,0.5c0.6-0.1,1.1-0.3,1.5-0.5
				c0.5-0.2,1-0.4,1.4-0.7c0.9-0.6,1.6-1.2,2.3-1.9c0.6-0.7,1.1-1.5,1.2-2.2c0-1.7,0.1-3.2,0.2-4.2c0.1-1,0.1-1.6,0.1-1.6
				s0,0.6,0.1,1.6c0,1,0.1,2.5,0.2,4.2c0,0.5-0.2,1-0.4,1.4c-0.2,0.4-0.5,0.9-0.8,1.3c-0.6,0.8-1.4,1.6-2.4,2.2
				c-0.5,0.3-1,0.6-1.5,0.8c-0.5,0.2-1.1,0.4-1.7,0.6c-1.3,0.3-2.6,0-3.7-0.6c-1.1-0.6-2-1.4-2.8-2.4c-0.4-0.5-0.7-1-0.8-1.7
				c-0.1-0.3-0.1-0.7,0.1-1.1c0.1-0.2,0.2-0.4,0.4-0.5c0.2-0.1,0.4-0.2,0.5-0.2c0.9-0.2,1.7-0.9,2.5-1.5c0.7-0.6,1.4-1.3,2-1.9
				c1.2-1.3,2.2-2.3,2.8-3.1C76.9,120.8,77.3,120.4,77.3,120.4z"/>
		</g>
		<g>
			<path class="st10" d="M84.6,124.7c0,0,0,0.2,0.1,0.5c0,0.1,0.1,0.3,0.1,0.5c0,0.2,0.1,0.3,0.1,0.5c0,0.2,0.1,0.3,0.1,0.5
				c0,0.2,0.1,0.3,0.1,0.5c0.1,0.3,0.1,0.6,0.1,0.6s-0.3,0-0.6-0.2c-0.2-0.1-0.3-0.2-0.4-0.4c-0.1-0.2-0.2-0.4-0.3-0.6
				c-0.1-0.5,0-1,0.2-1.3C84.3,124.8,84.6,124.7,84.6,124.7z"/>
		</g>
		<g>
			<path class="st10" d="M74.2,129.7c0,0,0,0-0.2,0c-0.1,0-0.3,0-0.4-0.1c-0.2-0.1-0.3-0.2-0.5-0.4c-0.1-0.2-0.2-0.4-0.3-0.6
				c0-0.2-0.1-0.5,0-0.7c0-0.2,0.1-0.4,0.2-0.6c0.2-0.3,0.4-0.4,0.4-0.4s0,0.1,0.1,0.2c0,0.1,0.1,0.2,0.1,0.4
				c0.1,0.3,0.1,0.6,0.2,0.9c0.1,0.3,0.1,0.6,0.2,0.9c0,0.1,0.1,0.3,0.1,0.3C74.2,129.6,74.2,129.7,74.2,129.7z"/>
		</g>
		<g>
			<path class="st10" d="M75,126.9c0,0,0-0.1,0.1-0.2c0.1-0.1,0.2-0.2,0.4-0.3c0.4-0.2,0.9-0.3,1.4-0.2c0.3,0.1,0.5,0.2,0.7,0.3
				c0.2,0.1,0.4,0.3,0.5,0.5c0.2,0.3,0.2,0.6,0.2,0.6s-0.2-0.1-0.6-0.2c-0.2,0-0.3-0.1-0.5-0.1c-0.2,0-0.4-0.1-0.6-0.1
				c-0.4-0.1-0.8-0.2-1.1-0.2c-0.2,0-0.3-0.1-0.4-0.1C75.1,126.9,75,126.9,75,126.9z"/>
		</g>
		<g>
			<path class="st10" d="M79,123.7c0,0-0.1,0.2-0.4,0.3c-0.2,0.2-0.5,0.3-0.8,0.3c-0.3,0.1-0.6,0-0.8,0c-0.1,0-0.2,0-0.3,0
				c-0.1,0-0.1,0-0.1,0s0,0,0-0.2c0-0.1,0.1-0.2,0.2-0.4c0.2-0.2,0.5-0.4,0.9-0.5c0.3-0.1,0.7,0,0.9,0.1
				C78.9,123.5,79,123.7,79,123.7z"/>
		</g>
		<g>
			<path class="st10" d="M58.7,128.3c0,0,0.4-0.2,1.1-0.3c0.6-0.2,1.5-0.4,2.3-0.6c0.2-0.1,0.4-0.1,0.6-0.2c0.2-0.1,0.4-0.1,0.5-0.2
				c0.2-0.1,0.3-0.2,0.5-0.3c0.2-0.1,0.2-0.2,0.4-0.3c0.1-0.1,0.2-0.2,0.3-0.3c0.1-0.1,0.1-0.2,0.2-0.3c0.1-0.2,0.2-0.3,0.2-0.3
				s0,0.1,0,0.3c0,0.1,0,0.2,0,0.4c0,0.1-0.1,0.3-0.2,0.5c-0.1,0.2-0.2,0.4-0.3,0.5c-0.1,0.2-0.3,0.3-0.5,0.5
				c-0.4,0.3-0.8,0.5-1.3,0.6c-0.5,0.1-0.9,0.2-1.3,0.2c-0.4,0-0.8,0-1.2,0C59.1,128.4,58.7,128.3,58.7,128.3z"/>
		</g>
		<g>
			<path class="st10" d="M65.3,127.3c0,0,0.1,0,0.2,0c0.2,0.1,0.4,0.3,0.5,0.6c0.2,0.6,0.3,1.5,0.2,2.5c0,0.5-0.1,1.1-0.3,1.7
				c-0.1,0.6-0.3,1.2-0.6,1.8c-0.1,0.3-0.3,0.6-0.6,0.9c-0.1,0.2-0.3,0.3-0.4,0.4c-0.2,0.1-0.5,0.2-0.6,0.3c-0.7,0.2-1.3,0.3-2,0.5
				c-0.7,0.1-1.4,0.2-2.1,0.3c-0.7,0-1.4,0-2.1-0.2c-0.3-0.1-0.7-0.3-1-0.6c-0.1-0.1-0.1-0.1-0.2-0.3l-0.1-0.2
				c0-0.1-0.1-0.4-0.1-0.6c0.1-0.7,0.4-1.2,0.6-1.7c0.5-0.9,1.1-1.6,1.3-2.1c0.1-0.3,0.1-0.5,0.1-0.6c-0.1-0.1-0.1-0.2-0.1-0.2
				s0.1,0.1,0.2,0.2c0.1,0.2,0.1,0.4,0,0.7c-0.1,0.6-0.5,1.4-0.9,2.3c-0.2,0.5-0.4,1-0.4,1.5c0,0.1,0,0.1,0,0.3l0.1,0.2
				c0-0.1,0.1,0,0.1,0.1c0.1,0.1,0.3,0.2,0.6,0.3c0.5,0.1,1.2,0.1,1.8,0.1c0.6,0,1.3-0.2,2-0.3c0.7-0.1,1.3-0.3,2-0.4
				c0.4,0,0.8-0.6,1.1-1.1c0.6-1.1,0.9-2.2,1.1-3.2c0.2-1,0.3-1.8,0.2-2.4c-0.1-0.3-0.2-0.5-0.3-0.6
				C65.4,127.3,65.3,127.3,65.3,127.3z"/>
		</g>
		<g>
			<path class="st10" d="M61.3,138.2c0,0,0.4-0.2,1.1-0.2c0.7-0.1,1.5-0.1,2.4,0.1c0.9,0.2,1.7,0.5,2.3,0.9c0.3,0.2,0.5,0.5,0.6,0.7
				c0.1,0.2,0.1,0.3,0.1,0.3s-0.1-0.1-0.2-0.2c-0.2-0.1-0.4-0.2-0.7-0.3c-0.3-0.1-0.6-0.2-1-0.2c-0.4-0.1-0.8-0.1-1.2-0.2
				c-0.8-0.2-1.6-0.3-2.3-0.5C61.7,138.3,61.3,138.2,61.3,138.2z"/>
		</g>
	</g>
</g>
<g>
	<path class="st1" d="M31,131.4c0,0-1.2-0.1-3.1-0.2c-1.9-0.1-4.3-0.3-6.8-0.3c-0.6,0-1.2,0-1.8,0c-0.6,0-1.2,0-1.8,0.1
		c-0.6,0.1-1.1,0.1-1.7,0.1c-0.5,0.1-1,0.1-1.5,0.2c-0.5,0.1-0.9,0.2-1.2,0.2c-0.4,0.1-0.7,0.2-1,0.2c-0.5,0.1-0.8,0.2-0.8,0.2
		s0.3-0.1,0.8-0.4c0.3-0.1,0.5-0.3,0.9-0.4c0.4-0.1,0.8-0.3,1.2-0.4c0.9-0.3,2-0.5,3.2-0.7c0.6-0.1,1.2-0.1,1.8-0.2
		c0.6,0,1.3,0,1.9-0.1c1.3,0,2.5,0.1,3.7,0.2c1.2,0.1,2.3,0.3,3.2,0.5c0.9,0.2,1.7,0.4,2.2,0.5C30.7,131.3,31,131.4,31,131.4z"/>
</g>
<g>
	<path class="st1" d="M21.1,142.9c0,0,0.7-0.1,1.6-0.1c1,0,2.2,0.1,3.5,0.4c1.3,0.3,2.5,0.7,3.4,1.2c0.9,0.4,1.4,0.9,1.4,0.9
		s-0.2,0-0.4-0.1c-0.3-0.1-0.7-0.2-1.1-0.3c-0.9-0.2-2.1-0.5-3.4-0.7c-1.2-0.3-2.5-0.6-3.4-0.8C21.7,143.2,21.1,142.9,21.1,142.9z"
		/>
</g>
<g>
	<path class="st1" d="M41,149.7c0,0,0.6,0.4,1.4,1.1c0.8,0.7,1.8,1.6,2.8,2.5c1,0.9,2,1.9,2.8,2.5c0.2,0.2,0.4,0.3,0.6,0.4
		c0.2,0.1,0.3,0.2,0.5,0.3c0.3,0.2,0.4,0.2,0.4,0.2s-0.2,0-0.5-0.1c-0.2,0-0.3-0.1-0.6-0.1c-0.2-0.1-0.4-0.2-0.7-0.3
		c-1-0.5-2.2-1.3-3.2-2.2c-0.5-0.5-1-1-1.4-1.5c-0.4-0.5-0.8-1-1.1-1.4C41.4,150.3,41,149.7,41,149.7z"/>
</g>
<g>
	<path class="st1" d="M81,197.9c0,0,0-17.3-1.7-19.5"/>
	<path class="st1" d="M81,197.9c0,0,0-0.3-0.1-0.8c0-0.5-0.1-1.3-0.2-2.2c-0.2-1.8-0.3-4.3-0.4-6.7c-0.1-2.4-0.2-4.9-0.4-6.7
		c0-0.5-0.1-0.9-0.1-1.2c0-0.4-0.1-0.7-0.2-0.9c0-0.3-0.1-0.4-0.2-0.6c0-0.1-0.1-0.2-0.1-0.2s0,0.1,0.1,0.2c0.1,0.1,0.2,0.3,0.3,0.6
		c0.1,0.3,0.2,0.6,0.3,0.9c0.1,0.4,0.2,0.8,0.3,1.2c0.2,0.9,0.4,2,0.5,3.1c0.1,1.2,0.2,2.4,0.3,3.6c0.1,2.5,0.1,4.9,0,6.8
		c0,0.9-0.1,1.7-0.2,2.2C81,197.5,81,197.9,81,197.9z"/>
</g>
<ellipse class="st12" cx="29.2" cy="173.9" rx="0.8" ry="1"/>
<ellipse class="st12" cx="33.9" cy="179.7" rx="1.4" ry="2"/>
<g>
	
		<ellipse transform="matrix(0.9171 0.3986 -0.3986 0.9171 66.2059 -32.9548)" class="st2" cx="112.4" cy="142.7" rx="2.7" ry="3.8"/>
	<path class="st2" d="M75.8,155.6c0,0,14.4-9.6,23.1-10.8s10.3-1.6,16-1.3s7.6,5.4,7.4,6c-0.2,0.7-0.8,1.4-1.2,1.3
		c-0.4-0.1,1,2.8-0.2,4s0.1,1.5,0.1,1.5s0.7,4-1,6.2c-0.7,0.9-2.6-0.4-2.6-0.4s1.3,4.5-0.9,5.2c-2.2,0.7-8.2-1.8-14.4,3.8
		c-6.2,5.7-6.9,3.7-11.5,7.1c-4.6,3.3-12.2,9.6-13.4,10.2c-1.2,0.6-12.2,7.1-13.5,7.1c-1.3,0-16.6-9.3-16.6-9.3l-4.5-15.6l1.5-11.4
		l8.1,0.3c0,0,2.1,0.8,3.2,1.1c1.1,0.3,6.3,1.1,9.7,0C68.5,159.4,75.8,155.6,75.8,155.6z"/>
	<path class="st6" d="M115.8,153c0,0,3.9,1.2,4.7,2.8"/>
	<path class="st6" d="M117,147.5c0,0,4,2,4.1,3.2"/>
	<path class="st6" d="M114.2,158.8c0,0,3.1,2.7,3.2,3.2"/>
	<g>
		<path class="st1" d="M104.2,156.9c0,0,0.3-0.3,0.9-0.5c0.6-0.2,1.3-0.5,2.1-0.5c0.8-0.1,1.6,0,2.2,0.3c0.3,0.1,0.5,0.3,0.6,0.4
			c0.1,0.1,0.2,0.2,0.2,0.2s-0.1,0-0.3-0.1c-0.2,0-0.4-0.1-0.7-0.1c-0.5,0-1.3,0.1-2,0.1c-0.7,0-1.5,0.1-2.1,0.1
			C104.7,157,104.2,156.9,104.2,156.9z"/>
	</g>
	<g>
		<path class="st1" d="M109,148.6c0,0,0.3-0.1,0.7-0.1c0.4,0,0.9,0,1.4,0.2c0.5,0.2,0.9,0.4,1.2,0.7c0.1,0.2,0.2,0.3,0.3,0.5
			c0,0.1,0,0.2,0,0.2c0,0-0.1,0-0.2-0.1c-0.1,0-0.2-0.1-0.4-0.1c-0.3-0.1-0.8-0.1-1.2-0.3c-0.4-0.1-0.9-0.4-1.2-0.6
			C109.2,148.8,109,148.6,109,148.6z"/>
	</g>
</g>
<path class="st3" d="M52.1,159.4c0,0-5.9,2.1-6.4,8.4c-0.5,6.5,2.2,14.2,9.7,19c8.3,5.3,9.1,5.7,13.5,6c4.4,0.4-14.2,9.8-23.3,1.8
	s-8.5-25.4-8.5-25.4s0-11.4,9.4-12.6S49.8,157.8,52.1,159.4z"/>
</svg>
